<svg width="680" height="101" viewBox="0 0 680 101" fill="none" xmlns="http://www.w3.org/2000/svg">
<path d="M100.676 84.6506C100.755 86.2188 100.951 87.7477 101.264 89.2375C101.656 90.7273 102.127 91.825 102.676 92.5307C101.97 93.2364 100.872 94.0597 99.3824 95.0006C97.971 95.9415 96.3244 96.6864 94.4426 97.2352C92.6392 97.8625 90.7182 98.1369 88.6795 98.0585C85.6216 97.9017 83.1517 96.608 81.2699 94.1773C79.4665 91.7466 78.5256 88.7278 78.4472 85.121C78.4472 84.4153 78.4472 83.1216 78.4472 81.2398C78.4472 79.2795 78.4472 77.2017 78.4472 75.0063C78.4472 72.8108 78.4472 71.0074 78.4472 69.596C78.4472 68.2631 78.0943 66.9693 77.3886 65.7148C76.7614 64.4602 76.0165 63.7153 75.154 63.4801C73.9778 63.0881 72.9977 63.7938 72.2136 65.5972C72.0568 65.9892 71.5472 66.9693 70.6847 68.5375C69.8222 70.0273 68.842 71.7915 67.7443 73.8301C66.725 75.8688 65.7449 77.9074 64.804 79.946C63.9415 81.9847 63.3534 83.7489 63.0398 85.2386C62.7261 86.65 62.9222 87.5125 63.6278 87.8261C63.3142 88.6102 62.7261 89.7472 61.8636 91.2369C61.0795 92.7267 59.7466 94.0205 57.8648 95.1182C56.0614 96.1375 53.4739 96.5295 50.1023 96.2943C48.2989 96.1375 45.9858 95.0398 43.1631 93.0011C40.3403 90.9625 37.6352 87.2381 35.0477 81.8278C32.617 76.6528 30.6176 73.1636 29.0494 71.3602C27.5597 69.4784 26.4619 68.6159 25.7562 68.7727C25.129 68.8511 24.6193 69.2824 24.2273 70.0665C23.9136 70.8506 23.6 71.9483 23.2864 73.3597C23.1295 74.0653 23.0511 75.2415 23.0511 76.8881C23.0511 78.5347 23.1295 80.3773 23.2864 82.4159C23.4432 84.4545 23.7176 86.3756 24.1097 88.179C24.5801 89.9824 25.1682 91.3545 25.8739 92.2955C25.2466 92.6875 24.1097 93.354 22.4631 94.2949C20.8949 95.2358 19.0915 96.0983 17.0528 96.8824C15.0926 97.5881 13.1716 97.9409 11.2898 97.9409C8.46704 97.8625 6.11477 97.1176 4.23295 95.7063C2.35114 94.2165 1.2142 91.3153 0.822159 87.0028C0.74375 86.2972 0.704545 84.2977 0.704545 81.0045C0.704545 77.7114 0.704545 73.5557 0.704545 68.5375C0.704545 63.5193 0.704545 58.1483 0.704545 52.4244C0.704545 46.6222 0.704545 40.8983 0.704545 35.2528C0.704545 29.6074 0.704545 24.4324 0.704545 19.7278C0.782954 15.0233 0.822159 11.2597 0.822159 8.43694C0.822159 5.61421 0.822159 4.20285 0.822159 4.20285C1.68466 4.04603 3.13523 4.00683 5.17386 4.08523C7.2125 4.16364 9.44716 4.47728 11.8778 5.02614C14.3085 5.575 16.5432 6.47671 18.5818 7.73125C20.6205 8.90739 22.0318 10.5932 22.8159 12.7886C22.8159 12.7886 23.1687 13.5335 23.8744 15.0233C24.6585 16.4347 25.6778 18.3165 26.9324 20.6688C28.1869 22.9426 29.5199 25.4125 30.9312 28.0784C32.421 30.7443 33.8324 33.371 35.1653 35.9585C36.5767 38.546 37.792 40.8199 38.8114 42.7801C39.9091 44.7403 40.654 46.1125 41.046 46.8966C42.379 49.1705 43.6335 50.7386 44.8097 51.6011C46.0642 52.4636 47.3972 52.9341 48.8085 53.0125C51.7097 53.0125 54.4932 50.7778 57.1591 46.3085C57.5511 45.6028 58.3352 44.1131 59.5114 41.8392C60.6875 39.4869 62.0597 36.7034 63.6278 33.4886C65.196 30.2739 66.8034 26.9807 68.45 23.6091C70.175 20.2375 71.7432 17.1011 73.1545 14.2C74.5659 11.2205 75.7028 8.82898 76.5653 7.02557C77.5062 5.14375 77.9767 4.20285 77.9767 4.20285C78.5256 4.12444 79.3097 4.08523 80.329 4.08523C81.4267 4.00683 82.6028 4.04603 83.8574 4.20285C86.0528 4.35966 88.3659 4.79091 90.7966 5.49659C93.3057 6.20228 95.4619 7.3 97.2653 8.78977C99.1472 10.2796 100.206 12.279 100.441 14.7881C100.598 16.121 100.715 18.3165 100.794 21.3744C100.872 24.354 100.911 27.9216 100.911 32.0773C100.911 36.1545 100.911 40.5063 100.911 45.1324C100.911 49.7585 100.872 54.3063 100.794 58.7756C100.794 63.2449 100.755 67.3614 100.676 71.125C100.676 74.8886 100.676 77.9858 100.676 80.4165C100.676 82.7688 100.676 84.1801 100.676 84.6506ZM171.393 67.479C173.353 68.8119 174.608 70.733 175.157 73.242C175.784 75.6727 175.706 78.3386 174.922 81.2398C174.216 84.1409 172.765 86.9244 170.57 89.5903C168.374 92.1778 165.395 94.3341 161.631 96.0591C157.946 97.7841 153.477 98.6858 148.223 98.7642C143.832 98.8426 139.52 98.2937 135.286 97.1176C131.13 95.9415 127.327 94.1381 123.877 91.7074C120.506 89.2767 117.761 86.1403 115.644 82.2983C113.527 78.4563 112.351 73.8693 112.116 68.5375C112.037 67.4398 112.037 66.3028 112.116 65.1267C112.194 63.9506 112.273 62.7352 112.351 61.4807C112.351 61.167 112.351 60.8534 112.351 60.5398C112.43 60.2261 112.508 59.9125 112.586 59.5989C113.37 54.8943 114.978 50.5818 117.409 46.6614C119.918 42.7409 122.976 39.4085 126.582 36.6642C130.189 33.9199 134.031 31.9205 138.109 30.6659C142.264 29.333 146.341 28.8625 150.34 29.2545C156.535 29.8818 161.318 31.5284 164.689 34.1943C168.139 36.8602 170.374 40.1534 171.393 44.0739C172.491 47.9159 172.53 52.0716 171.511 56.5409C170.962 58.7364 169.707 60.9318 167.747 63.1273C165.865 65.2443 163.513 67.1653 160.69 68.8903C157.868 70.5369 154.849 71.8307 151.634 72.7716C148.498 73.6341 145.44 73.9869 142.46 73.8301C140.97 73.7517 140.186 74.2222 140.108 75.2415C140.03 76.1824 140.461 77.2409 141.402 78.417C142.343 79.5148 143.597 80.2597 145.165 80.6517C148.851 81.4358 152.301 81.475 155.515 80.7693C158.809 79.9852 161.318 78.9267 163.043 77.5938C164.454 76.496 165.944 75.0455 167.512 73.242C169.08 71.3602 170.374 69.4392 171.393 67.479ZM145.636 55.6C147.439 55.4432 149.007 54.8943 150.34 53.9534C151.752 52.9341 152.457 51.8756 152.457 50.7778C152.536 49.2097 152.144 47.9551 151.281 47.0142C150.497 45.9949 149.125 45.5244 147.165 45.6028C144.969 45.6813 142.852 45.9949 140.814 46.5438C138.775 47.0926 137.56 48.2295 137.168 49.9545C136.932 51.1307 137.285 52.15 138.226 53.0125C139.167 53.875 140.343 54.5415 141.755 55.0119C143.166 55.404 144.46 55.6 145.636 55.6ZM249.15 82.0631C249.228 85.5131 249.738 87.9438 250.679 89.3551C251.698 90.6881 252.208 91.3545 252.208 91.3545C252.208 91.3545 251.502 91.8642 250.09 92.8835C248.758 93.8244 246.954 94.8045 244.68 95.8239C242.406 96.8432 239.858 97.3528 237.035 97.3528C232.88 97.3528 230.175 96.2159 228.92 93.942C227.665 91.6682 226.999 88.7278 226.921 85.121C226.921 84.4938 226.96 83.1216 227.038 81.0045C227.117 78.8875 227.156 76.496 227.156 73.8301C227.234 71.0858 227.234 68.5767 227.156 66.3028C227.077 63.9506 226.921 62.304 226.685 61.3631C225.823 58.2267 224.137 56.8545 221.628 57.2466C219.668 57.4818 217.825 58.6188 216.1 60.6574C214.375 62.6176 212.964 64.9699 211.866 67.7142C210.768 70.4585 210.219 73.046 210.219 75.4767C210.219 76.7313 210.141 77.9858 209.984 79.2403C209.906 80.4165 209.827 81.5142 209.749 82.5335C209.671 83.2392 209.749 84.1017 209.984 85.121C210.298 86.1403 210.847 86.9636 211.631 87.5909C211.082 88.5318 209.984 89.7472 208.338 91.2369C206.769 92.7267 205.044 94.0989 203.163 95.3534C201.359 96.5295 199.791 97.196 198.458 97.3528C197.204 97.4312 195.714 97.0392 193.989 96.1767C192.342 95.3142 190.892 94.0205 189.637 92.2955C188.461 90.5705 187.834 88.4926 187.755 86.0619C187.755 85.4347 187.755 83.9841 187.755 81.7102C187.834 79.4364 187.873 76.692 187.873 73.4773C187.951 70.2625 187.99 66.8517 187.99 63.2449C188.069 59.6381 188.108 56.1489 188.108 52.7773C188.108 49.4057 188.108 46.5045 188.108 44.0739C188.108 41.9568 187.834 39.9182 187.285 37.958C186.814 35.9193 186.305 34.2727 185.756 33.0182C185.285 31.6852 185.05 31.0188 185.05 31.0188C185.756 30.8619 186.971 30.7443 188.696 30.6659C190.5 30.5875 192.499 30.6267 194.694 30.7835C196.89 30.9403 199.046 31.2932 201.163 31.842C203.359 32.3909 205.201 33.2534 206.691 34.4296C208.259 35.6057 209.827 36.3506 211.396 36.6642C213.042 36.8994 214.336 36.7426 215.277 36.1938C218.021 34.3903 220.805 32.8222 223.627 31.4892C226.45 30.1563 229.194 29.333 231.86 29.0193C233.193 28.8625 234.761 28.9409 236.565 29.2545C238.368 29.4898 240.133 30.0778 241.858 31.0188C243.661 31.9597 245.19 33.2926 246.444 35.0176C247.777 36.7426 248.601 38.9381 248.914 41.604C249.463 46.1517 249.62 51.7188 249.385 58.3051C249.15 64.8131 249.071 72.7324 249.15 82.0631ZM274.833 27.0199C272.167 27.0983 269.775 26.3534 267.658 24.7852C265.619 23.2171 264.051 21.296 262.954 19.0222C261.934 16.6699 261.542 14.4352 261.777 12.3182C262.169 9.10341 263.62 6.82955 266.129 5.49659C268.638 4.16364 271.265 3.45796 274.009 3.37955C277.93 3.22273 280.988 4.24205 283.183 6.4375C285.379 8.63296 286.476 11.142 286.476 13.9648C286.476 15.8466 286.045 17.7676 285.183 19.7278C284.398 21.6881 283.144 23.3739 281.419 24.7852C279.694 26.1182 277.498 26.8631 274.833 27.0199ZM287.3 85.121C287.378 86.5324 287.809 87.7477 288.593 88.767C289.456 89.708 290.475 90.6097 291.651 91.4722C291.102 92.1778 290.397 92.9227 289.534 93.7068C288.672 94.4909 287.378 95.2358 285.653 95.9415C284.006 96.5688 281.615 97.0784 278.479 97.4705C277.459 97.5489 276.165 97.4312 274.597 97.1176C273.029 96.8824 271.461 96.1375 269.893 94.883C268.403 93.55 267.188 91.4722 266.247 88.6494C265.306 85.7483 264.914 81.7886 265.071 76.7705C265.149 75.908 265.149 74.2222 265.071 71.7131C265.071 69.204 265.031 66.2244 264.953 62.7744C264.953 59.3244 264.914 55.7568 264.835 52.0716C264.835 48.3864 264.796 44.9756 264.718 41.8392C264.718 38.6244 264.679 36.0369 264.6 34.0767C264.6 32.0381 264.6 31.0188 264.6 31.0188C265.306 30.9403 266.482 30.8619 268.129 30.7835C269.854 30.6267 271.735 30.6267 273.774 30.7835C275.813 30.9403 277.773 31.3324 279.655 31.9597C281.615 32.5085 283.261 33.4102 284.594 34.6648C286.006 35.9193 286.829 37.6051 287.064 39.7222C287.456 42.7017 287.613 46.7006 287.535 51.7188C287.456 56.6585 287.339 62.0688 287.182 67.9494C287.025 73.7517 287.064 79.4756 287.3 85.121ZM338.692 2.79148C343.318 2.79148 347.748 3.61478 351.982 5.26137C356.295 6.82955 359.902 8.9466 362.803 11.6125C365.782 14.2784 367.547 17.1403 368.096 20.1983C368.488 22.2369 368.213 24.5108 367.272 27.0199C366.331 29.4506 364.842 31.6068 362.803 33.4886C360.764 35.292 358.294 36.2722 355.393 36.429C354.374 36.429 353.08 36.3114 351.512 36.0761C349.944 35.8409 348.415 35.3705 346.925 34.6648C345.514 33.9591 344.377 32.9398 343.514 31.6068C344.69 30.9795 345.474 30.3131 345.867 29.6074C346.259 28.9017 346.376 28.196 346.219 27.4903C345.906 25.9222 344.965 24.6284 343.397 23.6091C341.907 22.5898 340.064 21.9625 337.869 21.7273C336.614 21.5705 335.164 21.6097 333.517 21.8449C331.871 22.0017 330.342 22.5506 328.93 23.4915C327.597 24.354 326.656 25.8046 326.107 27.8432C325.794 29.0193 325.833 30.3131 326.225 31.7244C326.696 33.0574 327.793 34.3511 329.518 35.6057C331.243 36.7818 333.87 37.8011 337.398 38.6636C342.809 39.9182 347.827 41.2903 352.453 42.7801C357.157 44.2699 361.274 46.1125 364.802 48.308C368.331 50.5034 371.036 53.2477 372.918 56.5409C374.878 59.7557 375.78 63.7938 375.623 68.6551C375.544 71.8699 374.682 75.2415 373.035 78.7699C371.389 82.2983 368.997 85.5915 365.861 88.6494C362.724 91.629 358.882 94.0597 354.335 95.9415C349.787 97.8233 344.612 98.7642 338.81 98.7642C335.124 98.7642 331.322 98.4506 327.401 97.8233C323.481 97.196 319.756 96.2159 316.228 94.883C312.778 93.55 309.72 91.7858 307.054 89.5903C304.702 87.5517 303.016 85.0034 301.997 81.9455C301.056 78.8875 300.86 75.8295 301.409 72.7716C301.957 69.6352 303.33 66.9693 305.525 64.7739C307.799 62.5784 310.935 61.3631 314.934 61.1278C314.15 63.4801 314.581 65.7932 316.228 68.067C317.953 70.2625 320.501 72.1443 323.873 73.7125C327.244 75.2023 330.93 76.104 334.928 76.4176C339.084 76.7313 342.691 76.5744 345.749 75.9472C348.885 75.3199 350.61 74.0261 350.924 72.0659C351.316 69.7136 350.846 67.8318 349.513 66.4205C348.18 65.0091 346.337 63.9506 343.985 63.2449C341.632 62.4608 339.084 61.8335 336.34 61.3631C333.596 60.8142 331.047 60.2653 328.695 59.7165C325.559 58.854 322.383 57.7563 319.168 56.4233C316.032 55.0119 313.131 53.2477 310.465 51.1307C307.877 49.0136 305.76 46.4261 304.114 43.3682C302.467 40.3102 301.605 36.7426 301.526 32.6653C301.448 27.8824 302.428 23.6483 304.467 19.9631C306.505 16.1994 309.289 13.0631 312.817 10.554C316.346 7.96649 320.344 6.04546 324.814 4.79091C329.361 3.45796 333.988 2.79148 338.692 2.79148ZM449.939 75.7119C450.017 77.4369 450.135 79.554 450.292 82.0631C450.527 84.5722 451.037 87.0028 451.821 89.3551C452.605 91.7074 453.859 93.5892 455.584 95.0006C453.624 96.3335 451.625 97.2744 449.586 97.8233C447.547 98.4506 445.548 98.6074 443.588 98.2937C443.039 98.1369 442.451 97.9409 441.824 97.7057C441.196 97.5489 440.334 97.3136 439.236 97C437.433 96.4511 435.316 96.3335 432.885 96.6472C430.454 96.9608 427.906 97.3528 425.24 97.8233C422.653 98.3722 420.104 98.6466 417.595 98.6466C413.518 98.6466 409.441 97.9409 405.363 96.5295C401.286 95.0398 397.601 92.7659 394.308 89.708C391.015 86.65 388.505 82.7688 386.78 78.0642C385.055 73.3597 384.546 67.7142 385.251 61.1278C385.722 56.5801 387.016 52.4244 389.133 48.6608C391.25 44.8188 393.837 41.5256 396.895 38.7813C400.032 35.9585 403.325 33.8023 406.775 32.3125C410.303 30.7443 413.714 29.9994 417.007 30.0778C419.516 30.1563 421.437 30.2347 422.77 30.3131C424.182 30.3915 425.985 30.5875 428.18 30.9011C429.513 31.058 431.199 30.8619 433.238 30.3131C435.276 29.7642 437.315 29.1761 439.354 28.5489C441.471 27.8432 443.274 27.4903 444.764 27.4903C447.038 27.4119 448.645 27.4903 449.586 27.7256C450.527 27.8824 451.311 28.0392 451.938 28.196C451.468 29.6074 451.076 31.7244 450.762 34.5472C450.449 37.3699 450.213 40.5847 450.057 44.1915C449.978 47.7199 449.9 51.4051 449.821 55.2472C449.743 59.0892 449.704 62.7744 449.704 66.3028C449.782 69.8313 449.861 72.9676 449.939 75.7119ZM405.716 64.8915C405.873 68.8119 406.579 71.8699 407.833 74.0653C409.166 76.1824 410.734 77.6722 412.538 78.5347C414.42 79.3972 416.223 79.8284 417.948 79.8284C421.398 79.9068 423.946 78.5739 425.593 75.8295C427.24 73.0852 428.024 69.2824 427.945 64.421C427.945 63.0881 427.788 61.5199 427.475 59.7165C427.24 57.9131 426.769 56.1489 426.063 54.4239C425.436 52.6989 424.534 51.2483 423.358 50.0722C422.261 48.896 420.81 48.308 419.007 48.308C415.4 48.308 412.224 49.6409 409.48 52.3068C406.814 54.9727 405.559 59.1676 405.716 64.8915ZM495.772 1.85058C496.869 1.2233 498.32 0.909665 500.123 0.909665C501.927 0.831257 503.769 1.02728 505.651 1.49773C507.611 1.96819 509.297 2.63466 510.708 3.49717C512.12 4.35966 513.022 5.37898 513.414 6.55512C513.806 7.65284 513.335 8.90739 512.002 10.3188C510.356 12.0438 508.003 13.7296 504.945 15.3761C501.966 17.0227 498.829 18.5517 495.536 19.9631C492.243 21.3744 489.264 22.5898 486.598 23.6091C484.01 24.55 482.207 25.1773 481.187 25.4909C479.227 26.1966 477.737 25.7653 476.718 24.1972C475.777 22.5506 475.62 20.5903 476.248 18.3165C476.483 17.3756 477.267 16.2386 478.6 14.9057C479.933 13.4943 481.579 12.0045 483.54 10.4364C485.5 8.78978 487.539 7.2216 489.656 5.73182C491.851 4.24205 493.89 2.9483 495.772 1.85058ZM525.41 82.1807C525.41 82.8864 525.528 83.9449 525.763 85.3563C525.998 86.6892 526.312 88.1398 526.704 89.708C527.174 91.1977 527.645 92.4915 528.115 93.5892C528.586 94.6869 529.056 95.3534 529.527 95.5886C528.429 96.9216 526.665 98.0193 524.234 98.8818C521.803 99.7443 519.373 99.8619 516.942 99.2347C515.139 98.7642 513.453 98.2545 511.885 97.7057C510.395 97.2352 508.356 97.0392 505.769 97.1176C503.887 97.196 502.005 97.392 500.123 97.7057C498.32 98.0977 496.477 98.4506 494.595 98.7642C493.654 98.921 492.008 98.9602 489.656 98.8818C487.382 98.8818 484.873 98.6074 482.128 98.0585C479.462 97.5097 477.032 96.608 474.836 95.3534C471.778 93.55 469.504 90.9233 468.015 87.4733C466.525 83.9449 465.662 80.3773 465.427 76.7705C465.427 75.908 465.388 74.2222 465.31 71.7131C465.31 69.204 465.27 66.2244 465.192 62.7744C465.192 59.3244 465.153 55.7568 465.074 52.0716C465.074 48.3864 465.035 44.9756 464.957 41.8392C464.957 38.6244 464.957 36.0369 464.957 34.0767C464.957 32.0381 464.957 31.0188 464.957 31.0188C465.662 30.9403 466.839 30.8619 468.485 30.7835C470.21 30.7051 472.092 30.7443 474.131 30.9011C476.169 30.9795 478.129 31.3324 480.011 31.9597C481.972 32.5085 483.618 33.4102 484.951 34.6648C486.362 35.9193 487.186 37.6051 487.421 39.7222C487.656 41.4472 487.813 43.0153 487.891 44.4267C487.97 45.8381 487.97 47.4063 487.891 49.1313C487.891 50.7778 487.813 52.8557 487.656 55.3648C487.578 57.7955 487.46 60.8926 487.303 64.6563C487.147 67.7142 487.107 70.3409 487.186 72.5364C487.264 74.7318 487.774 76.3784 488.715 77.4761C489.734 78.5739 491.537 79.0835 494.125 79.0051C495.85 78.9267 497.301 78.2602 498.477 77.0057C499.653 75.6727 500.554 74.0653 501.182 72.1835C501.887 70.3017 502.397 68.3807 502.711 66.4205C503.024 64.4602 503.142 62.7352 503.064 61.2455C503.064 60.9318 503.024 59.7165 502.946 57.5994C502.946 55.404 502.907 52.8557 502.828 49.9545C502.828 46.975 502.789 44.0347 502.711 41.1335C502.711 38.2324 502.711 35.8409 502.711 33.9591C502.711 31.9989 502.711 31.0188 502.711 31.0188C503.416 30.9403 504.593 30.9403 506.239 31.0188C507.886 31.0188 509.728 31.1756 511.767 31.4892C513.806 31.8028 515.805 32.3517 517.765 33.1358C519.726 33.9199 521.372 35.0176 522.705 36.429C524.116 37.7619 524.94 39.4869 525.175 41.604C525.645 46.1517 525.724 51.7188 525.41 58.3051C525.175 64.8131 525.175 72.7716 525.41 82.1807ZM603.965 82.4159C605.298 83.9841 607.258 85.0818 609.846 85.7091C609.454 87.3557 608.944 89.1199 608.317 91.0017C607.768 92.8835 606.866 94.5301 605.612 95.9415C604.435 97.3528 602.71 98.2545 600.437 98.6466C599.417 98.8818 598.124 98.8034 596.555 98.4114C594.987 98.0193 593.105 97.5489 590.91 97C589.499 96.608 587.695 96.5295 585.5 96.7648C583.304 96.9216 581.226 97.1568 579.266 97.4705C577.384 97.7841 576.13 98.0193 575.503 98.1761C574.64 98.4114 573.778 98.529 572.915 98.529C572.053 98.6074 571.19 98.6466 570.328 98.6466C566.25 98.6466 562.212 97.9409 558.213 96.5295C554.293 95.0398 550.764 92.7659 547.628 89.708C544.492 86.65 542.1 82.7688 540.454 78.0642C538.885 73.3597 538.454 67.7142 539.16 61.1278C539.63 56.5801 540.846 52.346 542.806 48.4256C544.845 44.5051 547.354 41.0943 550.333 38.1932C553.313 35.2136 556.488 32.9398 559.86 31.3716C563.31 29.725 566.682 28.9017 569.975 28.9017C570.68 28.9017 571.347 28.9017 571.974 28.9017C572.68 28.9017 573.346 28.8625 573.974 28.7841C575.385 28.5489 576.757 27.7648 578.09 26.4318C579.423 25.0989 580.325 23.4523 580.795 21.4921C581.03 20.3943 581.187 19.1006 581.266 17.6108C581.344 16.121 581.383 15.2193 581.383 14.9057C581.618 13.1023 582.285 11.5733 583.383 10.3188C584.48 8.9858 585.774 7.92728 587.264 7.14318C589.303 6.04546 591.537 5.26137 593.968 4.79091C596.399 4.32046 598.633 4.08523 600.672 4.08523C602.789 4.00683 604.357 4.08523 605.376 4.32046C605.298 4.79091 605.141 6.47671 604.906 9.37784C604.671 12.279 604.396 15.925 604.083 20.3159C603.769 24.7068 603.455 29.529 603.142 34.7824C602.828 39.9574 602.554 45.1716 602.318 50.425C602.162 55.6784 602.083 60.579 602.083 65.1267C602.083 69.6744 602.24 73.4773 602.554 76.5352C602.867 79.5932 603.338 81.5534 603.965 82.4159ZM560.213 65.0091C559.978 68.067 560.33 70.6153 561.271 72.654C562.291 74.6142 563.545 76.104 565.035 77.1233C566.603 78.0642 568.132 78.5739 569.622 78.6523C572.445 78.7307 574.601 78.025 576.091 76.5352C577.659 74.967 578.717 72.9284 579.266 70.4193C579.815 67.8318 580.089 65.0875 580.089 62.1864C580.089 57.7955 579.227 54.6199 577.502 52.6597C575.777 50.6994 573.072 49.8369 569.387 50.0722C567.034 50.229 564.996 51.3659 563.271 53.483C561.624 55.6 560.605 59.442 560.213 65.0091ZM674.927 67.479C676.887 68.8119 678.141 70.733 678.69 73.242C679.317 75.6727 679.239 78.3386 678.455 81.2398C677.749 84.1409 676.299 86.9244 674.103 89.5903C671.908 92.1778 668.928 94.3341 665.165 96.0591C661.479 97.7841 657.01 98.6858 651.757 98.7642C647.366 98.8426 643.053 98.2937 638.819 97.1176C634.663 95.9415 630.861 94.1381 627.411 91.7074C624.039 89.2767 621.295 86.1403 619.178 82.2983C617.061 78.4563 615.884 73.8693 615.649 68.5375C615.571 67.4398 615.571 66.3028 615.649 65.1267C615.728 63.9506 615.806 62.7352 615.884 61.4807C615.884 61.167 615.884 60.8534 615.884 60.5398C615.963 60.2261 616.041 59.9125 616.12 59.5989C616.904 54.8943 618.511 50.5818 620.942 46.6614C623.451 42.7409 626.509 39.4085 630.116 36.6642C633.723 33.9199 637.565 31.9205 641.642 30.6659C645.798 29.333 649.875 28.8625 653.874 29.2545C660.068 29.8818 664.851 31.5284 668.223 34.1943C671.673 36.8602 673.907 40.1534 674.927 44.0739C676.024 47.9159 676.063 52.0716 675.044 56.5409C674.495 58.7364 673.241 60.9318 671.28 63.1273C669.399 65.2443 667.046 67.1653 664.224 68.8903C661.401 70.5369 658.382 71.8307 655.167 72.7716C652.031 73.6341 648.973 73.9869 645.994 73.8301C644.504 73.7517 643.72 74.2222 643.641 75.2415C643.563 76.1824 643.994 77.2409 644.935 78.417C645.876 79.5148 647.13 80.2597 648.699 80.6517C652.384 81.4358 655.834 81.475 659.049 80.7693C662.342 79.9852 664.851 78.9267 666.576 77.5938C667.987 76.496 669.477 75.0455 671.045 73.242C672.613 71.3602 673.907 69.4392 674.927 67.479ZM649.169 55.6C650.973 55.4432 652.541 54.8943 653.874 53.9534C655.285 52.9341 655.991 51.8756 655.991 50.7778C656.069 49.2097 655.677 47.9551 654.815 47.0142C654.03 45.9949 652.658 45.5244 650.698 45.6028C648.503 45.6813 646.386 45.9949 644.347 46.5438C642.308 47.0926 641.093 48.2295 640.701 49.9545C640.466 51.1307 640.819 52.15 641.759 53.0125C642.7 53.875 643.877 54.5415 645.288 55.0119C646.699 55.404 647.993 55.6 649.169 55.6Z" fill="white"/>
</svg>
