<svg width="794" height="680" viewBox="0 0 794 680" fill="none" xmlns="http://www.w3.org/2000/svg">
<g clip-path="url(#clip0_125_391)">
<rect width="793.789" height="680" fill="#E56C37"/>
<g clip-path="url(#clip1_125_391)">
<path fill-rule="evenodd" clip-rule="evenodd" d="M740.019 403.89H740.693C741.438 403.89 742.042 404.494 742.042 405.239V469.998C742.042 470.743 741.438 471.347 740.693 471.347H740.019V403.89Z" fill="#121515"/>
<path fill-rule="evenodd" clip-rule="evenodd" d="M454 444.366C454 443.621 454.604 443.017 455.349 443.017H456.024V485.515H455.349C454.604 485.515 454 484.911 454 484.165V444.366Z" fill="#121515"/>
<path fill-rule="evenodd" clip-rule="evenodd" d="M454 391.074C454 390.329 454.604 389.725 455.349 389.725H456.024V432.223H455.349C454.604 432.223 454 431.619 454 430.873V391.074Z" fill="#121515"/>
<path fill-rule="evenodd" clip-rule="evenodd" d="M454 349.924C454 349.179 454.604 348.575 455.349 348.575H456.024V370.836H455.349C454.604 370.836 454 370.232 454 369.487V349.924Z" fill="#121515"/>
<g filter="url(#filter0_dd_125_391)">
<path fill-rule="evenodd" clip-rule="evenodd" d="M456.024 313.498C456.024 290.027 475.051 271 498.522 271H697.52C720.991 271 740.018 290.027 740.018 313.498V807.285C740.018 830.756 720.991 849.783 697.52 849.783H498.522C475.051 849.783 456.024 830.756 456.024 807.285V313.498Z" fill="#3A4245"/>
</g>
<path fill-rule="evenodd" clip-rule="evenodd" d="M459.397 313.499C459.397 291.891 476.914 274.374 498.522 274.374H697.521C719.129 274.374 736.646 291.891 736.646 313.499V807.286C736.646 828.894 719.129 846.411 697.521 846.411H498.522C476.914 846.411 459.397 828.894 459.397 807.286V313.499Z" fill="#121515"/>
<path fill-rule="evenodd" clip-rule="evenodd" d="M628.714 297.985C631.695 297.985 634.111 295.568 634.111 292.588C634.111 289.608 631.695 287.191 628.714 287.191C625.734 287.191 623.318 289.608 623.318 292.588C623.318 295.568 625.734 297.985 628.714 297.985Z" fill="#262C2D"/>
<path fill-rule="evenodd" clip-rule="evenodd" d="M628.714 295.961C630.577 295.961 632.087 294.45 632.087 292.588C632.087 290.725 630.577 289.215 628.714 289.215C626.852 289.215 625.342 290.725 625.342 292.588C625.342 294.45 626.852 295.961 628.714 295.961Z" fill="#121515"/>
<path opacity="0.4" fill-rule="evenodd" clip-rule="evenodd" d="M628.714 291.914C629.087 291.914 629.389 291.612 629.389 291.239C629.389 290.866 629.087 290.564 628.714 290.564C628.342 290.564 628.04 290.866 628.04 291.239C628.04 291.612 628.342 291.914 628.714 291.914Z" fill="#636F73"/>
<path fill-rule="evenodd" clip-rule="evenodd" d="M580.82 292.586C580.82 291.469 581.726 290.562 582.844 290.562H613.199C614.317 290.562 615.223 291.469 615.223 292.586C615.223 293.704 614.317 294.61 613.199 294.61H582.844C581.726 294.61 580.82 293.704 580.82 292.586Z" fill="#262C2D"/>
<mask id="mask0_125_391" style="mask-type:alpha" maskUnits="userSpaceOnUse" x="471" y="286" width="254" height="549">
<path fill-rule="evenodd" clip-rule="evenodd" d="M543.043 306.753H652.999C661.94 306.753 669.188 299.504 669.188 289.72C669.28 287.99 670.663 286.607 672.388 286.52L698.869 286.516C713.027 286.516 724.503 297.992 724.503 312.149V808.634C724.503 822.791 713.027 834.268 698.869 834.268H497.172C483.015 834.268 471.539 822.791 471.539 808.634V312.149C471.539 297.992 483.015 286.516 497.172 286.516H523.649C525.379 286.607 526.762 287.99 526.849 289.715C526.854 299.504 534.102 306.753 543.043 306.753Z" fill="white"/>
</mask>
<g mask="url(#mask0_125_391)">
<rect width="252.964" height="547.752" transform="translate(471.538 286.516)" fill="white"/>
<path d="M550.333 568.076C550.349 568.387 550.388 568.69 550.45 568.986C550.528 569.282 550.621 569.5 550.73 569.64C550.59 569.78 550.372 569.944 550.076 570.13C549.796 570.317 549.469 570.465 549.096 570.574C548.738 570.699 548.356 570.753 547.952 570.737C547.344 570.706 546.854 570.45 546.48 569.967C546.122 569.484 545.936 568.885 545.92 568.169C545.92 568.029 545.92 567.772 545.92 567.398C545.92 567.009 545.92 566.597 545.92 566.161C545.92 565.725 545.92 565.367 545.92 565.087C545.92 564.822 545.85 564.565 545.71 564.316C545.585 564.067 545.437 563.919 545.266 563.872C545.033 563.795 544.838 563.935 544.682 564.293C544.651 564.371 544.55 564.565 544.379 564.877C544.208 565.172 544.013 565.523 543.795 565.927C543.593 566.332 543.398 566.737 543.211 567.142C543.04 567.546 542.923 567.897 542.861 568.192C542.799 568.472 542.838 568.644 542.978 568.706C542.916 568.862 542.799 569.087 542.628 569.383C542.472 569.679 542.207 569.936 541.834 570.154C541.476 570.356 540.962 570.434 540.293 570.387C539.935 570.356 539.475 570.138 538.915 569.733C538.354 569.329 537.817 568.589 537.304 567.515C536.821 566.488 536.424 565.795 536.113 565.437C535.817 565.063 535.599 564.892 535.459 564.923C535.334 564.939 535.233 565.024 535.155 565.18C535.093 565.336 535.031 565.554 534.969 565.834C534.938 565.974 534.922 566.207 534.922 566.534C534.922 566.861 534.938 567.227 534.969 567.632C535 568.037 535.054 568.418 535.132 568.776C535.226 569.134 535.342 569.407 535.482 569.593C535.358 569.671 535.132 569.803 534.805 569.99C534.494 570.177 534.136 570.348 533.731 570.504C533.342 570.644 532.961 570.714 532.587 570.714C532.026 570.699 531.559 570.551 531.186 570.27C530.812 569.975 530.587 569.399 530.509 568.543C530.493 568.402 530.485 568.005 530.485 567.352C530.485 566.698 530.485 565.873 530.485 564.877C530.485 563.88 530.485 562.814 530.485 561.677C530.485 560.526 530.485 559.389 530.485 558.268C530.485 557.147 530.485 556.12 530.485 555.186C530.501 554.252 530.509 553.505 530.509 552.944C530.509 552.384 530.509 552.104 530.509 552.104C530.68 552.073 530.968 552.065 531.373 552.08C531.777 552.096 532.221 552.158 532.704 552.267C533.186 552.376 533.63 552.555 534.035 552.804C534.439 553.038 534.72 553.372 534.875 553.808C534.875 553.808 534.945 553.956 535.085 554.252C535.241 554.532 535.443 554.906 535.693 555.373C535.942 555.824 536.206 556.315 536.486 556.844C536.782 557.373 537.062 557.895 537.327 558.408C537.607 558.922 537.849 559.374 538.051 559.763C538.269 560.152 538.417 560.424 538.495 560.58C538.759 561.031 539.008 561.343 539.242 561.514C539.491 561.685 539.756 561.779 540.036 561.794C540.612 561.794 541.164 561.351 541.694 560.463C541.771 560.323 541.927 560.027 542.161 559.576C542.394 559.109 542.667 558.556 542.978 557.918C543.289 557.28 543.608 556.626 543.935 555.957C544.278 555.287 544.589 554.665 544.869 554.089C545.15 553.497 545.375 553.022 545.546 552.664C545.733 552.291 545.827 552.104 545.827 552.104C545.936 552.088 546.091 552.08 546.294 552.08C546.512 552.065 546.745 552.073 546.994 552.104C547.43 552.135 547.889 552.22 548.372 552.361C548.87 552.501 549.298 552.719 549.656 553.014C550.03 553.31 550.24 553.707 550.287 554.205C550.318 554.47 550.341 554.906 550.357 555.513C550.372 556.104 550.38 556.813 550.38 557.638C550.38 558.447 550.38 559.311 550.38 560.23C550.38 561.148 550.372 562.051 550.357 562.938C550.357 563.826 550.349 564.643 550.333 565.39C550.333 566.137 550.333 566.752 550.333 567.235C550.333 567.702 550.333 567.982 550.333 568.076ZM564.373 564.666C564.762 564.931 565.011 565.312 565.12 565.811C565.245 566.293 565.229 566.822 565.074 567.398C564.934 567.974 564.646 568.527 564.21 569.056C563.774 569.57 563.182 569.998 562.435 570.341C561.703 570.683 560.816 570.862 559.773 570.878C558.901 570.893 558.045 570.784 557.205 570.551C556.38 570.317 555.625 569.959 554.94 569.477C554.27 568.994 553.725 568.371 553.305 567.609C552.885 566.846 552.651 565.935 552.605 564.877C552.589 564.659 552.589 564.433 552.605 564.199C552.62 563.966 552.636 563.725 552.651 563.475C552.651 563.413 552.651 563.351 552.651 563.289C552.667 563.226 552.682 563.164 552.698 563.102C552.854 562.168 553.173 561.312 553.655 560.533C554.153 559.755 554.761 559.093 555.477 558.549C556.193 558.004 556.956 557.607 557.765 557.358C558.59 557.093 559.4 557 560.193 557.077C561.423 557.202 562.373 557.529 563.042 558.058C563.727 558.587 564.171 559.241 564.373 560.02C564.591 560.782 564.599 561.607 564.397 562.495C564.288 562.931 564.039 563.367 563.649 563.802C563.276 564.223 562.809 564.604 562.248 564.947C561.688 565.273 561.089 565.53 560.45 565.717C559.828 565.888 559.221 565.958 558.629 565.927C558.333 565.912 558.178 566.005 558.162 566.207C558.146 566.394 558.232 566.604 558.419 566.838C558.606 567.056 558.855 567.204 559.166 567.282C559.898 567.437 560.583 567.445 561.221 567.305C561.875 567.149 562.373 566.939 562.715 566.675C562.996 566.457 563.291 566.169 563.603 565.811C563.914 565.437 564.171 565.056 564.373 564.666ZM559.259 562.308C559.617 562.277 559.929 562.168 560.193 561.981C560.474 561.779 560.614 561.569 560.614 561.351C560.629 561.039 560.552 560.79 560.38 560.603C560.225 560.401 559.952 560.308 559.563 560.323C559.127 560.339 558.707 560.401 558.302 560.51C557.897 560.619 557.656 560.845 557.578 561.187C557.532 561.421 557.602 561.623 557.788 561.794C557.975 561.965 558.209 562.098 558.489 562.191C558.769 562.269 559.026 562.308 559.259 562.308ZM579.811 567.562C579.826 568.247 579.927 568.729 580.114 569.01C580.317 569.274 580.418 569.407 580.418 569.407C580.418 569.407 580.278 569.508 579.997 569.71C579.733 569.897 579.375 570.091 578.923 570.294C578.472 570.496 577.966 570.597 577.406 570.597C576.581 570.597 576.043 570.372 575.794 569.92C575.545 569.469 575.413 568.885 575.397 568.169C575.397 568.044 575.405 567.772 575.421 567.352C575.436 566.931 575.444 566.457 575.444 565.927C575.46 565.382 575.46 564.884 575.444 564.433C575.429 563.966 575.397 563.639 575.351 563.452C575.179 562.829 574.845 562.557 574.347 562.635C573.957 562.682 573.592 562.907 573.249 563.312C572.907 563.701 572.626 564.168 572.409 564.713C572.191 565.258 572.082 565.772 572.082 566.254C572.082 566.503 572.066 566.752 572.035 567.001C572.019 567.235 572.004 567.453 571.988 567.655C571.973 567.795 571.988 567.967 572.035 568.169C572.097 568.371 572.206 568.535 572.362 568.659C572.253 568.846 572.035 569.087 571.708 569.383C571.397 569.679 571.054 569.951 570.681 570.2C570.323 570.434 570.011 570.566 569.747 570.597C569.498 570.613 569.202 570.535 568.859 570.364C568.532 570.193 568.244 569.936 567.995 569.593C567.762 569.251 567.637 568.838 567.622 568.356C567.622 568.231 567.622 567.943 567.622 567.492C567.637 567.04 567.645 566.495 567.645 565.857C567.661 565.219 567.668 564.542 567.668 563.826C567.684 563.11 567.692 562.417 567.692 561.748C567.692 561.078 567.692 560.502 567.692 560.02C567.692 559.599 567.637 559.195 567.528 558.805C567.435 558.401 567.334 558.074 567.225 557.825C567.131 557.56 567.085 557.428 567.085 557.428C567.225 557.397 567.466 557.373 567.808 557.358C568.167 557.342 568.563 557.35 568.999 557.381C569.435 557.412 569.863 557.482 570.284 557.591C570.72 557.7 571.085 557.871 571.381 558.105C571.692 558.338 572.004 558.486 572.315 558.549C572.642 558.595 572.899 558.564 573.086 558.455C573.631 558.097 574.183 557.786 574.744 557.521C575.304 557.256 575.849 557.093 576.378 557.031C576.643 557 576.954 557.015 577.312 557.077C577.67 557.124 578.02 557.241 578.363 557.428C578.721 557.614 579.025 557.879 579.274 558.222C579.538 558.564 579.702 559 579.764 559.529C579.873 560.432 579.904 561.537 579.857 562.845C579.811 564.137 579.795 565.709 579.811 567.562ZM584.91 556.634C584.38 556.649 583.906 556.501 583.485 556.19C583.081 555.879 582.769 555.497 582.551 555.046C582.349 554.579 582.271 554.135 582.318 553.715C582.396 553.077 582.684 552.625 583.182 552.361C583.68 552.096 584.201 551.956 584.746 551.94C585.525 551.909 586.132 552.112 586.568 552.547C587.003 552.983 587.221 553.481 587.221 554.042C587.221 554.415 587.136 554.797 586.965 555.186C586.809 555.575 586.56 555.91 586.217 556.19C585.875 556.455 585.439 556.603 584.91 556.634ZM587.385 568.169C587.4 568.449 587.486 568.69 587.642 568.893C587.813 569.08 588.015 569.259 588.249 569.43C588.14 569.57 588 569.718 587.829 569.874C587.657 570.029 587.4 570.177 587.058 570.317C586.731 570.442 586.256 570.543 585.634 570.621C585.431 570.636 585.174 570.613 584.863 570.551C584.552 570.504 584.24 570.356 583.929 570.107C583.633 569.842 583.392 569.43 583.205 568.869C583.018 568.293 582.94 567.507 582.972 566.511C582.987 566.34 582.987 566.005 582.972 565.507C582.972 565.009 582.964 564.417 582.948 563.732C582.948 563.047 582.94 562.339 582.925 561.607C582.925 560.876 582.917 560.199 582.902 559.576C582.902 558.938 582.894 558.424 582.878 558.035C582.878 557.63 582.878 557.428 582.878 557.428C583.018 557.412 583.252 557.397 583.579 557.381C583.921 557.35 584.295 557.35 584.7 557.381C585.104 557.412 585.493 557.49 585.867 557.614C586.256 557.723 586.583 557.902 586.848 558.152C587.128 558.401 587.291 558.735 587.338 559.156C587.416 559.747 587.447 560.541 587.432 561.537C587.416 562.518 587.393 563.592 587.361 564.76C587.33 565.912 587.338 567.048 587.385 568.169Z" fill="#E56C37"/>
<path d="M597.588 551.824C598.507 551.824 599.386 551.987 600.227 552.314C601.083 552.625 601.799 553.046 602.375 553.575C602.967 554.104 603.317 554.672 603.426 555.279C603.504 555.684 603.449 556.136 603.262 556.634C603.076 557.116 602.78 557.544 602.375 557.918C601.97 558.276 601.48 558.471 600.904 558.502C600.702 558.502 600.445 558.478 600.133 558.432C599.822 558.385 599.518 558.292 599.223 558.152C598.942 558.011 598.717 557.809 598.545 557.544C598.779 557.42 598.935 557.288 599.013 557.147C599.09 557.007 599.114 556.867 599.083 556.727C599.02 556.416 598.833 556.159 598.522 555.957C598.226 555.754 597.861 555.63 597.425 555.583C597.176 555.552 596.888 555.56 596.561 555.606C596.234 555.637 595.93 555.746 595.65 555.933C595.385 556.104 595.199 556.392 595.09 556.797C595.027 557.031 595.035 557.288 595.113 557.568C595.206 557.832 595.424 558.089 595.767 558.338C596.109 558.572 596.631 558.774 597.331 558.945C598.405 559.195 599.402 559.467 600.32 559.763C601.254 560.059 602.071 560.424 602.772 560.86C603.472 561.296 604.01 561.841 604.383 562.495C604.772 563.133 604.951 563.935 604.92 564.9C604.905 565.538 604.733 566.207 604.406 566.908C604.08 567.609 603.605 568.262 602.982 568.869C602.359 569.461 601.597 569.944 600.694 570.317C599.791 570.691 598.763 570.878 597.611 570.878C596.88 570.878 596.125 570.815 595.346 570.691C594.568 570.566 593.829 570.372 593.128 570.107C592.443 569.842 591.836 569.492 591.307 569.056C590.84 568.652 590.505 568.146 590.303 567.538C590.116 566.931 590.077 566.324 590.186 565.717C590.295 565.094 590.567 564.565 591.003 564.129C591.455 563.693 592.077 563.452 592.871 563.405C592.716 563.872 592.801 564.332 593.128 564.783C593.471 565.219 593.977 565.593 594.646 565.904C595.315 566.2 596.047 566.379 596.841 566.441C597.666 566.503 598.382 566.472 598.989 566.348C599.612 566.223 599.954 565.966 600.017 565.577C600.094 565.11 600.001 564.736 599.736 564.456C599.472 564.176 599.106 563.966 598.639 563.826C598.172 563.67 597.666 563.546 597.121 563.452C596.576 563.343 596.07 563.234 595.603 563.125C594.981 562.954 594.35 562.736 593.712 562.471C593.089 562.191 592.513 561.841 591.984 561.421C591.47 561 591.05 560.487 590.723 559.879C590.396 559.272 590.225 558.564 590.209 557.755C590.194 556.805 590.388 555.964 590.793 555.233C591.198 554.486 591.75 553.863 592.451 553.365C593.152 552.851 593.945 552.47 594.833 552.22C595.736 551.956 596.654 551.824 597.588 551.824ZM619.675 566.301C619.69 566.643 619.714 567.064 619.745 567.562C619.791 568.06 619.893 568.543 620.048 569.01C620.204 569.477 620.453 569.85 620.795 570.13C620.406 570.395 620.009 570.582 619.605 570.691C619.2 570.815 618.803 570.846 618.414 570.784C618.305 570.753 618.188 570.714 618.063 570.667C617.939 570.636 617.768 570.59 617.55 570.527C617.192 570.418 616.771 570.395 616.289 570.457C615.806 570.52 615.3 570.597 614.771 570.691C614.257 570.8 613.751 570.854 613.253 570.854C612.444 570.854 611.634 570.714 610.825 570.434C610.015 570.138 609.284 569.687 608.63 569.08C607.976 568.472 607.478 567.702 607.135 566.768C606.793 565.834 606.692 564.713 606.832 563.405C606.925 562.503 607.182 561.677 607.602 560.93C608.023 560.167 608.536 559.514 609.144 558.969C609.766 558.408 610.42 557.98 611.105 557.685C611.806 557.373 612.483 557.225 613.137 557.241C613.635 557.256 614.016 557.272 614.281 557.288C614.561 557.303 614.919 557.342 615.355 557.404C615.619 557.435 615.954 557.397 616.359 557.288C616.764 557.179 617.168 557.062 617.573 556.937C617.993 556.797 618.351 556.727 618.647 556.727C619.099 556.712 619.418 556.727 619.605 556.774C619.791 556.805 619.947 556.836 620.072 556.867C619.978 557.147 619.9 557.568 619.838 558.128C619.776 558.689 619.729 559.327 619.698 560.043C619.682 560.743 619.667 561.475 619.651 562.238C619.636 563.001 619.628 563.732 619.628 564.433C619.644 565.133 619.659 565.756 619.675 566.301ZM610.895 564.153C610.926 564.931 611.066 565.538 611.315 565.974C611.58 566.394 611.891 566.69 612.249 566.861C612.623 567.033 612.981 567.118 613.323 567.118C614.008 567.134 614.514 566.869 614.841 566.324C615.168 565.779 615.324 565.024 615.308 564.059C615.308 563.795 615.277 563.483 615.215 563.125C615.168 562.767 615.075 562.417 614.934 562.074C614.81 561.732 614.631 561.444 614.397 561.21C614.179 560.977 613.892 560.86 613.533 560.86C612.817 560.86 612.187 561.125 611.642 561.654C611.113 562.183 610.864 563.016 610.895 564.153ZM628.774 551.637C628.992 551.512 629.28 551.45 629.638 551.45C629.996 551.434 630.362 551.473 630.736 551.567C631.125 551.66 631.459 551.792 631.74 551.964C632.02 552.135 632.199 552.337 632.277 552.571C632.355 552.789 632.261 553.038 631.996 553.318C631.67 553.66 631.203 553.995 630.595 554.322C630.004 554.649 629.381 554.953 628.727 555.233C628.074 555.513 627.482 555.754 626.953 555.957C626.439 556.143 626.081 556.268 625.879 556.33C625.489 556.47 625.194 556.385 624.991 556.073C624.804 555.746 624.773 555.357 624.898 554.906C624.945 554.719 625.1 554.493 625.365 554.229C625.63 553.948 625.956 553.653 626.346 553.341C626.735 553.014 627.14 552.703 627.56 552.407C627.996 552.112 628.4 551.855 628.774 551.637ZM634.658 567.585C634.658 567.725 634.682 567.935 634.728 568.216C634.775 568.48 634.837 568.768 634.915 569.08C635.009 569.375 635.102 569.632 635.195 569.85C635.289 570.068 635.382 570.2 635.476 570.247C635.258 570.512 634.908 570.73 634.425 570.901C633.942 571.072 633.46 571.096 632.977 570.971C632.619 570.878 632.284 570.776 631.973 570.667C631.677 570.574 631.273 570.535 630.759 570.551C630.385 570.566 630.012 570.605 629.638 570.667C629.28 570.745 628.914 570.815 628.541 570.878C628.354 570.909 628.027 570.917 627.56 570.901C627.108 570.901 626.61 570.846 626.065 570.737C625.536 570.629 625.054 570.45 624.618 570.2C624.011 569.842 623.559 569.321 623.263 568.636C622.968 567.935 622.796 567.227 622.75 566.511C622.75 566.34 622.742 566.005 622.726 565.507C622.726 565.009 622.719 564.417 622.703 563.732C622.703 563.047 622.695 562.339 622.68 561.607C622.68 560.876 622.672 560.199 622.656 559.576C622.656 558.938 622.656 558.424 622.656 558.035C622.656 557.63 622.656 557.428 622.656 557.428C622.796 557.412 623.03 557.397 623.357 557.381C623.699 557.365 624.073 557.373 624.478 557.404C624.882 557.42 625.271 557.49 625.645 557.614C626.034 557.723 626.361 557.902 626.626 558.152C626.906 558.401 627.069 558.735 627.116 559.156C627.163 559.498 627.194 559.809 627.21 560.09C627.225 560.37 627.225 560.681 627.21 561.024C627.21 561.351 627.194 561.763 627.163 562.261C627.147 562.744 627.124 563.359 627.093 564.106C627.062 564.713 627.054 565.235 627.069 565.67C627.085 566.106 627.186 566.433 627.373 566.651C627.575 566.869 627.933 566.97 628.447 566.955C628.79 566.939 629.078 566.807 629.311 566.558C629.545 566.293 629.724 565.974 629.848 565.6C629.988 565.227 630.09 564.845 630.152 564.456C630.214 564.067 630.237 563.725 630.222 563.429C630.222 563.367 630.214 563.125 630.198 562.705C630.198 562.269 630.191 561.763 630.175 561.187C630.175 560.596 630.167 560.012 630.152 559.436C630.152 558.86 630.152 558.385 630.152 558.011C630.152 557.622 630.152 557.428 630.152 557.428C630.292 557.412 630.525 557.412 630.852 557.428C631.179 557.428 631.545 557.459 631.95 557.521C632.355 557.583 632.751 557.692 633.141 557.848C633.53 558.004 633.857 558.222 634.121 558.502C634.402 558.766 634.565 559.109 634.612 559.529C634.705 560.432 634.721 561.537 634.658 562.845C634.612 564.137 634.612 565.717 634.658 567.585ZM650.254 567.632C650.519 567.943 650.908 568.161 651.422 568.286C651.344 568.613 651.243 568.963 651.118 569.336C651.009 569.71 650.83 570.037 650.581 570.317C650.348 570.597 650.005 570.776 649.554 570.854C649.352 570.901 649.095 570.885 648.783 570.808C648.472 570.73 648.098 570.636 647.663 570.527C647.382 570.45 647.024 570.434 646.588 570.481C646.153 570.512 645.74 570.558 645.351 570.621C644.977 570.683 644.728 570.73 644.604 570.761C644.432 570.808 644.261 570.831 644.09 570.831C643.919 570.846 643.747 570.854 643.576 570.854C642.767 570.854 641.965 570.714 641.171 570.434C640.393 570.138 639.692 569.687 639.069 569.08C638.447 568.472 637.972 567.702 637.645 566.768C637.334 565.834 637.248 564.713 637.388 563.405C637.482 562.503 637.723 561.662 638.112 560.884C638.517 560.105 639.015 559.428 639.607 558.852C640.198 558.261 640.829 557.809 641.498 557.498C642.183 557.171 642.852 557.007 643.506 557.007C643.646 557.007 643.779 557.007 643.903 557.007C644.043 557.007 644.175 557 644.3 556.984C644.58 556.937 644.853 556.782 645.117 556.517C645.382 556.252 645.561 555.925 645.654 555.536C645.701 555.318 645.732 555.061 645.748 554.766C645.763 554.47 645.771 554.291 645.771 554.229C645.818 553.871 645.95 553.567 646.168 553.318C646.386 553.053 646.643 552.843 646.939 552.688C647.343 552.47 647.787 552.314 648.27 552.22C648.752 552.127 649.196 552.08 649.601 552.08C650.021 552.065 650.332 552.08 650.535 552.127C650.519 552.22 650.488 552.555 650.441 553.131C650.395 553.707 650.34 554.431 650.278 555.303C650.215 556.175 650.153 557.132 650.091 558.175C650.029 559.202 649.974 560.238 649.928 561.281C649.896 562.324 649.881 563.296 649.881 564.199C649.881 565.102 649.912 565.857 649.974 566.464C650.036 567.071 650.13 567.461 650.254 567.632ZM641.568 564.176C641.521 564.783 641.591 565.289 641.778 565.694C641.981 566.083 642.23 566.379 642.525 566.581C642.837 566.768 643.14 566.869 643.436 566.885C643.996 566.9 644.425 566.76 644.72 566.464C645.032 566.153 645.242 565.748 645.351 565.25C645.46 564.736 645.514 564.192 645.514 563.616C645.514 562.744 645.343 562.113 645.001 561.724C644.658 561.335 644.121 561.164 643.389 561.21C642.922 561.242 642.518 561.467 642.175 561.888C641.848 562.308 641.646 563.071 641.568 564.176ZM664.343 564.666C664.732 564.931 664.981 565.312 665.09 565.811C665.215 566.293 665.199 566.822 665.043 567.398C664.903 567.974 664.615 568.527 664.179 569.056C663.744 569.57 663.152 569.998 662.405 570.341C661.673 570.683 660.786 570.862 659.743 570.878C658.871 570.893 658.015 570.784 657.174 570.551C656.349 570.317 655.594 569.959 654.909 569.477C654.24 568.994 653.695 568.371 653.275 567.609C652.854 566.846 652.621 565.935 652.574 564.877C652.559 564.659 652.559 564.433 652.574 564.199C652.59 563.966 652.605 563.725 652.621 563.475C652.621 563.413 652.621 563.351 652.621 563.289C652.636 563.226 652.652 563.164 652.668 563.102C652.823 562.168 653.142 561.312 653.625 560.533C654.123 559.755 654.73 559.093 655.446 558.549C656.162 558.004 656.925 557.607 657.735 557.358C658.56 557.093 659.369 557 660.163 557.077C661.393 557.202 662.342 557.529 663.012 558.058C663.697 558.587 664.14 559.241 664.343 560.02C664.561 560.782 664.569 561.607 664.366 562.495C664.257 562.931 664.008 563.367 663.619 563.802C663.245 564.223 662.778 564.604 662.218 564.947C661.658 565.273 661.058 565.53 660.42 565.717C659.797 565.888 659.19 565.958 658.599 565.927C658.303 565.912 658.147 566.005 658.132 566.207C658.116 566.394 658.202 566.604 658.388 566.838C658.575 567.056 658.824 567.204 659.136 567.282C659.867 567.437 660.552 567.445 661.191 567.305C661.844 567.149 662.342 566.939 662.685 566.675C662.965 566.457 663.261 566.169 663.572 565.811C663.884 565.437 664.14 565.056 664.343 564.666ZM659.229 562.308C659.587 562.277 659.898 562.168 660.163 561.981C660.443 561.779 660.583 561.569 660.583 561.351C660.599 561.039 660.521 560.79 660.35 560.603C660.194 560.401 659.922 560.308 659.533 560.323C659.097 560.339 658.676 560.401 658.272 560.51C657.867 560.619 657.626 560.845 657.548 561.187C657.501 561.421 657.571 561.623 657.758 561.794C657.945 561.965 658.178 562.098 658.458 562.191C658.739 562.269 658.996 562.308 659.229 562.308Z" fill="#3D42AF"/>
</g>
</g>
<g clip-path="url(#clip2_125_391)">
<path fill-rule="evenodd" clip-rule="evenodd" d="M478.273 270.951H479.318C480.473 270.951 481.409 271.887 481.409 273.042V373.406C481.409 374.56 480.473 375.497 479.318 375.497H478.273V270.951Z" fill="#121515"/>
<path fill-rule="evenodd" clip-rule="evenodd" d="M35 333.681C35 332.526 35.9361 331.59 37.0909 331.59H38.1364V397.453H37.0909C35.9361 397.453 35 396.517 35 395.363V333.681Z" fill="#121515"/>
<path fill-rule="evenodd" clip-rule="evenodd" d="M35 251.09C35 249.935 35.9361 248.999 37.0909 248.999H38.1364V314.863H37.0909C35.9361 314.863 35 313.927 35 312.772V251.09Z" fill="#121515"/>
<path fill-rule="evenodd" clip-rule="evenodd" d="M35 187.316C35 186.162 35.9361 185.226 37.0909 185.226H38.1364V219.726H37.0909C35.9361 219.726 35 218.789 35 217.635V187.316Z" fill="#121515"/>
<g filter="url(#filter1_dd_125_391)">
<path fill-rule="evenodd" clip-rule="evenodd" d="M38.1365 130.864C38.1365 94.4882 67.6247 65 104 65H412.409C448.785 65 478.273 94.4882 478.273 130.864V896.136C478.273 932.512 448.785 962 412.409 962H104C67.6247 962 38.1365 932.512 38.1365 896.136V130.864Z" fill="#3A4245"/>
</g>
<path fill-rule="evenodd" clip-rule="evenodd" d="M43.3638 130.864C43.3638 97.3754 70.5116 70.2275 104 70.2275H412.409C445.898 70.2275 473.046 97.3754 473.046 130.864V896.137C473.046 929.625 445.898 956.773 412.409 956.773H104C70.5116 956.773 43.3638 929.625 43.3638 896.137V130.864Z" fill="#121515"/>
<path fill-rule="evenodd" clip-rule="evenodd" d="M305.773 106.818C310.392 106.818 314.136 103.074 314.136 98.4545C314.136 93.8353 310.392 90.0908 305.773 90.0908C301.154 90.0908 297.409 93.8353 297.409 98.4545C297.409 103.074 301.154 106.818 305.773 106.818Z" fill="#262C2D"/>
<path fill-rule="evenodd" clip-rule="evenodd" d="M305.773 103.682C308.66 103.682 311 101.342 311 98.4548C311 95.5679 308.66 93.2275 305.773 93.2275C302.886 93.2275 300.545 95.5679 300.545 98.4548C300.545 101.342 302.886 103.682 305.773 103.682Z" fill="#121515"/>
<path opacity="0.4" fill-rule="evenodd" clip-rule="evenodd" d="M305.773 97.4093C306.35 97.4093 306.818 96.9412 306.818 96.3638C306.818 95.7864 306.35 95.3184 305.773 95.3184C305.195 95.3184 304.727 95.7864 304.727 96.3638C304.727 96.9412 305.195 97.4093 305.773 97.4093Z" fill="#636F73"/>
<path fill-rule="evenodd" clip-rule="evenodd" d="M231.546 98.4547C231.546 96.7226 232.95 95.3184 234.682 95.3184H281.728C283.46 95.3184 284.864 96.7226 284.864 98.4547C284.864 100.187 283.46 101.591 281.728 101.591H234.682C232.95 101.591 231.546 100.187 231.546 98.4547Z" fill="#262C2D"/>
<mask id="mask1_125_391" style="mask-type:alpha" maskUnits="userSpaceOnUse" x="62" y="89" width="393" height="849">
<path fill-rule="evenodd" clip-rule="evenodd" d="M173 120.41H343.409C357.266 120.41 368.5 109.176 368.5 94.0118C368.642 91.3315 370.786 89.1877 373.459 89.0527L414.5 89.0459C436.441 89.0459 454.227 106.832 454.227 128.773V898.228C454.227 920.169 436.441 937.955 414.5 937.955H101.909C79.9682 937.955 62.1817 920.169 62.1817 898.228V128.773C62.1817 106.832 79.9682 89.0459 101.909 89.0459H142.943C145.623 89.1877 147.767 91.3315 147.902 94.0051C147.909 109.176 159.143 120.41 173 120.41Z" fill="white"/>
</mask>
<g mask="url(#mask1_125_391)">
<rect width="392.045" height="848.909" transform="translate(62.1818 89.0459)" fill="white"/>
<path d="M184.299 525.562C184.323 526.045 184.383 526.515 184.48 526.974C184.601 527.432 184.745 527.77 184.914 527.987C184.697 528.204 184.359 528.458 183.901 528.747C183.467 529.037 182.96 529.266 182.381 529.435C181.826 529.628 181.235 529.712 180.608 529.688C179.667 529.64 178.907 529.242 178.328 528.494C177.773 527.746 177.483 526.817 177.459 525.707C177.459 525.49 177.459 525.092 177.459 524.513C177.459 523.91 177.459 523.271 177.459 522.595C177.459 521.919 177.459 521.365 177.459 520.93C177.459 520.52 177.351 520.122 177.134 519.736C176.941 519.35 176.711 519.121 176.446 519.048C176.084 518.928 175.783 519.145 175.541 519.7C175.493 519.821 175.336 520.122 175.071 520.605C174.805 521.063 174.504 521.606 174.166 522.233C173.852 522.86 173.551 523.488 173.261 524.115C172.996 524.742 172.815 525.285 172.719 525.743C172.622 526.178 172.682 526.443 172.9 526.54C172.803 526.781 172.622 527.131 172.357 527.589C172.115 528.047 171.705 528.446 171.126 528.783C170.571 529.097 169.775 529.218 168.738 529.145C168.183 529.097 167.471 528.759 166.603 528.132C165.734 527.505 164.902 526.359 164.106 524.694C163.358 523.102 162.743 522.028 162.26 521.473C161.802 520.894 161.464 520.629 161.247 520.677C161.054 520.701 160.897 520.834 160.776 521.075C160.68 521.316 160.583 521.654 160.487 522.088C160.438 522.305 160.414 522.667 160.414 523.174C160.414 523.681 160.438 524.248 160.487 524.875C160.535 525.502 160.619 526.093 160.74 526.648C160.885 527.203 161.066 527.625 161.283 527.915C161.09 528.035 160.74 528.24 160.233 528.53C159.751 528.819 159.196 529.085 158.569 529.326C157.966 529.543 157.375 529.652 156.795 529.652C155.927 529.628 155.203 529.398 154.624 528.964C154.045 528.506 153.695 527.613 153.575 526.286C153.551 526.069 153.538 525.454 153.538 524.441C153.538 523.427 153.538 522.149 153.538 520.605C153.538 519.061 153.538 517.408 153.538 515.647C153.538 513.861 153.538 512.1 153.538 510.363C153.538 508.626 153.538 507.034 153.538 505.586C153.563 504.139 153.575 502.981 153.575 502.112C153.575 501.244 153.575 500.809 153.575 500.809C153.84 500.761 154.286 500.749 154.914 500.773C155.541 500.797 156.229 500.894 156.976 501.063C157.724 501.232 158.412 501.509 159.039 501.895C159.666 502.257 160.101 502.776 160.342 503.451C160.342 503.451 160.451 503.68 160.668 504.139C160.909 504.573 161.223 505.152 161.609 505.876C161.995 506.575 162.405 507.335 162.839 508.156C163.297 508.976 163.732 509.784 164.142 510.58C164.576 511.376 164.95 512.076 165.264 512.679C165.601 513.282 165.831 513.705 165.951 513.946C166.361 514.646 166.747 515.128 167.109 515.393C167.495 515.659 167.905 515.804 168.34 515.828C169.232 515.828 170.089 515.14 170.909 513.765C171.03 513.548 171.271 513.089 171.633 512.39C171.995 511.666 172.417 510.81 172.9 509.82C173.382 508.831 173.877 507.818 174.383 506.78C174.914 505.743 175.397 504.778 175.831 503.885C176.265 502.969 176.615 502.233 176.88 501.678C177.17 501.099 177.315 500.809 177.315 500.809C177.483 500.785 177.725 500.773 178.038 500.773C178.376 500.749 178.738 500.761 179.124 500.809C179.8 500.858 180.511 500.99 181.259 501.207C182.031 501.425 182.695 501.762 183.25 502.221C183.829 502.679 184.154 503.294 184.227 504.066C184.275 504.476 184.311 505.152 184.335 506.093C184.359 507.01 184.371 508.107 184.371 509.386C184.371 510.641 184.371 511.98 184.371 513.403C184.371 514.826 184.359 516.226 184.335 517.601C184.335 518.976 184.323 520.243 184.299 521.401C184.299 522.559 184.299 523.512 184.299 524.26C184.299 524.983 184.299 525.418 184.299 525.562ZM206.058 520.279C206.661 520.689 207.047 521.28 207.216 522.052C207.409 522.8 207.385 523.62 207.144 524.513C206.927 525.406 206.48 526.262 205.805 527.082C205.129 527.879 204.212 528.542 203.054 529.073C201.92 529.604 200.545 529.881 198.929 529.905C197.578 529.929 196.251 529.76 194.948 529.398C193.669 529.037 192.499 528.482 191.438 527.734C190.4 526.986 189.556 526.021 188.905 524.839C188.253 523.657 187.891 522.245 187.819 520.605C187.795 520.267 187.795 519.917 187.819 519.555C187.843 519.193 187.867 518.819 187.891 518.433C187.891 518.337 187.891 518.24 187.891 518.144C187.915 518.047 187.94 517.951 187.964 517.854C188.205 516.407 188.7 515.08 189.447 513.873C190.219 512.667 191.16 511.642 192.27 510.797C193.38 509.953 194.562 509.338 195.817 508.952C197.095 508.542 198.35 508.397 199.58 508.518C201.486 508.711 202.958 509.217 203.995 510.037C205.057 510.858 205.744 511.871 206.058 513.077C206.396 514.26 206.408 515.538 206.094 516.913C205.925 517.589 205.539 518.264 204.936 518.94C204.357 519.591 203.633 520.182 202.765 520.713C201.896 521.22 200.968 521.618 199.978 521.907C199.013 522.173 198.072 522.281 197.156 522.233C196.697 522.209 196.456 522.354 196.432 522.667C196.408 522.957 196.54 523.283 196.83 523.644C197.119 523.982 197.505 524.211 197.988 524.332C199.122 524.573 200.183 524.585 201.173 524.368C202.186 524.127 202.958 523.801 203.489 523.391C203.923 523.053 204.381 522.607 204.864 522.052C205.346 521.473 205.744 520.882 206.058 520.279ZM198.133 516.624C198.688 516.576 199.17 516.407 199.58 516.117C200.015 515.804 200.232 515.478 200.232 515.14C200.256 514.658 200.135 514.272 199.87 513.982C199.629 513.668 199.206 513.524 198.603 513.548C197.928 513.572 197.276 513.668 196.649 513.837C196.022 514.006 195.648 514.356 195.527 514.887C195.455 515.249 195.563 515.562 195.853 515.828C196.142 516.093 196.504 516.298 196.938 516.443C197.373 516.564 197.771 516.624 198.133 516.624ZM229.983 524.766C230.007 525.828 230.164 526.576 230.454 527.01C230.767 527.42 230.924 527.625 230.924 527.625C230.924 527.625 230.707 527.782 230.273 528.096C229.862 528.385 229.308 528.687 228.608 529C227.908 529.314 227.124 529.471 226.256 529.471C224.977 529.471 224.145 529.121 223.759 528.421C223.373 527.722 223.168 526.817 223.143 525.707C223.143 525.514 223.155 525.092 223.18 524.441C223.204 523.789 223.216 523.053 223.216 522.233C223.24 521.389 223.24 520.617 223.216 519.917C223.192 519.193 223.143 518.687 223.071 518.397C222.806 517.432 222.287 517.01 221.515 517.13C220.912 517.203 220.345 517.553 219.814 518.18C219.283 518.783 218.849 519.507 218.511 520.351C218.173 521.196 218.005 521.992 218.005 522.74C218.005 523.126 217.98 523.512 217.932 523.898C217.908 524.26 217.884 524.597 217.86 524.911C217.836 525.128 217.86 525.394 217.932 525.707C218.029 526.021 218.198 526.274 218.439 526.467C218.27 526.757 217.932 527.131 217.426 527.589C216.943 528.047 216.412 528.47 215.833 528.856C215.278 529.218 214.796 529.423 214.386 529.471C214 529.495 213.541 529.374 213.011 529.109C212.504 528.844 212.058 528.446 211.672 527.915C211.31 527.384 211.117 526.745 211.093 525.997C211.093 525.804 211.093 525.357 211.093 524.658C211.117 523.958 211.129 523.114 211.129 522.125C211.153 521.135 211.165 520.086 211.165 518.976C211.189 517.866 211.201 516.793 211.201 515.755C211.201 514.718 211.201 513.825 211.201 513.077C211.201 512.426 211.117 511.799 210.948 511.196C210.803 510.568 210.646 510.062 210.477 509.676C210.333 509.265 210.26 509.06 210.26 509.06C210.477 509.012 210.851 508.976 211.382 508.952C211.937 508.928 212.552 508.94 213.228 508.988C213.903 509.036 214.567 509.145 215.218 509.314C215.894 509.483 216.461 509.748 216.919 510.11C217.401 510.472 217.884 510.701 218.367 510.797C218.873 510.87 219.271 510.822 219.561 510.653C220.405 510.098 221.262 509.615 222.13 509.205C222.999 508.795 223.843 508.542 224.663 508.445C225.073 508.397 225.556 508.421 226.111 508.518C226.666 508.59 227.209 508.771 227.739 509.06C228.294 509.35 228.765 509.76 229.151 510.291C229.561 510.822 229.814 511.497 229.911 512.317C230.08 513.717 230.128 515.43 230.055 517.456C229.983 519.459 229.959 521.895 229.983 524.766ZM237.886 507.83C237.065 507.854 236.329 507.625 235.678 507.142C235.051 506.66 234.568 506.069 234.23 505.369C233.917 504.645 233.796 503.958 233.869 503.306C233.989 502.317 234.436 501.618 235.208 501.207C235.98 500.797 236.788 500.58 237.632 500.556C238.839 500.508 239.779 500.821 240.455 501.497C241.13 502.172 241.468 502.944 241.468 503.813C241.468 504.392 241.336 504.983 241.07 505.586C240.829 506.189 240.443 506.708 239.912 507.142C239.381 507.553 238.706 507.782 237.886 507.83ZM241.722 525.707C241.746 526.142 241.878 526.515 242.12 526.829C242.385 527.119 242.699 527.396 243.061 527.661C242.892 527.879 242.675 528.108 242.409 528.349C242.144 528.59 241.746 528.819 241.215 529.037C240.708 529.23 239.972 529.386 239.007 529.507C238.694 529.531 238.296 529.495 237.813 529.398C237.331 529.326 236.848 529.097 236.366 528.711C235.907 528.301 235.533 527.661 235.244 526.793C234.954 525.9 234.834 524.682 234.882 523.138C234.906 522.872 234.906 522.354 234.882 521.582C234.882 520.81 234.87 519.893 234.846 518.831C234.846 517.77 234.834 516.672 234.81 515.538C234.81 514.404 234.797 513.355 234.773 512.39C234.773 511.401 234.761 510.604 234.737 510.001C234.737 509.374 234.737 509.06 234.737 509.06C234.954 509.036 235.316 509.012 235.823 508.988C236.354 508.94 236.933 508.94 237.56 508.988C238.187 509.036 238.79 509.157 239.369 509.35C239.972 509.519 240.479 509.796 240.889 510.182C241.323 510.568 241.577 511.087 241.649 511.738C241.77 512.655 241.818 513.886 241.794 515.43C241.77 516.95 241.734 518.614 241.685 520.424C241.637 522.209 241.649 523.97 241.722 525.707Z" fill="#E56C37"/>
<path d="M257.535 500.375C258.958 500.375 260.321 500.628 261.624 501.135C262.951 501.618 264.061 502.269 264.953 503.089C265.87 503.91 266.413 504.79 266.582 505.731C266.703 506.358 266.618 507.058 266.329 507.83C266.039 508.578 265.581 509.241 264.953 509.82C264.326 510.375 263.566 510.677 262.673 510.725C262.36 510.725 261.962 510.689 261.479 510.617C260.997 510.544 260.526 510.399 260.068 510.182C259.634 509.965 259.284 509.651 259.018 509.241C259.38 509.048 259.622 508.843 259.742 508.626C259.863 508.409 259.899 508.192 259.851 507.975C259.754 507.492 259.465 507.094 258.982 506.78C258.524 506.467 257.957 506.274 257.281 506.201C256.895 506.153 256.449 506.165 255.942 506.238C255.436 506.286 254.965 506.455 254.531 506.744C254.121 507.01 253.831 507.456 253.662 508.083C253.566 508.445 253.578 508.843 253.699 509.278C253.843 509.688 254.181 510.086 254.712 510.472C255.243 510.834 256.051 511.147 257.137 511.413C258.801 511.799 260.345 512.221 261.769 512.679C263.216 513.138 264.483 513.705 265.569 514.38C266.654 515.056 267.487 515.9 268.066 516.913C268.669 517.903 268.946 519.145 268.898 520.641C268.874 521.63 268.608 522.667 268.102 523.753C267.595 524.839 266.859 525.852 265.894 526.793C264.929 527.71 263.747 528.458 262.348 529.037C260.948 529.616 259.356 529.905 257.571 529.905C256.437 529.905 255.267 529.809 254.061 529.616C252.854 529.423 251.708 529.121 250.623 528.711C249.561 528.301 248.62 527.758 247.8 527.082C247.076 526.455 246.557 525.671 246.244 524.73C245.954 523.789 245.894 522.848 246.063 521.907C246.232 520.942 246.654 520.122 247.329 519.447C248.029 518.771 248.994 518.397 250.225 518.325C249.983 519.048 250.116 519.76 250.623 520.46C251.153 521.135 251.937 521.714 252.975 522.197C254.012 522.655 255.146 522.933 256.377 523.029C257.655 523.126 258.765 523.078 259.706 522.885C260.671 522.692 261.202 522.293 261.298 521.69C261.419 520.967 261.274 520.387 260.864 519.953C260.454 519.519 259.887 519.193 259.163 518.976C258.439 518.735 257.655 518.542 256.811 518.397C255.966 518.228 255.182 518.059 254.459 517.89C253.494 517.625 252.516 517.287 251.527 516.877C250.562 516.443 249.67 515.9 248.849 515.249C248.053 514.597 247.402 513.801 246.895 512.86C246.389 511.919 246.123 510.822 246.099 509.567C246.075 508.095 246.376 506.793 247.004 505.659C247.631 504.501 248.487 503.536 249.573 502.764C250.659 501.967 251.889 501.376 253.264 500.99C254.664 500.58 256.087 500.375 257.535 500.375ZM291.764 522.812C291.789 523.343 291.825 523.994 291.873 524.766C291.945 525.538 292.102 526.286 292.343 527.01C292.585 527.734 292.971 528.313 293.502 528.747C292.898 529.157 292.283 529.447 291.656 529.616C291.029 529.809 290.413 529.857 289.81 529.76C289.641 529.712 289.46 529.652 289.267 529.579C289.074 529.531 288.809 529.459 288.471 529.362C287.916 529.193 287.265 529.157 286.517 529.254C285.769 529.35 284.985 529.471 284.165 529.616C283.369 529.785 282.585 529.869 281.813 529.869C280.558 529.869 279.303 529.652 278.049 529.218C276.794 528.759 275.66 528.06 274.647 527.119C273.634 526.178 272.862 524.983 272.331 523.536C271.8 522.088 271.643 520.351 271.861 518.325C272.005 516.925 272.403 515.647 273.055 514.489C273.706 513.307 274.502 512.293 275.443 511.449C276.408 510.58 277.422 509.917 278.483 509.458C279.569 508.976 280.618 508.747 281.632 508.771C282.404 508.795 282.995 508.819 283.405 508.843C283.839 508.867 284.394 508.928 285.07 509.024C285.48 509.072 285.998 509.012 286.626 508.843C287.253 508.674 287.88 508.493 288.507 508.3C289.159 508.083 289.714 507.975 290.172 507.975C290.872 507.951 291.366 507.975 291.656 508.047C291.945 508.095 292.187 508.144 292.38 508.192C292.235 508.626 292.114 509.278 292.018 510.146C291.921 511.015 291.849 512.004 291.801 513.114C291.777 514.199 291.752 515.333 291.728 516.515C291.704 517.697 291.692 518.831 291.692 519.917C291.716 521.003 291.74 521.968 291.764 522.812ZM278.157 519.483C278.206 520.689 278.423 521.63 278.809 522.305C279.219 522.957 279.702 523.415 280.256 523.681C280.835 523.946 281.39 524.079 281.921 524.079C282.983 524.103 283.767 523.693 284.273 522.848C284.78 522.004 285.021 520.834 284.997 519.338C284.997 518.928 284.949 518.445 284.852 517.89C284.78 517.336 284.635 516.793 284.418 516.262C284.225 515.731 283.948 515.285 283.586 514.923C283.248 514.561 282.802 514.38 282.247 514.38C281.137 514.38 280.16 514.79 279.316 515.611C278.495 516.431 278.109 517.722 278.157 519.483ZM305.867 500.086C306.205 499.893 306.651 499.796 307.206 499.796C307.761 499.772 308.328 499.832 308.907 499.977C309.51 500.122 310.029 500.327 310.463 500.592C310.897 500.858 311.174 501.171 311.295 501.533C311.416 501.871 311.271 502.257 310.861 502.691C310.354 503.222 309.63 503.741 308.69 504.247C307.773 504.754 306.808 505.224 305.794 505.659C304.781 506.093 303.864 506.467 303.044 506.78C302.248 507.07 301.693 507.263 301.379 507.36C300.776 507.577 300.318 507.444 300.004 506.961C299.715 506.455 299.666 505.852 299.859 505.152C299.932 504.862 300.173 504.513 300.583 504.103C300.993 503.668 301.5 503.21 302.103 502.727C302.706 502.221 303.334 501.738 303.985 501.28C304.661 500.821 305.288 500.423 305.867 500.086ZM314.986 524.803C314.986 525.02 315.023 525.345 315.095 525.78C315.167 526.19 315.264 526.636 315.384 527.119C315.529 527.577 315.674 527.975 315.819 528.313C315.963 528.651 316.108 528.856 316.253 528.928C315.915 529.338 315.372 529.676 314.624 529.941C313.877 530.207 313.129 530.243 312.381 530.05C311.826 529.905 311.307 529.748 310.825 529.579C310.366 529.435 309.739 529.374 308.943 529.398C308.364 529.423 307.785 529.483 307.206 529.579C306.651 529.7 306.084 529.809 305.505 529.905C305.215 529.953 304.709 529.965 303.985 529.941C303.285 529.941 302.513 529.857 301.669 529.688C300.849 529.519 300.101 529.242 299.425 528.856C298.484 528.301 297.785 527.493 297.326 526.431C296.868 525.345 296.602 524.248 296.53 523.138C296.53 522.872 296.518 522.354 296.494 521.582C296.494 520.81 296.482 519.893 296.458 518.831C296.458 517.77 296.446 516.672 296.422 515.538C296.422 514.404 296.409 513.355 296.385 512.39C296.385 511.401 296.385 510.604 296.385 510.001C296.385 509.374 296.385 509.06 296.385 509.06C296.602 509.036 296.964 509.012 297.471 508.988C298.002 508.964 298.581 508.976 299.208 509.024C299.835 509.048 300.438 509.157 301.017 509.35C301.621 509.519 302.127 509.796 302.537 510.182C302.972 510.568 303.225 511.087 303.297 511.738C303.37 512.269 303.418 512.752 303.442 513.186C303.466 513.62 303.466 514.103 303.442 514.633C303.442 515.14 303.418 515.779 303.37 516.551C303.346 517.299 303.309 518.252 303.261 519.41C303.213 520.351 303.201 521.16 303.225 521.835C303.249 522.511 303.406 523.017 303.695 523.355C304.009 523.693 304.564 523.85 305.36 523.825C305.891 523.801 306.337 523.596 306.699 523.21C307.061 522.8 307.338 522.305 307.531 521.726C307.749 521.147 307.905 520.556 308.002 519.953C308.098 519.35 308.135 518.819 308.111 518.361C308.111 518.264 308.098 517.89 308.074 517.239C308.074 516.564 308.062 515.779 308.038 514.887C308.038 513.97 308.026 513.065 308.002 512.173C308.002 511.28 308.002 510.544 308.002 509.965C308.002 509.362 308.002 509.06 308.002 509.06C308.219 509.036 308.581 509.036 309.088 509.06C309.594 509.06 310.161 509.109 310.788 509.205C311.416 509.302 312.031 509.471 312.634 509.712C313.237 509.953 313.744 510.291 314.154 510.725C314.588 511.135 314.842 511.666 314.914 512.317C315.059 513.717 315.083 515.43 314.986 517.456C314.914 519.459 314.914 521.907 314.986 524.803ZM339.157 524.875C339.567 525.357 340.17 525.695 340.967 525.888C340.846 526.395 340.689 526.938 340.496 527.517C340.327 528.096 340.05 528.602 339.664 529.037C339.302 529.471 338.771 529.748 338.071 529.869C337.758 529.941 337.36 529.917 336.877 529.797C336.395 529.676 335.816 529.531 335.14 529.362C334.706 529.242 334.151 529.218 333.475 529.29C332.8 529.338 332.161 529.411 331.557 529.507C330.978 529.604 330.592 529.676 330.399 529.724C330.134 529.797 329.869 529.833 329.603 529.833C329.338 529.857 329.072 529.869 328.807 529.869C327.553 529.869 326.31 529.652 325.08 529.218C323.873 528.759 322.788 528.06 321.823 527.119C320.858 526.178 320.122 524.983 319.615 523.536C319.133 522.088 319 520.351 319.217 518.325C319.362 516.925 319.736 515.623 320.339 514.416C320.966 513.21 321.738 512.161 322.655 511.268C323.572 510.351 324.549 509.651 325.586 509.169C326.648 508.662 327.685 508.409 328.699 508.409C328.916 508.409 329.121 508.409 329.314 508.409C329.531 508.409 329.736 508.397 329.929 508.373C330.363 508.3 330.785 508.059 331.196 507.649C331.606 507.239 331.883 506.732 332.028 506.129C332.1 505.791 332.149 505.393 332.173 504.935C332.197 504.476 332.209 504.199 332.209 504.103C332.281 503.548 332.486 503.077 332.824 502.691C333.162 502.281 333.56 501.955 334.018 501.714C334.646 501.376 335.333 501.135 336.081 500.99C336.829 500.846 337.517 500.773 338.144 500.773C338.795 500.749 339.278 500.773 339.591 500.846C339.567 500.99 339.519 501.509 339.447 502.402C339.374 503.294 339.29 504.416 339.193 505.767C339.097 507.118 339 508.602 338.904 510.218C338.807 511.811 338.723 513.415 338.65 515.032C338.602 516.648 338.578 518.156 338.578 519.555C338.578 520.954 338.626 522.125 338.723 523.065C338.819 524.006 338.964 524.61 339.157 524.875ZM325.695 519.519C325.622 520.46 325.731 521.244 326.021 521.871C326.334 522.474 326.72 522.933 327.179 523.246C327.661 523.536 328.132 523.693 328.59 523.717C329.459 523.741 330.122 523.524 330.58 523.065C331.063 522.583 331.389 521.956 331.557 521.184C331.726 520.387 331.811 519.543 331.811 518.65C331.811 517.299 331.545 516.322 331.015 515.719C330.484 515.116 329.652 514.851 328.518 514.923C327.794 514.971 327.167 515.321 326.636 515.972C326.129 516.624 325.816 517.806 325.695 519.519ZM360.991 520.279C361.595 520.689 361.981 521.28 362.149 522.052C362.342 522.8 362.318 523.62 362.077 524.513C361.86 525.406 361.414 526.262 360.738 527.082C360.063 527.879 359.146 528.542 357.988 529.073C356.854 529.604 355.479 529.881 353.862 529.905C352.511 529.929 351.184 529.76 349.881 529.398C348.603 529.037 347.433 528.482 346.371 527.734C345.334 526.986 344.489 526.021 343.838 524.839C343.187 523.657 342.825 522.245 342.752 520.605C342.728 520.267 342.728 519.917 342.752 519.555C342.776 519.193 342.8 518.819 342.825 518.433C342.825 518.337 342.825 518.24 342.825 518.144C342.849 518.047 342.873 517.951 342.897 517.854C343.138 516.407 343.633 515.08 344.381 513.873C345.153 512.667 346.094 511.642 347.203 510.797C348.313 509.953 349.495 509.338 350.75 508.952C352.029 508.542 353.283 508.397 354.514 508.518C356.42 508.711 357.891 509.217 358.929 510.037C359.99 510.858 360.678 511.871 360.991 513.077C361.329 514.26 361.341 515.538 361.028 516.913C360.859 517.589 360.473 518.264 359.87 518.94C359.291 519.591 358.567 520.182 357.698 520.713C356.83 521.22 355.901 521.618 354.912 521.907C353.947 522.173 353.006 522.281 352.089 522.233C351.631 522.209 351.389 522.354 351.365 522.667C351.341 522.957 351.474 523.283 351.763 523.644C352.053 523.982 352.439 524.211 352.921 524.332C354.055 524.573 355.117 524.585 356.106 524.368C357.119 524.127 357.891 523.801 358.422 523.391C358.856 523.053 359.315 522.607 359.797 522.052C360.28 521.473 360.678 520.882 360.991 520.279ZM353.066 516.624C353.621 516.576 354.103 516.407 354.514 516.117C354.948 515.804 355.165 515.478 355.165 515.14C355.189 514.658 355.068 514.272 354.803 513.982C354.562 513.668 354.14 513.524 353.537 513.548C352.861 513.572 352.21 513.668 351.582 513.837C350.955 514.006 350.581 514.356 350.46 514.887C350.388 515.249 350.497 515.562 350.786 515.828C351.076 516.093 351.438 516.298 351.872 516.443C352.306 516.564 352.704 516.624 353.066 516.624Z" fill="#3D42AF"/>
</g>
</g>
</g>
<defs>
<filter id="filter0_dd_125_391" x="453.325" y="269.651" width="289.391" height="584.18" filterUnits="userSpaceOnUse" color-interpolation-filters="sRGB">
<feFlood flood-opacity="0" result="BackgroundImageFix"/>
<feColorMatrix in="SourceAlpha" type="matrix" values="0 0 0 0 0 0 0 0 0 0 0 0 0 0 0 0 0 0 127 0" result="hardAlpha"/>
<feOffset/>
<feGaussianBlur stdDeviation="0.674572"/>
<feColorMatrix type="matrix" values="0 0 0 0 0 0 0 0 0 0.0823529 0 0 0 0 0.25098 0 0 0 0.14 0"/>
<feBlend mode="normal" in2="BackgroundImageFix" result="effect1_dropShadow_125_391"/>
<feColorMatrix in="SourceAlpha" type="matrix" values="0 0 0 0 0 0 0 0 0 0 0 0 0 0 0 0 0 0 127 0" result="hardAlpha"/>
<feOffset dy="1.34914"/>
<feGaussianBlur stdDeviation="1.34914"/>
<feColorMatrix type="matrix" values="0 0 0 0 0 0 0 0 0 0.0823529 0 0 0 0 0.25098 0 0 0 0.05 0"/>
<feBlend mode="normal" in2="effect1_dropShadow_125_391" result="effect2_dropShadow_125_391"/>
<feBlend mode="normal" in="SourceGraphic" in2="effect2_dropShadow_125_391" result="shape"/>
</filter>
<filter id="filter1_dd_125_391" x="33.9547" y="62.9091" width="448.5" height="905.364" filterUnits="userSpaceOnUse" color-interpolation-filters="sRGB">
<feFlood flood-opacity="0" result="BackgroundImageFix"/>
<feColorMatrix in="SourceAlpha" type="matrix" values="0 0 0 0 0 0 0 0 0 0 0 0 0 0 0 0 0 0 127 0" result="hardAlpha"/>
<feOffset/>
<feGaussianBlur stdDeviation="1.04545"/>
<feColorMatrix type="matrix" values="0 0 0 0 0 0 0 0 0 0.0823529 0 0 0 0 0.25098 0 0 0 0.14 0"/>
<feBlend mode="normal" in2="BackgroundImageFix" result="effect1_dropShadow_125_391"/>
<feColorMatrix in="SourceAlpha" type="matrix" values="0 0 0 0 0 0 0 0 0 0 0 0 0 0 0 0 0 0 127 0" result="hardAlpha"/>
<feOffset dy="2.09091"/>
<feGaussianBlur stdDeviation="2.09091"/>
<feColorMatrix type="matrix" values="0 0 0 0 0 0 0 0 0 0.0823529 0 0 0 0 0.25098 0 0 0 0.05 0"/>
<feBlend mode="normal" in2="effect1_dropShadow_125_391" result="effect2_dropShadow_125_391"/>
<feBlend mode="normal" in="SourceGraphic" in2="effect2_dropShadow_125_391" result="shape"/>
</filter>
<clipPath id="clip0_125_391">
<rect width="793.789" height="680" fill="white"/>
</clipPath>
<clipPath id="clip1_125_391">
<rect width="288.042" height="578.783" fill="white" transform="translate(454 271)"/>
</clipPath>
<clipPath id="clip2_125_391">
<rect width="446.409" height="897" fill="white" transform="translate(35 65)"/>
</clipPath>
</defs>
</svg>
