<svg width="414" height="398" viewBox="0 0 414 398" fill="none" xmlns="http://www.w3.org/2000/svg">
<g clip-path="url(#clip0_11_245)">
<path fill-rule="evenodd" clip-rule="evenodd" d="M255 202.108C255 201.579 255.429 201.15 255.958 201.15H256.437V231.328H255.958C255.429 231.328 255 230.899 255 230.37V202.108Z" fill="#121515"/>
<path fill-rule="evenodd" clip-rule="evenodd" d="M255 164.265C255 163.736 255.429 163.307 255.958 163.307H256.437V193.486H255.958C255.429 193.486 255 193.057 255 192.528V164.265Z" fill="#121515"/>
<path fill-rule="evenodd" clip-rule="evenodd" d="M255 135.045C255 134.516 255.429 134.087 255.958 134.087H256.437V149.894H255.958C255.429 149.894 255 149.466 255 148.936V135.045Z" fill="#121515"/>
<g filter="url(#filter0_dd_11_245)">
<path fill-rule="evenodd" clip-rule="evenodd" d="M256.437 109.178C256.437 92.5113 269.948 79 286.615 79H427.927C444.594 79 458.105 92.5113 458.105 109.178V459.822C458.105 476.489 444.594 490 427.927 490H286.615C269.948 490 256.437 476.489 256.437 459.822V109.178Z" fill="#3A4245"/>
</g>
<path fill-rule="evenodd" clip-rule="evenodd" d="M258.832 109.179C258.832 93.8346 271.271 81.3956 286.615 81.3956H427.927C443.271 81.3956 455.71 93.8346 455.71 109.179V459.822C455.71 475.166 443.271 487.605 427.927 487.605H286.615C271.271 487.605 258.832 475.166 258.832 459.822V109.179Z" fill="#121515"/>
<path fill-rule="evenodd" clip-rule="evenodd" d="M379.066 98.1614C381.183 98.1614 382.899 96.4457 382.899 94.3292C382.899 92.2128 381.183 90.4971 379.066 90.4971C376.95 90.4971 375.234 92.2128 375.234 94.3292C375.234 96.4457 376.95 98.1614 379.066 98.1614Z" fill="#262C2D"/>
<path fill-rule="evenodd" clip-rule="evenodd" d="M379.066 96.7243C380.389 96.7243 381.462 95.652 381.462 94.3292C381.462 93.0064 380.389 91.9341 379.066 91.9341C377.744 91.9341 376.671 93.0064 376.671 94.3292C376.671 95.652 377.744 96.7243 379.066 96.7243Z" fill="#121515"/>
<path opacity="0.4" fill-rule="evenodd" clip-rule="evenodd" d="M379.066 93.8503C379.331 93.8503 379.545 93.6358 379.545 93.3712C379.545 93.1067 379.331 92.8922 379.066 92.8922C378.802 92.8922 378.587 93.1067 378.587 93.3712C378.587 93.6358 378.802 93.8503 379.066 93.8503Z" fill="#636F73"/>
<path fill-rule="evenodd" clip-rule="evenodd" d="M345.056 94.3287C345.056 93.535 345.699 92.8916 346.493 92.8916H368.049C368.843 92.8916 369.486 93.535 369.486 94.3287V94.3287C369.486 95.1223 368.843 95.7657 368.049 95.7657H346.493C345.699 95.7657 345.056 95.1223 345.056 94.3287V94.3287Z" fill="#262C2D"/>
<mask id="mask0_11_245" style="mask-type:alpha" maskUnits="userSpaceOnUse" x="267" y="90" width="181" height="389">
<path fill-rule="evenodd" clip-rule="evenodd" d="M318.231 104.388H396.311C402.661 104.388 407.808 99.241 407.808 92.2929C407.873 91.0648 408.855 90.0826 410.08 90.0207L428.885 90.0176C438.938 90.0176 447.087 98.1672 447.087 108.22V460.78C447.087 470.833 438.938 478.983 428.885 478.983H285.657C275.604 478.983 267.455 470.833 267.455 460.78V108.22C267.455 98.1672 275.604 90.0176 285.657 90.0176H304.459C305.687 90.0826 306.669 91.0648 306.731 92.2898C306.734 99.241 311.881 104.388 318.231 104.388Z" fill="white"/>
</mask>
<g mask="url(#mask0_11_245)">
<rect width="179.633" height="388.965" transform="translate(267.455 90.0176)" fill="white"/>
<path d="M323.408 289.783C323.419 290.004 323.447 290.22 323.491 290.43C323.546 290.64 323.612 290.795 323.69 290.894C323.59 290.994 323.436 291.11 323.226 291.242C323.027 291.375 322.794 291.48 322.529 291.557C322.275 291.646 322.004 291.684 321.717 291.673C321.285 291.651 320.937 291.469 320.672 291.126C320.418 290.783 320.285 290.358 320.274 289.849C320.274 289.75 320.274 289.567 320.274 289.302C320.274 289.026 320.274 288.733 320.274 288.423C320.274 288.114 320.274 287.86 320.274 287.661C320.274 287.473 320.224 287.29 320.125 287.113C320.036 286.937 319.931 286.832 319.81 286.798C319.644 286.743 319.506 286.843 319.395 287.097C319.373 287.152 319.301 287.29 319.18 287.511C319.058 287.721 318.92 287.97 318.765 288.258C318.621 288.545 318.483 288.832 318.351 289.12C318.229 289.407 318.146 289.656 318.102 289.866C318.058 290.065 318.085 290.187 318.185 290.231C318.141 290.341 318.058 290.502 317.936 290.712C317.825 290.922 317.638 291.104 317.372 291.259C317.118 291.403 316.753 291.458 316.278 291.425C316.024 291.403 315.698 291.248 315.3 290.96C314.902 290.673 314.52 290.148 314.155 289.385C313.813 288.656 313.531 288.164 313.31 287.909C313.1 287.644 312.945 287.522 312.846 287.545C312.757 287.556 312.685 287.616 312.63 287.727C312.586 287.837 312.542 287.992 312.497 288.191C312.475 288.291 312.464 288.457 312.464 288.689C312.464 288.921 312.475 289.181 312.497 289.468C312.519 289.755 312.558 290.026 312.613 290.28C312.68 290.535 312.763 290.728 312.862 290.861C312.774 290.916 312.613 291.01 312.381 291.143C312.16 291.275 311.906 291.397 311.618 291.508C311.342 291.607 311.071 291.657 310.806 291.657C310.408 291.646 310.076 291.541 309.811 291.342C309.546 291.132 309.386 290.723 309.33 290.115C309.319 290.015 309.314 289.733 309.314 289.269C309.314 288.805 309.314 288.219 309.314 287.511C309.314 286.804 309.314 286.047 309.314 285.24C309.314 284.422 309.314 283.615 309.314 282.819C309.314 282.023 309.314 281.293 309.314 280.63C309.325 279.967 309.33 279.436 309.33 279.038C309.33 278.64 309.33 278.441 309.33 278.441C309.452 278.419 309.656 278.414 309.944 278.425C310.231 278.436 310.546 278.48 310.889 278.557C311.232 278.635 311.547 278.762 311.834 278.939C312.121 279.105 312.32 279.342 312.431 279.652C312.431 279.652 312.481 279.757 312.58 279.967C312.691 280.166 312.834 280.431 313.011 280.763C313.188 281.083 313.376 281.432 313.575 281.807C313.785 282.183 313.984 282.554 314.172 282.918C314.371 283.283 314.542 283.604 314.686 283.88C314.841 284.156 314.946 284.35 315.001 284.46C315.189 284.781 315.366 285.002 315.532 285.124C315.709 285.245 315.897 285.312 316.095 285.323C316.504 285.323 316.897 285.008 317.273 284.377C317.328 284.278 317.439 284.068 317.604 283.747C317.77 283.416 317.964 283.023 318.185 282.57C318.406 282.117 318.632 281.653 318.865 281.177C319.108 280.702 319.329 280.26 319.528 279.851C319.727 279.431 319.887 279.094 320.009 278.839C320.141 278.574 320.208 278.441 320.208 278.441C320.285 278.43 320.396 278.425 320.539 278.425C320.694 278.414 320.86 278.419 321.037 278.441C321.346 278.463 321.672 278.524 322.015 278.624C322.369 278.723 322.673 278.878 322.927 279.088C323.192 279.298 323.342 279.58 323.375 279.934C323.397 280.122 323.413 280.431 323.425 280.862C323.436 281.282 323.441 281.785 323.441 282.371C323.441 282.946 323.441 283.559 323.441 284.212C323.441 284.864 323.436 285.505 323.425 286.135C323.425 286.765 323.419 287.346 323.408 287.876C323.408 288.407 323.408 288.843 323.408 289.186C323.408 289.518 323.408 289.717 323.408 289.783ZM333.378 287.362C333.654 287.55 333.831 287.821 333.908 288.175C333.997 288.517 333.986 288.893 333.875 289.302C333.776 289.711 333.571 290.104 333.262 290.479C332.952 290.844 332.532 291.148 332.002 291.391C331.482 291.635 330.852 291.762 330.111 291.773C329.492 291.784 328.884 291.707 328.287 291.541C327.701 291.375 327.165 291.121 326.679 290.778C326.204 290.435 325.817 289.993 325.518 289.451C325.22 288.91 325.054 288.263 325.021 287.511C325.01 287.357 325.01 287.196 325.021 287.031C325.032 286.865 325.043 286.693 325.054 286.516C325.054 286.472 325.054 286.428 325.054 286.384C325.065 286.34 325.076 286.295 325.087 286.251C325.198 285.588 325.424 284.98 325.767 284.427C326.121 283.875 326.552 283.405 327.06 283.018C327.569 282.631 328.11 282.349 328.685 282.172C329.271 281.984 329.846 281.918 330.41 281.973C331.283 282.062 331.957 282.294 332.433 282.67C332.919 283.045 333.234 283.51 333.378 284.062C333.533 284.604 333.538 285.19 333.394 285.82C333.317 286.13 333.14 286.439 332.864 286.749C332.598 287.047 332.267 287.318 331.869 287.561C331.471 287.793 331.045 287.976 330.592 288.108C330.15 288.23 329.719 288.28 329.299 288.258C329.089 288.247 328.978 288.313 328.967 288.457C328.956 288.589 329.017 288.738 329.15 288.904C329.282 289.059 329.459 289.164 329.68 289.219C330.2 289.33 330.686 289.335 331.139 289.236C331.604 289.125 331.957 288.976 332.201 288.788C332.399 288.633 332.61 288.429 332.831 288.175C333.052 287.909 333.234 287.639 333.378 287.362ZM329.746 285.687C330.001 285.665 330.222 285.588 330.41 285.455C330.609 285.312 330.708 285.162 330.708 285.008C330.719 284.786 330.664 284.61 330.542 284.477C330.432 284.333 330.238 284.267 329.962 284.278C329.652 284.289 329.354 284.333 329.067 284.411C328.779 284.488 328.608 284.648 328.553 284.892C328.519 285.057 328.569 285.201 328.702 285.323C328.834 285.444 329 285.538 329.199 285.605C329.398 285.66 329.581 285.687 329.746 285.687ZM344.34 289.418C344.351 289.905 344.423 290.247 344.556 290.446C344.699 290.634 344.771 290.728 344.771 290.728C344.771 290.728 344.672 290.8 344.473 290.944C344.285 291.076 344.031 291.215 343.71 291.358C343.389 291.502 343.03 291.574 342.632 291.574C342.046 291.574 341.665 291.414 341.488 291.093C341.311 290.772 341.217 290.358 341.206 289.849C341.206 289.761 341.212 289.567 341.223 289.269C341.234 288.971 341.239 288.633 341.239 288.258C341.25 287.871 341.25 287.517 341.239 287.196C341.228 286.865 341.206 286.633 341.173 286.5C341.051 286.058 340.814 285.864 340.46 285.92C340.184 285.953 339.924 286.113 339.681 286.4C339.438 286.677 339.239 287.008 339.084 287.395C338.929 287.782 338.852 288.147 338.852 288.49C338.852 288.667 338.841 288.843 338.818 289.02C338.807 289.186 338.796 289.341 338.785 289.485C338.774 289.584 338.785 289.706 338.818 289.849C338.863 289.993 338.94 290.109 339.051 290.198C338.973 290.33 338.818 290.502 338.586 290.712C338.365 290.922 338.122 291.115 337.857 291.292C337.602 291.458 337.381 291.552 337.193 291.574C337.017 291.585 336.807 291.53 336.563 291.408C336.331 291.286 336.127 291.104 335.95 290.861C335.784 290.618 335.696 290.325 335.685 289.982C335.685 289.894 335.685 289.689 335.685 289.369C335.696 289.048 335.701 288.661 335.701 288.208C335.712 287.755 335.718 287.274 335.718 286.765C335.729 286.257 335.734 285.765 335.734 285.289C335.734 284.814 335.734 284.405 335.734 284.062C335.734 283.764 335.696 283.477 335.618 283.2C335.552 282.913 335.48 282.681 335.403 282.504C335.336 282.316 335.303 282.222 335.303 282.222C335.403 282.2 335.574 282.183 335.817 282.172C336.071 282.161 336.353 282.167 336.663 282.189C336.972 282.211 337.276 282.261 337.575 282.338C337.884 282.415 338.144 282.537 338.354 282.703C338.575 282.869 338.796 282.974 339.017 283.018C339.25 283.051 339.432 283.029 339.565 282.951C339.952 282.697 340.344 282.476 340.742 282.288C341.14 282.1 341.527 281.984 341.903 281.94C342.091 281.918 342.312 281.929 342.566 281.973C342.82 282.006 343.069 282.089 343.312 282.222C343.566 282.355 343.782 282.542 343.959 282.786C344.147 283.029 344.263 283.338 344.307 283.714C344.384 284.355 344.406 285.14 344.373 286.069C344.34 286.986 344.329 288.103 344.34 289.418ZM347.961 281.658C347.585 281.669 347.248 281.564 346.949 281.343C346.662 281.122 346.441 280.851 346.286 280.531C346.143 280.199 346.087 279.884 346.12 279.585C346.176 279.132 346.38 278.812 346.734 278.624C347.088 278.436 347.458 278.336 347.845 278.325C348.398 278.303 348.829 278.447 349.138 278.756C349.448 279.066 349.603 279.42 349.603 279.818C349.603 280.083 349.542 280.354 349.42 280.63C349.31 280.906 349.133 281.144 348.89 281.343C348.646 281.531 348.337 281.636 347.961 281.658ZM349.719 289.849C349.73 290.048 349.79 290.22 349.901 290.363C350.023 290.496 350.166 290.623 350.332 290.745C350.255 290.844 350.155 290.949 350.034 291.06C349.912 291.17 349.73 291.275 349.486 291.375C349.254 291.463 348.917 291.535 348.475 291.59C348.331 291.601 348.149 291.585 347.928 291.541C347.707 291.508 347.486 291.403 347.265 291.226C347.055 291.038 346.883 290.745 346.751 290.347C346.618 289.938 346.563 289.38 346.585 288.672C346.596 288.55 346.596 288.313 346.585 287.959C346.585 287.605 346.579 287.185 346.568 286.699C346.568 286.213 346.563 285.71 346.552 285.19C346.552 284.67 346.546 284.19 346.535 283.747C346.535 283.294 346.529 282.929 346.518 282.653C346.518 282.366 346.518 282.222 346.518 282.222C346.618 282.211 346.784 282.2 347.016 282.189C347.259 282.167 347.524 282.167 347.812 282.189C348.099 282.211 348.376 282.266 348.641 282.355C348.917 282.432 349.149 282.559 349.337 282.736C349.536 282.913 349.652 283.15 349.685 283.449C349.741 283.869 349.763 284.433 349.752 285.14C349.741 285.837 349.724 286.599 349.702 287.428C349.68 288.247 349.685 289.053 349.719 289.849Z" fill="#E56C37"/>
<path d="M356.964 278.242C357.616 278.242 358.241 278.358 358.838 278.591C359.446 278.812 359.954 279.11 360.363 279.486C360.783 279.862 361.032 280.265 361.109 280.696C361.165 280.984 361.126 281.304 360.993 281.658C360.861 282.001 360.651 282.305 360.363 282.57C360.076 282.824 359.728 282.963 359.319 282.985C359.175 282.985 358.993 282.968 358.771 282.935C358.55 282.902 358.335 282.835 358.125 282.736C357.926 282.636 357.766 282.493 357.644 282.305C357.81 282.216 357.92 282.122 357.976 282.023C358.031 281.923 358.047 281.824 358.025 281.724C357.981 281.503 357.848 281.321 357.627 281.177C357.417 281.034 357.158 280.945 356.848 280.912C356.671 280.89 356.467 280.895 356.234 280.929C356.002 280.951 355.787 281.028 355.588 281.161C355.4 281.282 355.267 281.487 355.19 281.774C355.146 281.94 355.151 282.122 355.206 282.321C355.273 282.509 355.428 282.692 355.671 282.869C355.914 283.034 356.284 283.178 356.782 283.3C357.544 283.477 358.252 283.67 358.904 283.88C359.567 284.09 360.148 284.35 360.645 284.659C361.143 284.969 361.524 285.356 361.789 285.82C362.066 286.273 362.193 286.843 362.171 287.528C362.16 287.981 362.038 288.457 361.806 288.954C361.574 289.451 361.237 289.916 360.794 290.347C360.352 290.767 359.811 291.11 359.169 291.375C358.528 291.64 357.799 291.773 356.981 291.773C356.461 291.773 355.925 291.729 355.372 291.64C354.82 291.552 354.294 291.414 353.797 291.226C353.311 291.038 352.879 290.789 352.504 290.479C352.172 290.192 351.934 289.833 351.791 289.402C351.658 288.971 351.63 288.539 351.708 288.108C351.785 287.666 351.979 287.29 352.288 286.981C352.609 286.671 353.051 286.5 353.615 286.467C353.504 286.798 353.565 287.124 353.797 287.445C354.04 287.755 354.399 288.02 354.875 288.241C355.35 288.451 355.87 288.578 356.433 288.622C357.019 288.667 357.528 288.644 357.959 288.556C358.401 288.468 358.644 288.285 358.689 288.009C358.744 287.677 358.677 287.412 358.49 287.213C358.302 287.014 358.042 286.865 357.71 286.765C357.379 286.655 357.019 286.566 356.632 286.5C356.246 286.423 355.886 286.345 355.555 286.268C355.112 286.146 354.665 285.991 354.212 285.803C353.769 285.605 353.36 285.356 352.985 285.057C352.62 284.759 352.321 284.394 352.089 283.963C351.857 283.532 351.735 283.029 351.724 282.454C351.713 281.78 351.851 281.183 352.139 280.663C352.426 280.133 352.819 279.69 353.316 279.337C353.814 278.972 354.377 278.701 355.007 278.524C355.649 278.336 356.301 278.242 356.964 278.242ZM372.648 288.523C372.659 288.766 372.676 289.065 372.698 289.418C372.731 289.772 372.803 290.115 372.913 290.446C373.024 290.778 373.201 291.043 373.444 291.242C373.168 291.43 372.886 291.563 372.598 291.64C372.311 291.729 372.029 291.751 371.753 291.707C371.675 291.684 371.592 291.657 371.504 291.624C371.415 291.601 371.294 291.568 371.139 291.524C370.885 291.447 370.586 291.43 370.244 291.474C369.901 291.519 369.542 291.574 369.166 291.64C368.801 291.718 368.442 291.756 368.088 291.756C367.513 291.756 366.938 291.657 366.364 291.458C365.789 291.248 365.269 290.927 364.805 290.496C364.341 290.065 363.987 289.518 363.744 288.854C363.501 288.191 363.429 287.395 363.528 286.467C363.594 285.826 363.777 285.24 364.075 284.709C364.374 284.167 364.739 283.703 365.17 283.316C365.612 282.918 366.076 282.614 366.563 282.404C367.06 282.183 367.541 282.078 368.005 282.089C368.359 282.1 368.63 282.111 368.818 282.122C369.017 282.133 369.271 282.161 369.58 282.205C369.768 282.227 370.006 282.2 370.293 282.122C370.581 282.045 370.868 281.962 371.156 281.874C371.454 281.774 371.708 281.724 371.918 281.724C372.239 281.713 372.466 281.724 372.598 281.758C372.731 281.78 372.841 281.802 372.93 281.824C372.864 282.023 372.808 282.321 372.764 282.719C372.72 283.117 372.687 283.571 372.665 284.079C372.653 284.576 372.642 285.096 372.631 285.638C372.62 286.179 372.615 286.699 372.615 287.196C372.626 287.694 372.637 288.136 372.648 288.523ZM366.413 286.997C366.435 287.55 366.535 287.981 366.712 288.291C366.9 288.589 367.121 288.799 367.375 288.921C367.64 289.042 367.895 289.103 368.138 289.103C368.624 289.114 368.983 288.926 369.216 288.539C369.448 288.153 369.558 287.616 369.547 286.931C369.547 286.743 369.525 286.522 369.481 286.268C369.448 286.014 369.381 285.765 369.282 285.522C369.193 285.278 369.066 285.074 368.901 284.908C368.746 284.742 368.541 284.659 368.287 284.659C367.779 284.659 367.331 284.847 366.944 285.223C366.568 285.599 366.391 286.19 366.413 286.997ZM379.11 278.11C379.264 278.021 379.469 277.977 379.723 277.977C379.977 277.966 380.237 277.994 380.502 278.06C380.779 278.126 381.016 278.22 381.215 278.342C381.414 278.463 381.542 278.607 381.597 278.773C381.652 278.928 381.586 279.105 381.398 279.304C381.166 279.547 380.834 279.784 380.403 280.017C379.983 280.249 379.541 280.464 379.076 280.663C378.612 280.862 378.192 281.034 377.816 281.177C377.451 281.31 377.197 281.398 377.053 281.443C376.777 281.542 376.567 281.481 376.423 281.26C376.291 281.028 376.269 280.752 376.357 280.431C376.39 280.298 376.501 280.138 376.689 279.95C376.877 279.751 377.109 279.541 377.385 279.32C377.661 279.088 377.949 278.867 378.247 278.657C378.557 278.447 378.844 278.264 379.11 278.11ZM383.288 289.435C383.288 289.534 383.305 289.684 383.338 289.883C383.371 290.07 383.415 290.275 383.47 290.496C383.537 290.706 383.603 290.888 383.669 291.043C383.736 291.198 383.802 291.292 383.868 291.325C383.714 291.513 383.465 291.668 383.122 291.789C382.78 291.911 382.437 291.928 382.094 291.839C381.84 291.773 381.602 291.701 381.381 291.624C381.171 291.557 380.884 291.53 380.519 291.541C380.254 291.552 379.988 291.579 379.723 291.624C379.469 291.679 379.209 291.729 378.944 291.773C378.811 291.795 378.579 291.8 378.247 291.789C377.927 291.789 377.573 291.751 377.186 291.673C376.81 291.596 376.468 291.469 376.158 291.292C375.727 291.038 375.406 290.667 375.196 290.181C374.986 289.684 374.865 289.181 374.832 288.672C374.832 288.55 374.826 288.313 374.815 287.959C374.815 287.605 374.809 287.185 374.798 286.699C374.798 286.213 374.793 285.71 374.782 285.19C374.782 284.67 374.776 284.19 374.765 283.747C374.765 283.294 374.765 282.929 374.765 282.653C374.765 282.366 374.765 282.222 374.765 282.222C374.865 282.211 375.031 282.2 375.263 282.189C375.506 282.178 375.771 282.183 376.059 282.205C376.346 282.216 376.622 282.266 376.888 282.355C377.164 282.432 377.396 282.559 377.584 282.736C377.783 282.913 377.899 283.15 377.932 283.449C377.965 283.692 377.988 283.913 377.999 284.112C378.01 284.311 378.01 284.532 377.999 284.775C377.999 285.008 377.988 285.301 377.965 285.654C377.954 285.997 377.938 286.434 377.916 286.964C377.894 287.395 377.888 287.766 377.899 288.075C377.91 288.385 377.982 288.617 378.115 288.772C378.258 288.926 378.513 288.998 378.877 288.987C379.121 288.976 379.325 288.882 379.491 288.705C379.657 288.517 379.784 288.291 379.872 288.025C379.972 287.76 380.044 287.489 380.088 287.213C380.132 286.937 380.149 286.693 380.138 286.483C380.138 286.439 380.132 286.268 380.121 285.969C380.121 285.66 380.116 285.301 380.104 284.892C380.104 284.471 380.099 284.057 380.088 283.648C380.088 283.239 380.088 282.902 380.088 282.636C380.088 282.36 380.088 282.222 380.088 282.222C380.187 282.211 380.353 282.211 380.585 282.222C380.817 282.222 381.077 282.244 381.365 282.288C381.652 282.332 381.934 282.41 382.21 282.52C382.487 282.631 382.719 282.786 382.907 282.985C383.106 283.173 383.222 283.416 383.255 283.714C383.321 284.355 383.332 285.14 383.288 286.069C383.255 286.986 383.255 288.108 383.288 289.435ZM394.363 289.468C394.551 289.689 394.827 289.844 395.192 289.932C395.137 290.164 395.065 290.413 394.976 290.678C394.899 290.944 394.772 291.176 394.595 291.375C394.429 291.574 394.186 291.701 393.866 291.756C393.722 291.789 393.539 291.778 393.318 291.723C393.097 291.668 392.832 291.601 392.522 291.524C392.323 291.469 392.069 291.458 391.76 291.491C391.45 291.513 391.157 291.546 390.881 291.59C390.616 291.635 390.439 291.668 390.35 291.69C390.229 291.723 390.107 291.74 389.985 291.74C389.864 291.751 389.742 291.756 389.621 291.756C389.046 291.756 388.477 291.657 387.913 291.458C387.36 291.248 386.863 290.927 386.42 290.496C385.978 290.065 385.641 289.518 385.409 288.854C385.188 288.191 385.127 287.395 385.227 286.467C385.293 285.826 385.464 285.229 385.741 284.676C386.028 284.123 386.382 283.642 386.802 283.233C387.222 282.813 387.67 282.493 388.145 282.272C388.631 282.039 389.107 281.923 389.571 281.923C389.67 281.923 389.764 281.923 389.853 281.923C389.952 281.923 390.046 281.918 390.135 281.907C390.334 281.874 390.527 281.763 390.715 281.575C390.903 281.387 391.03 281.155 391.096 280.879C391.13 280.724 391.152 280.542 391.163 280.332C391.174 280.122 391.179 279.994 391.179 279.95C391.212 279.696 391.306 279.48 391.461 279.304C391.616 279.116 391.798 278.966 392.008 278.856C392.296 278.701 392.611 278.591 392.954 278.524C393.296 278.458 393.611 278.425 393.899 278.425C394.197 278.414 394.418 278.425 394.562 278.458C394.551 278.524 394.529 278.762 394.496 279.171C394.462 279.58 394.424 280.094 394.38 280.713C394.335 281.332 394.291 282.012 394.247 282.752C394.203 283.482 394.164 284.217 394.131 284.958C394.109 285.698 394.098 286.389 394.098 287.031C394.098 287.672 394.12 288.208 394.164 288.639C394.208 289.07 394.275 289.346 394.363 289.468ZM388.195 287.014C388.161 287.445 388.211 287.804 388.344 288.092C388.488 288.368 388.664 288.578 388.875 288.722C389.096 288.854 389.311 288.926 389.521 288.937C389.919 288.948 390.223 288.849 390.433 288.639C390.654 288.418 390.803 288.13 390.881 287.777C390.958 287.412 390.997 287.025 390.997 286.616C390.997 285.997 390.875 285.549 390.632 285.273C390.389 284.997 390.008 284.875 389.488 284.908C389.156 284.93 388.869 285.09 388.626 285.389C388.394 285.687 388.25 286.229 388.195 287.014ZM404.367 287.362C404.644 287.55 404.821 287.821 404.898 288.175C404.986 288.517 404.975 288.893 404.865 289.302C404.765 289.711 404.561 290.104 404.251 290.479C403.942 290.844 403.522 291.148 402.991 291.391C402.472 291.635 401.841 291.762 401.101 291.773C400.482 291.784 399.874 291.707 399.277 291.541C398.691 291.375 398.155 291.121 397.668 290.778C397.193 290.435 396.806 289.993 396.508 289.451C396.209 288.91 396.043 288.263 396.01 287.511C395.999 287.357 395.999 287.196 396.01 287.031C396.021 286.865 396.032 286.693 396.043 286.516C396.043 286.472 396.043 286.428 396.043 286.384C396.054 286.34 396.066 286.295 396.077 286.251C396.187 285.588 396.414 284.98 396.756 284.427C397.11 283.875 397.541 283.405 398.05 283.018C398.558 282.631 399.1 282.349 399.675 282.172C400.261 281.984 400.835 281.918 401.399 281.973C402.273 282.062 402.947 282.294 403.422 282.67C403.909 283.045 404.224 283.51 404.367 284.062C404.522 284.604 404.528 285.19 404.384 285.82C404.307 286.13 404.13 286.439 403.853 286.749C403.588 287.047 403.256 287.318 402.858 287.561C402.46 287.793 402.035 287.976 401.582 288.108C401.139 288.23 400.708 288.28 400.288 288.258C400.078 288.247 399.968 288.313 399.957 288.457C399.946 288.589 400.006 288.738 400.139 288.904C400.272 289.059 400.449 289.164 400.67 289.219C401.189 289.33 401.676 289.335 402.129 289.236C402.593 289.125 402.947 288.976 403.19 288.788C403.389 288.633 403.599 288.429 403.82 288.175C404.041 287.909 404.224 287.639 404.367 287.362ZM400.736 285.687C400.99 285.665 401.211 285.588 401.399 285.455C401.598 285.312 401.698 285.162 401.698 285.008C401.709 284.786 401.653 284.61 401.532 284.477C401.421 284.333 401.228 284.267 400.952 284.278C400.642 284.289 400.344 284.333 400.056 284.411C399.769 284.488 399.597 284.648 399.542 284.892C399.509 285.057 399.559 285.201 399.691 285.323C399.824 285.444 399.99 285.538 400.189 285.605C400.388 285.66 400.57 285.687 400.736 285.687Z" fill="#3D42AF"/>
</g>
</g>
<g clip-path="url(#clip1_11_245)">
<path fill-rule="evenodd" clip-rule="evenodd" d="M304.773 146.248H305.515C306.335 146.248 307 146.913 307 147.733V219.003C307 219.823 306.335 220.487 305.515 220.487H304.773V146.248Z" fill="#121515"/>
<g filter="url(#filter1_dd_11_245)">
<path fill-rule="evenodd" clip-rule="evenodd" d="M-7.77283 46.7698C-7.77283 20.9391 13.167 -0.000732422 38.9977 -0.000732422H258.002C283.833 -0.000732422 304.773 20.9391 304.773 46.7698V590.198C304.773 616.029 283.833 636.969 258.002 636.969H38.9977C13.167 636.969 -7.77283 616.029 -7.77283 590.198V46.7698Z" fill="#3A4245"/>
</g>
<path fill-rule="evenodd" clip-rule="evenodd" d="M-4.06085 46.7705C-4.06085 22.9899 15.2171 3.71191 38.9977 3.71191H258.002C281.783 3.71191 301.061 22.9899 301.061 46.7705V590.199C301.061 613.98 281.783 633.258 258.002 633.258H38.9977C15.2171 633.258 -4.06085 613.98 -4.06085 590.199V46.7705Z" fill="#121515"/>
<path fill-rule="evenodd" clip-rule="evenodd" d="M182.279 29.6951C185.559 29.6951 188.218 27.0361 188.218 23.756C188.218 20.4759 185.559 17.8169 182.279 17.8169C178.999 17.8169 176.34 20.4759 176.34 23.756C176.34 27.0361 178.999 29.6951 182.279 29.6951Z" fill="#262C2D"/>
<path fill-rule="evenodd" clip-rule="evenodd" d="M182.279 27.468C184.329 27.468 185.991 25.8061 185.991 23.756C185.991 21.706 184.329 20.0441 182.279 20.0441C180.229 20.0441 178.567 21.706 178.567 23.756C178.567 25.8061 180.229 27.468 182.279 27.468Z" fill="#121515"/>
<path opacity="0.4" fill-rule="evenodd" clip-rule="evenodd" d="M182.279 23.0136C182.689 23.0136 183.021 22.6812 183.021 22.2712C183.021 21.8612 182.689 21.5288 182.279 21.5288C181.869 21.5288 181.536 21.8612 181.536 22.2712C181.536 22.6812 181.869 23.0136 182.279 23.0136Z" fill="#636F73"/>
<path fill-rule="evenodd" clip-rule="evenodd" d="M129.569 23.7561C129.569 22.5261 130.566 21.5289 131.796 21.5289H165.204C166.434 21.5289 167.431 22.5261 167.431 23.7561V23.7561C167.431 24.9861 166.434 25.9833 165.204 25.9833H131.796C130.566 25.9833 129.569 24.9861 129.569 23.7561V23.7561Z" fill="#262C2D"/>
<mask id="mask1_11_245" style="mask-type:alpha" maskUnits="userSpaceOnUse" x="9" y="17" width="279" height="603">
<path fill-rule="evenodd" clip-rule="evenodd" d="M87.9953 39.3461H209.005C218.845 39.3461 226.822 31.369 226.822 20.6008C226.923 18.6975 228.445 17.1752 230.344 17.0793L259.487 17.0745C275.067 17.0745 287.698 29.7049 287.698 45.2852V591.683C287.698 607.264 275.067 619.894 259.487 619.894H37.5128C21.9325 619.894 9.30206 607.264 9.30206 591.683V45.2852C9.30206 29.7049 21.9325 17.0745 37.5128 17.0745H66.6516C68.5549 17.1752 70.0772 18.6975 70.1731 20.596C70.1779 31.369 78.155 39.3461 87.9953 39.3461Z" fill="white"/>
</mask>
<g mask="url(#mask1_11_245)">
<rect width="278.396" height="602.82" transform="translate(9.30212 17.0737)" fill="white"/>
<path d="M96.0189 327.224C96.0361 327.567 96.0789 327.901 96.1474 328.227C96.2331 328.552 96.3359 328.792 96.4558 328.946C96.3016 329.1 96.0618 329.28 95.7362 329.486C95.4279 329.691 95.0681 329.854 94.6569 329.974C94.2629 330.111 93.8432 330.171 93.3977 330.154C92.7296 330.12 92.1899 329.837 91.7787 329.306C91.3847 328.775 91.1791 328.115 91.162 327.327C91.162 327.173 91.162 326.89 91.162 326.479C91.162 326.051 91.162 325.597 91.162 325.117C91.162 324.637 91.162 324.243 91.162 323.935C91.162 323.644 91.0849 323.361 90.9307 323.087C90.7937 322.813 90.6309 322.65 90.4424 322.599C90.1855 322.513 89.9713 322.667 89.8 323.061C89.7657 323.147 89.6544 323.361 89.4659 323.704C89.2775 324.029 89.0633 324.415 88.8235 324.86C88.6008 325.306 88.3866 325.751 88.181 326.196C87.9926 326.642 87.8641 327.027 87.7955 327.353C87.727 327.661 87.7698 327.85 87.924 327.918C87.8555 328.089 87.727 328.338 87.5386 328.663C87.3672 328.989 87.076 329.272 86.6648 329.511C86.2708 329.734 85.7054 329.82 84.9688 329.768C84.5747 329.734 84.0693 329.494 83.4526 329.049C82.8358 328.603 82.2448 327.79 81.6794 326.608C81.1483 325.477 80.7114 324.714 80.3688 324.32C80.0433 323.909 79.8034 323.721 79.6493 323.755C79.5122 323.772 79.4008 323.866 79.3152 324.038C79.2467 324.209 79.1781 324.449 79.1096 324.757C79.0753 324.911 79.0582 325.168 79.0582 325.528C79.0582 325.888 79.0753 326.291 79.1096 326.736C79.1439 327.181 79.2038 327.601 79.2895 327.995C79.3923 328.389 79.5208 328.689 79.675 328.895C79.5379 328.98 79.2895 329.126 78.9297 329.332C78.5871 329.537 78.193 329.726 77.7476 329.897C77.3193 330.051 76.8996 330.128 76.4884 330.128C75.8716 330.111 75.3577 329.948 74.9465 329.64C74.5353 329.314 74.2869 328.681 74.2013 327.738C74.1841 327.584 74.1756 327.147 74.1756 326.428C74.1756 325.708 74.1756 324.8 74.1756 323.704C74.1756 322.607 74.1756 321.434 74.1756 320.183C74.1756 318.915 74.1756 317.665 74.1756 316.431C74.1756 315.198 74.1756 314.067 74.1756 313.039C74.1927 312.011 74.2013 311.189 74.2013 310.572C74.2013 309.955 74.2013 309.647 74.2013 309.647C74.3897 309.613 74.7067 309.604 75.1521 309.621C75.5975 309.638 76.0858 309.707 76.6169 309.827C77.148 309.947 77.6362 310.144 78.0817 310.418C78.5271 310.675 78.8355 311.043 79.0068 311.523C79.0068 311.523 79.0839 311.686 79.2381 312.011C79.4094 312.319 79.6321 312.731 79.9062 313.245C80.1803 313.741 80.4716 314.281 80.78 314.864C81.1055 315.446 81.4139 316.02 81.7051 316.585C82.0135 317.151 82.279 317.647 82.5017 318.076C82.7416 318.504 82.9043 318.804 82.99 318.975C83.2813 319.472 83.5554 319.815 83.8123 320.003C84.0865 320.192 84.3777 320.294 84.6861 320.312C85.32 320.312 85.9282 319.823 86.5106 318.847C86.5963 318.693 86.7676 318.367 87.0246 317.87C87.2816 317.356 87.5814 316.748 87.924 316.046C88.2667 315.343 88.6179 314.624 88.9777 313.887C89.3546 313.15 89.6972 312.465 90.0056 311.831C90.314 311.18 90.5624 310.658 90.7508 310.264C90.9564 309.852 91.0592 309.647 91.0592 309.647C91.1791 309.63 91.3504 309.621 91.5732 309.621C91.813 309.604 92.07 309.613 92.3441 309.647C92.8238 309.681 93.3292 309.775 93.8603 309.93C94.4085 310.084 94.8796 310.324 95.2737 310.649C95.6849 310.975 95.9161 311.411 95.9675 311.96C96.0018 312.251 96.0275 312.731 96.0446 313.399C96.0618 314.05 96.0703 314.829 96.0703 315.737C96.0703 316.628 96.0703 317.579 96.0703 318.59C96.0703 319.601 96.0618 320.594 96.0446 321.571C96.0446 322.547 96.0361 323.447 96.0189 324.269C96.0189 325.091 96.0189 325.768 96.0189 326.299C96.0189 326.813 96.0189 327.122 96.0189 327.224ZM111.47 323.472C111.899 323.764 112.173 324.183 112.293 324.732C112.43 325.263 112.413 325.845 112.241 326.479C112.087 327.113 111.77 327.721 111.29 328.304C110.811 328.869 110.16 329.34 109.337 329.717C108.532 330.094 107.556 330.291 106.408 330.308C105.448 330.325 104.506 330.205 103.581 329.948C102.673 329.691 101.842 329.297 101.088 328.766C100.352 328.235 99.752 327.55 99.2894 326.71C98.8268 325.871 98.5699 324.869 98.5185 323.704C98.5013 323.464 98.5013 323.215 98.5185 322.958C98.5356 322.701 98.5527 322.436 98.5699 322.162C98.5699 322.093 98.5699 322.025 98.5699 321.956C98.587 321.888 98.6041 321.819 98.6213 321.751C98.7926 320.723 99.1438 319.78 99.6749 318.924C100.223 318.067 100.891 317.339 101.679 316.739C102.467 316.14 103.307 315.703 104.198 315.429C105.106 315.138 105.997 315.035 106.87 315.121C108.224 315.258 109.269 315.617 110.006 316.2C110.759 316.782 111.248 317.502 111.47 318.358C111.71 319.198 111.719 320.106 111.496 321.082C111.376 321.562 111.102 322.042 110.674 322.522C110.262 322.984 109.749 323.404 109.132 323.781C108.515 324.141 107.855 324.423 107.153 324.629C106.468 324.817 105.8 324.894 105.149 324.86C104.823 324.843 104.652 324.946 104.635 325.168C104.617 325.374 104.712 325.605 104.917 325.862C105.123 326.102 105.397 326.265 105.74 326.351C106.545 326.522 107.299 326.53 108.001 326.376C108.721 326.205 109.269 325.974 109.646 325.682C109.954 325.443 110.28 325.126 110.622 324.732C110.965 324.32 111.248 323.901 111.47 323.472ZM105.842 320.877C106.236 320.843 106.579 320.723 106.87 320.517C107.179 320.294 107.333 320.063 107.333 319.823C107.35 319.481 107.264 319.207 107.076 319.001C106.905 318.778 106.605 318.675 106.176 318.693C105.697 318.71 105.234 318.778 104.789 318.898C104.343 319.018 104.078 319.266 103.992 319.643C103.941 319.9 104.018 320.123 104.223 320.312C104.429 320.5 104.686 320.646 104.994 320.748C105.303 320.834 105.585 320.877 105.842 320.877ZM128.46 326.659C128.477 327.413 128.588 327.944 128.794 328.252C129.017 328.543 129.128 328.689 129.128 328.689C129.128 328.689 128.974 328.8 128.665 329.023C128.374 329.229 127.98 329.443 127.483 329.666C126.986 329.888 126.43 330 125.813 330C124.905 330 124.314 329.751 124.04 329.254C123.766 328.758 123.62 328.115 123.603 327.327C123.603 327.19 123.611 326.89 123.628 326.428C123.646 325.965 123.654 325.443 123.654 324.86C123.671 324.26 123.671 323.712 123.654 323.215C123.637 322.701 123.603 322.342 123.551 322.136C123.363 321.451 122.995 321.151 122.446 321.237C122.018 321.288 121.615 321.536 121.239 321.982C120.862 322.41 120.553 322.924 120.313 323.524C120.074 324.123 119.954 324.689 119.954 325.22C119.954 325.494 119.937 325.768 119.902 326.042C119.885 326.299 119.868 326.539 119.851 326.762C119.834 326.916 119.851 327.104 119.902 327.327C119.971 327.55 120.091 327.73 120.262 327.867C120.142 328.072 119.902 328.338 119.542 328.663C119.2 328.989 118.823 329.289 118.412 329.563C118.018 329.82 117.675 329.965 117.384 330C117.11 330.017 116.784 329.931 116.407 329.743C116.048 329.554 115.731 329.272 115.457 328.895C115.2 328.518 115.062 328.064 115.045 327.533C115.045 327.396 115.045 327.079 115.045 326.582C115.062 326.085 115.071 325.485 115.071 324.783C115.088 324.081 115.097 323.335 115.097 322.547C115.114 321.759 115.122 320.997 115.122 320.26C115.122 319.523 115.122 318.89 115.122 318.358C115.122 317.896 115.062 317.45 114.943 317.022C114.84 316.577 114.728 316.217 114.608 315.943C114.506 315.652 114.454 315.506 114.454 315.506C114.608 315.472 114.874 315.446 115.251 315.429C115.645 315.412 116.082 315.42 116.562 315.455C117.041 315.489 117.512 315.566 117.975 315.686C118.455 315.806 118.857 315.994 119.183 316.251C119.525 316.508 119.868 316.671 120.211 316.739C120.57 316.791 120.853 316.757 121.059 316.637C121.658 316.243 122.266 315.9 122.883 315.609C123.5 315.318 124.1 315.138 124.682 315.069C124.973 315.035 125.316 315.052 125.71 315.121C126.104 315.172 126.49 315.3 126.866 315.506C127.26 315.712 127.595 316.003 127.869 316.38C128.16 316.757 128.34 317.236 128.408 317.819C128.528 318.812 128.563 320.029 128.511 321.468C128.46 322.89 128.443 324.62 128.46 326.659ZM134.071 314.632C133.489 314.649 132.966 314.487 132.504 314.144C132.058 313.801 131.716 313.382 131.476 312.885C131.253 312.371 131.167 311.883 131.219 311.42C131.305 310.718 131.621 310.221 132.17 309.93C132.718 309.638 133.292 309.484 133.891 309.467C134.748 309.433 135.416 309.655 135.896 310.135C136.376 310.615 136.615 311.163 136.615 311.78C136.615 312.191 136.521 312.611 136.333 313.039C136.161 313.467 135.887 313.836 135.51 314.144C135.134 314.435 134.654 314.598 134.071 314.632ZM136.795 327.327C136.812 327.635 136.907 327.901 137.078 328.124C137.266 328.329 137.489 328.526 137.746 328.715C137.626 328.869 137.472 329.032 137.284 329.203C137.095 329.374 136.812 329.537 136.436 329.691C136.076 329.828 135.553 329.94 134.868 330.025C134.645 330.043 134.363 330.017 134.02 329.948C133.677 329.897 133.335 329.734 132.992 329.46C132.667 329.169 132.401 328.715 132.195 328.098C131.99 327.464 131.904 326.599 131.938 325.503C131.956 325.314 131.956 324.946 131.938 324.398C131.938 323.849 131.93 323.198 131.913 322.444C131.913 321.691 131.904 320.911 131.887 320.106C131.887 319.301 131.878 318.555 131.861 317.87C131.861 317.168 131.853 316.602 131.836 316.174C131.836 315.729 131.836 315.506 131.836 315.506C131.99 315.489 132.247 315.472 132.607 315.455C132.983 315.42 133.395 315.42 133.84 315.455C134.285 315.489 134.714 315.575 135.125 315.712C135.553 315.831 135.913 316.029 136.204 316.303C136.513 316.577 136.693 316.945 136.744 317.408C136.83 318.059 136.864 318.932 136.847 320.029C136.83 321.108 136.804 322.29 136.77 323.575C136.735 324.843 136.744 326.094 136.795 327.327Z" fill="#E56C37"/>
<path d="M148.024 309.338C149.035 309.338 150.003 309.518 150.928 309.878C151.871 310.221 152.659 310.683 153.292 311.266C153.944 311.848 154.329 312.474 154.449 313.142C154.535 313.587 154.475 314.084 154.269 314.632C154.063 315.163 153.738 315.634 153.292 316.046C152.847 316.44 152.307 316.654 151.674 316.688C151.451 316.688 151.168 316.662 150.825 316.611C150.483 316.56 150.149 316.457 149.823 316.303C149.515 316.148 149.266 315.926 149.078 315.634C149.335 315.497 149.506 315.352 149.592 315.198C149.678 315.043 149.703 314.889 149.669 314.735C149.601 314.392 149.395 314.11 149.052 313.887C148.727 313.664 148.324 313.527 147.845 313.476C147.57 313.442 147.253 313.45 146.894 313.502C146.534 313.536 146.2 313.656 145.891 313.861C145.6 314.05 145.395 314.367 145.275 314.812C145.206 315.069 145.215 315.352 145.3 315.66C145.403 315.951 145.643 316.234 146.02 316.508C146.397 316.765 146.971 316.988 147.742 317.176C148.924 317.45 150.02 317.75 151.031 318.076C152.059 318.401 152.958 318.804 153.729 319.284C154.5 319.763 155.091 320.363 155.503 321.082C155.931 321.785 156.128 322.667 156.094 323.729C156.076 324.432 155.888 325.168 155.528 325.939C155.168 326.71 154.646 327.43 153.961 328.098C153.275 328.749 152.436 329.28 151.442 329.691C150.449 330.102 149.318 330.308 148.05 330.308C147.245 330.308 146.414 330.24 145.557 330.102C144.701 329.965 143.887 329.751 143.116 329.46C142.362 329.169 141.694 328.783 141.112 328.304C140.598 327.858 140.229 327.301 140.007 326.633C139.801 325.965 139.758 325.297 139.878 324.629C139.998 323.944 140.298 323.361 140.778 322.881C141.274 322.402 141.96 322.136 142.833 322.085C142.662 322.599 142.756 323.104 143.116 323.601C143.493 324.081 144.05 324.492 144.786 324.834C145.523 325.16 146.328 325.357 147.202 325.425C148.11 325.494 148.898 325.46 149.566 325.323C150.252 325.186 150.628 324.903 150.697 324.475C150.783 323.961 150.68 323.549 150.389 323.241C150.097 322.933 149.695 322.701 149.181 322.547C148.667 322.376 148.11 322.239 147.51 322.136C146.911 322.016 146.354 321.896 145.84 321.776C145.155 321.588 144.461 321.348 143.759 321.057C143.073 320.748 142.439 320.363 141.857 319.9C141.291 319.438 140.829 318.872 140.469 318.204C140.109 317.536 139.921 316.757 139.904 315.866C139.887 314.821 140.101 313.896 140.546 313.09C140.992 312.268 141.6 311.583 142.371 311.035C143.142 310.469 144.015 310.049 144.992 309.775C145.986 309.484 146.996 309.338 148.024 309.338ZM172.331 325.271C172.348 325.648 172.374 326.111 172.408 326.659C172.46 327.207 172.571 327.738 172.743 328.252C172.914 328.766 173.188 329.177 173.565 329.486C173.137 329.777 172.7 329.983 172.254 330.102C171.809 330.24 171.372 330.274 170.944 330.205C170.824 330.171 170.695 330.128 170.558 330.077C170.421 330.043 170.233 329.991 169.993 329.923C169.599 329.803 169.136 329.777 168.605 329.846C168.074 329.914 167.517 330 166.935 330.102C166.369 330.222 165.813 330.282 165.264 330.282C164.374 330.282 163.483 330.128 162.592 329.82C161.701 329.494 160.896 328.997 160.176 328.329C159.457 327.661 158.908 326.813 158.531 325.785C158.155 324.757 158.043 323.524 158.197 322.085C158.3 321.091 158.583 320.183 159.045 319.361C159.508 318.521 160.073 317.802 160.742 317.202C161.427 316.585 162.146 316.114 162.9 315.789C163.671 315.446 164.416 315.283 165.136 315.3C165.684 315.318 166.104 315.335 166.395 315.352C166.703 315.369 167.098 315.412 167.577 315.48C167.868 315.515 168.237 315.472 168.682 315.352C169.128 315.232 169.573 315.103 170.019 314.966C170.481 314.812 170.875 314.735 171.201 314.735C171.697 314.718 172.049 314.735 172.254 314.786C172.46 314.821 172.631 314.855 172.768 314.889C172.665 315.198 172.58 315.66 172.511 316.277C172.443 316.894 172.391 317.596 172.357 318.384C172.34 319.155 172.323 319.96 172.306 320.8C172.289 321.639 172.28 322.444 172.28 323.215C172.297 323.986 172.314 324.672 172.331 325.271ZM162.669 322.907C162.703 323.764 162.857 324.432 163.131 324.911C163.423 325.374 163.765 325.7 164.159 325.888C164.571 326.076 164.965 326.171 165.341 326.171C166.095 326.188 166.652 325.897 167.012 325.297C167.372 324.697 167.543 323.866 167.526 322.804C167.526 322.513 167.492 322.17 167.423 321.776C167.372 321.382 167.269 320.997 167.115 320.62C166.978 320.243 166.781 319.926 166.524 319.669C166.284 319.412 165.967 319.284 165.573 319.284C164.785 319.284 164.091 319.575 163.491 320.157C162.909 320.74 162.635 321.656 162.669 322.907ZM182.346 309.133C182.585 308.996 182.902 308.927 183.296 308.927C183.69 308.91 184.093 308.953 184.504 309.056C184.933 309.159 185.301 309.304 185.609 309.493C185.918 309.681 186.115 309.904 186.2 310.161C186.286 310.401 186.183 310.675 185.892 310.983C185.532 311.36 185.018 311.728 184.35 312.088C183.699 312.448 183.014 312.782 182.294 313.09C181.575 313.399 180.924 313.664 180.341 313.887C179.776 314.093 179.382 314.23 179.159 314.298C178.731 314.452 178.405 314.358 178.182 314.016C177.977 313.656 177.943 313.227 178.08 312.731C178.131 312.525 178.302 312.277 178.594 311.985C178.885 311.677 179.245 311.351 179.673 311.009C180.101 310.649 180.547 310.306 181.009 309.981C181.489 309.655 181.934 309.373 182.346 309.133ZM188.821 326.685C188.821 326.839 188.847 327.07 188.899 327.378C188.95 327.67 189.019 327.987 189.104 328.329C189.207 328.655 189.31 328.938 189.413 329.177C189.515 329.417 189.618 329.563 189.721 329.614C189.481 329.905 189.096 330.145 188.565 330.334C188.033 330.522 187.502 330.548 186.971 330.411C186.577 330.308 186.209 330.197 185.866 330.077C185.541 329.974 185.095 329.931 184.53 329.948C184.119 329.965 183.708 330.008 183.296 330.077C182.902 330.162 182.5 330.24 182.089 330.308C181.883 330.342 181.523 330.351 181.009 330.334C180.512 330.334 179.964 330.274 179.365 330.154C178.782 330.034 178.251 329.837 177.771 329.563C177.103 329.169 176.606 328.595 176.281 327.841C175.955 327.07 175.767 326.291 175.715 325.503C175.715 325.314 175.707 324.946 175.69 324.398C175.69 323.849 175.681 323.198 175.664 322.444C175.664 321.691 175.656 320.911 175.638 320.106C175.638 319.301 175.63 318.555 175.613 317.87C175.613 317.168 175.613 316.602 175.613 316.174C175.613 315.729 175.613 315.506 175.613 315.506C175.767 315.489 176.024 315.472 176.384 315.455C176.761 315.437 177.172 315.446 177.617 315.48C178.063 315.497 178.491 315.575 178.902 315.712C179.33 315.831 179.69 316.029 179.981 316.303C180.29 316.577 180.47 316.945 180.521 317.408C180.572 317.785 180.607 318.127 180.624 318.436C180.641 318.744 180.641 319.087 180.624 319.463C180.624 319.823 180.607 320.277 180.572 320.825C180.555 321.357 180.53 322.033 180.495 322.856C180.461 323.524 180.452 324.098 180.47 324.577C180.487 325.057 180.598 325.417 180.804 325.657C181.026 325.897 181.42 326.008 181.986 325.991C182.363 325.974 182.68 325.828 182.937 325.554C183.194 325.263 183.391 324.911 183.528 324.5C183.682 324.089 183.793 323.669 183.862 323.241C183.93 322.813 183.956 322.436 183.939 322.11C183.939 322.042 183.93 321.776 183.913 321.314C183.913 320.834 183.905 320.277 183.887 319.643C183.887 318.992 183.879 318.35 183.862 317.716C183.862 317.082 183.862 316.56 183.862 316.148C183.862 315.72 183.862 315.506 183.862 315.506C184.016 315.489 184.273 315.489 184.633 315.506C184.992 315.506 185.395 315.54 185.841 315.609C186.286 315.677 186.723 315.797 187.151 315.969C187.579 316.14 187.939 316.38 188.23 316.688C188.539 316.979 188.719 317.356 188.77 317.819C188.873 318.812 188.89 320.029 188.821 321.468C188.77 322.89 188.77 324.629 188.821 326.685ZM205.985 326.736C206.277 327.079 206.705 327.319 207.27 327.456C207.185 327.815 207.073 328.201 206.936 328.612C206.816 329.023 206.619 329.383 206.345 329.691C206.088 330 205.711 330.197 205.214 330.282C204.992 330.334 204.709 330.317 204.366 330.231C204.024 330.145 203.613 330.043 203.133 329.923C202.825 329.837 202.43 329.82 201.951 329.871C201.471 329.905 201.017 329.957 200.589 330.025C200.178 330.094 199.904 330.145 199.766 330.18C199.578 330.231 199.39 330.257 199.201 330.257C199.013 330.274 198.824 330.282 198.636 330.282C197.745 330.282 196.863 330.128 195.989 329.82C195.132 329.494 194.361 328.997 193.676 328.329C192.991 327.661 192.468 326.813 192.108 325.785C191.766 324.757 191.672 323.524 191.826 322.085C191.929 321.091 192.194 320.166 192.622 319.309C193.068 318.453 193.616 317.707 194.267 317.074C194.918 316.423 195.612 315.926 196.349 315.583C197.102 315.223 197.839 315.043 198.559 315.043C198.713 315.043 198.858 315.043 198.996 315.043C199.15 315.043 199.295 315.035 199.432 315.018C199.741 314.966 200.041 314.795 200.332 314.504C200.623 314.213 200.82 313.853 200.923 313.424C200.974 313.185 201.009 312.902 201.026 312.576C201.043 312.251 201.051 312.054 201.051 311.985C201.103 311.591 201.248 311.257 201.488 310.983C201.728 310.692 202.011 310.461 202.336 310.289C202.782 310.049 203.27 309.878 203.801 309.775C204.332 309.673 204.82 309.621 205.266 309.621C205.728 309.604 206.071 309.621 206.294 309.673C206.277 309.775 206.242 310.144 206.191 310.778C206.14 311.411 206.08 312.208 206.011 313.167C205.943 314.127 205.874 315.18 205.805 316.328C205.737 317.459 205.677 318.598 205.626 319.746C205.591 320.894 205.574 321.965 205.574 322.958C205.574 323.952 205.608 324.783 205.677 325.451C205.746 326.119 205.848 326.548 205.985 326.736ZM196.426 322.933C196.374 323.601 196.451 324.158 196.657 324.603C196.88 325.031 197.154 325.357 197.479 325.58C197.822 325.785 198.156 325.897 198.482 325.914C199.098 325.931 199.569 325.777 199.895 325.451C200.238 325.109 200.469 324.663 200.589 324.115C200.709 323.549 200.769 322.95 200.769 322.316C200.769 321.357 200.58 320.663 200.203 320.234C199.826 319.806 199.235 319.618 198.43 319.669C197.916 319.703 197.471 319.952 197.094 320.414C196.734 320.877 196.511 321.716 196.426 322.933ZM221.49 323.472C221.918 323.764 222.193 324.183 222.312 324.732C222.45 325.263 222.432 325.845 222.261 326.479C222.107 327.113 221.79 327.721 221.31 328.304C220.831 328.869 220.18 329.34 219.357 329.717C218.552 330.094 217.575 330.291 216.428 330.308C215.468 330.325 214.526 330.205 213.601 329.948C212.693 329.691 211.862 329.297 211.108 328.766C210.371 328.235 209.772 327.55 209.309 326.71C208.847 325.871 208.59 324.869 208.538 323.704C208.521 323.464 208.521 323.215 208.538 322.958C208.555 322.701 208.573 322.436 208.59 322.162C208.59 322.093 208.59 322.025 208.59 321.956C208.607 321.888 208.624 321.819 208.641 321.751C208.812 320.723 209.164 319.78 209.695 318.924C210.243 318.067 210.911 317.339 211.699 316.739C212.487 316.14 213.327 315.703 214.218 315.429C215.126 315.138 216.016 315.035 216.89 315.121C218.244 315.258 219.289 315.617 220.025 316.2C220.779 316.782 221.267 317.502 221.49 318.358C221.73 319.198 221.739 320.106 221.516 321.082C221.396 321.562 221.122 322.042 220.694 322.522C220.282 322.984 219.768 323.404 219.152 323.781C218.535 324.141 217.875 324.423 217.173 324.629C216.488 324.817 215.819 324.894 215.168 324.86C214.843 324.843 214.672 324.946 214.654 325.168C214.637 325.374 214.732 325.605 214.937 325.862C215.143 326.102 215.417 326.265 215.759 326.351C216.565 326.522 217.319 326.53 218.021 326.376C218.74 326.205 219.289 325.974 219.666 325.682C219.974 325.443 220.299 325.126 220.642 324.732C220.985 324.32 221.267 323.901 221.49 323.472ZM215.862 320.877C216.256 320.843 216.599 320.723 216.89 320.517C217.199 320.294 217.353 320.063 217.353 319.823C217.37 319.481 217.284 319.207 217.096 319.001C216.924 318.778 216.625 318.675 216.196 318.693C215.717 318.71 215.254 318.778 214.809 318.898C214.363 319.018 214.098 319.266 214.012 319.643C213.961 319.9 214.038 320.123 214.243 320.312C214.449 320.5 214.706 320.646 215.014 320.748C215.323 320.834 215.605 320.877 215.862 320.877Z" fill="#3D42AF"/>
</g>
</g>
<defs>
<filter id="filter0_dd_11_245" x="254.521" y="78.042" width="205.5" height="414.832" filterUnits="userSpaceOnUse" color-interpolation-filters="sRGB">
<feFlood flood-opacity="0" result="BackgroundImageFix"/>
<feColorMatrix in="SourceAlpha" type="matrix" values="0 0 0 0 0 0 0 0 0 0 0 0 0 0 0 0 0 0 127 0" result="hardAlpha"/>
<feOffset/>
<feGaussianBlur stdDeviation="0.479021"/>
<feColorMatrix type="matrix" values="0 0 0 0 0 0 0 0 0 0.0823529 0 0 0 0 0.25098 0 0 0 0.14 0"/>
<feBlend mode="normal" in2="BackgroundImageFix" result="effect1_dropShadow_11_245"/>
<feColorMatrix in="SourceAlpha" type="matrix" values="0 0 0 0 0 0 0 0 0 0 0 0 0 0 0 0 0 0 127 0" result="hardAlpha"/>
<feOffset dy="0.958042"/>
<feGaussianBlur stdDeviation="0.958042"/>
<feColorMatrix type="matrix" values="0 0 0 0 0 0 0 0 0 0.0823529 0 0 0 0 0.25098 0 0 0 0.05 0"/>
<feBlend mode="normal" in2="effect1_dropShadow_11_245" result="effect2_dropShadow_11_245"/>
<feBlend mode="normal" in="SourceGraphic" in2="effect2_dropShadow_11_245" result="shape"/>
</filter>
<filter id="filter1_dd_11_245" x="-10.7424" y="-1.48551" width="318.485" height="642.909" filterUnits="userSpaceOnUse" color-interpolation-filters="sRGB">
<feFlood flood-opacity="0" result="BackgroundImageFix"/>
<feColorMatrix in="SourceAlpha" type="matrix" values="0 0 0 0 0 0 0 0 0 0 0 0 0 0 0 0 0 0 127 0" result="hardAlpha"/>
<feOffset/>
<feGaussianBlur stdDeviation="0.742389"/>
<feColorMatrix type="matrix" values="0 0 0 0 0 0 0 0 0 0.0823529 0 0 0 0 0.25098 0 0 0 0.14 0"/>
<feBlend mode="normal" in2="BackgroundImageFix" result="effect1_dropShadow_11_245"/>
<feColorMatrix in="SourceAlpha" type="matrix" values="0 0 0 0 0 0 0 0 0 0 0 0 0 0 0 0 0 0 127 0" result="hardAlpha"/>
<feOffset dy="1.48478"/>
<feGaussianBlur stdDeviation="1.48478"/>
<feColorMatrix type="matrix" values="0 0 0 0 0 0 0 0 0 0.0823529 0 0 0 0 0.25098 0 0 0 0.05 0"/>
<feBlend mode="normal" in2="effect1_dropShadow_11_245" result="effect2_dropShadow_11_245"/>
<feBlend mode="normal" in="SourceGraphic" in2="effect2_dropShadow_11_245" result="shape"/>
</filter>
<clipPath id="clip0_11_245">
<rect width="204.542" height="411" fill="white" transform="translate(255 79)"/>
</clipPath>
<clipPath id="clip1_11_245">
<rect width="317" height="636.97" fill="white" transform="translate(-10)"/>
</clipPath>
</defs>
</svg>
