<svg width="690" height="169" viewBox="0 0 690 169" fill="none" xmlns="http://www.w3.org/2000/svg">
<path d="M219.163 68.3097C220.972 65.2693 223.362 62.9167 226.329 61.2517C229.371 59.5144 232.954 58.6457 237.081 58.6457V71.4587H233.932C229.081 71.4587 225.389 72.6893 222.855 75.1505C220.393 77.6118 219.163 81.8827 219.163 87.9635V119.453H206.782V59.623H219.163V68.3097ZM272.135 89.5923L299.717 119.453H282.994L260.84 93.7182V119.453H248.46V39.1006H260.84V85.7918L282.56 59.623H299.717L272.135 89.5923Z" fill="white"/>
<path d="M333.459 120.213C328.391 120.213 323.831 119.344 319.777 117.606C315.722 115.797 312.537 113.263 310.22 110.005C307.904 106.748 306.745 102.948 306.745 98.6047H319.994C320.283 101.862 321.551 104.54 323.794 106.639C326.112 108.739 329.333 109.789 333.459 109.789C337.731 109.789 341.062 108.775 343.45 106.748C345.839 104.649 347.034 101.971 347.034 98.7133C347.034 96.1797 346.274 94.1167 344.753 92.5234C343.306 90.9312 341.46 89.7006 339.215 88.832C337.043 87.9633 334.003 87.0222 330.094 86.0088C325.17 84.7057 321.152 83.4027 318.039 82.0997C314.998 80.7243 312.392 78.625 310.22 75.8018C308.048 72.9787 306.962 69.2144 306.962 64.509C306.962 60.1657 308.048 56.3653 310.22 53.1078C312.392 49.8502 315.433 47.3527 319.342 45.6154C323.252 43.8781 327.776 43.0094 332.917 43.0094C340.229 43.0094 346.201 44.8553 350.835 48.5471C355.541 52.1666 358.147 57.1615 358.653 63.5318H344.971C344.753 60.781 343.45 58.4284 341.062 56.4738C338.673 54.5193 335.523 53.5421 331.613 53.5421C328.066 53.5421 325.17 54.447 322.926 56.2567C320.682 58.0664 319.559 60.6724 319.559 64.0747C319.559 66.3912 320.247 68.3095 321.622 69.8297C323.07 71.2775 324.88 72.4357 327.052 73.3044C329.224 74.1731 332.193 75.1141 335.957 76.1276C340.953 77.503 345.007 78.8784 348.12 80.2538C351.305 81.6292 353.985 83.7646 356.156 86.6603C358.4 89.4835 359.523 93.2842 359.523 98.0613C359.523 101.898 358.473 105.518 356.374 108.92C354.347 112.323 351.342 115.073 347.36 117.173C343.45 119.2 338.817 120.213 333.459 120.213ZM388.574 69.7211V102.839C388.574 105.084 389.08 106.712 390.095 107.725C391.18 108.666 392.99 109.137 395.524 109.137H403.126V119.453H393.352C387.777 119.453 383.506 118.15 380.537 115.543C377.57 112.938 376.085 108.703 376.085 102.839V69.7211H369.027V59.6228H376.085V44.7467H388.574V59.6228H403.126V69.7211H388.574ZM410.409 89.2663C410.409 83.2579 411.639 77.9373 414.102 73.3044C416.635 68.6714 420.038 65.0882 424.31 62.5545C428.654 59.9485 433.431 58.6455 438.644 58.6455C443.349 58.6455 447.44 59.5866 450.915 61.4687C454.463 63.2784 457.286 65.5587 459.385 68.3095V59.6228H471.874V119.453H459.385V110.549C457.286 113.372 454.426 115.725 450.807 117.606C447.187 119.489 443.06 120.43 438.427 120.43C433.287 120.43 428.581 119.127 424.31 116.521C420.038 113.842 416.635 110.151 414.102 105.446C411.639 100.668 410.409 95.2744 410.409 89.2663ZM459.385 89.4835C459.385 85.3572 458.517 81.7739 456.78 78.7336C455.114 75.6932 452.907 73.3768 450.155 71.7842C447.404 70.1917 444.435 69.3954 441.25 69.3954C438.065 69.3954 435.097 70.1917 432.345 71.7842C429.594 73.3044 427.35 75.5847 425.612 78.625C423.948 81.593 423.115 85.14 423.115 89.2663C423.115 93.3928 423.948 97.0123 425.612 100.124C427.35 103.237 429.594 105.626 432.345 107.291C435.169 108.884 438.137 109.68 441.25 109.68C444.435 109.68 447.404 108.884 450.155 107.291C452.907 105.699 455.114 103.382 456.78 100.342C458.517 97.2287 459.385 93.6093 459.385 89.4835ZM502.579 69.7211V102.839C502.579 105.084 503.085 106.712 504.098 107.725C505.184 108.666 506.994 109.137 509.528 109.137H517.13V119.453H507.356C501.782 119.453 497.511 118.15 494.542 115.543C491.574 112.938 490.09 108.703 490.09 102.839V69.7211H483.031V59.6228H490.09V44.7467H502.579V59.6228H517.13V69.7211H502.579ZM534.838 51.6961C532.595 51.6961 530.712 50.936 529.192 49.4158C527.672 47.8956 526.912 46.0135 526.912 43.7695C526.912 41.5254 527.672 39.6433 529.192 38.1231C530.712 36.6029 532.595 35.8428 534.838 35.8428C537.01 35.8428 538.857 36.6029 540.377 38.1231C541.898 39.6433 542.658 41.5254 542.658 43.7695C542.658 46.0135 541.898 47.8956 540.377 49.4158C538.857 50.936 537.01 51.6961 534.838 51.6961ZM540.92 59.6228V119.453H528.54V59.6228H540.92ZM583.128 120.43C577.482 120.43 572.377 119.163 567.816 116.629C563.256 114.024 559.672 110.404 557.065 105.771C554.459 101.066 553.156 95.6363 553.156 89.4835C553.156 83.4027 554.495 78.0097 557.174 73.3044C559.852 68.599 563.509 64.9796 568.142 62.4459C572.776 59.9123 577.952 58.6455 583.671 58.6455C589.39 58.6455 594.567 59.9123 599.201 62.4459C603.834 64.9796 607.49 68.599 610.169 73.3044C612.847 78.0097 614.187 83.4027 614.187 89.4835C614.187 95.5645 612.811 100.957 610.06 105.662C607.309 110.367 603.545 114.024 598.766 116.629C594.06 119.163 588.848 120.43 583.128 120.43ZM583.128 109.68C586.314 109.68 589.283 108.92 592.033 107.4C594.857 105.879 597.138 103.599 598.875 100.559C600.612 97.5188 601.481 93.8266 601.481 89.4835C601.481 85.14 600.649 81.4844 598.983 78.5164C597.318 75.4761 595.11 73.1958 592.359 71.6756C589.608 70.1555 586.64 69.3954 583.454 69.3954C580.269 69.3954 577.3 70.1555 574.549 71.6756C571.87 73.1958 569.734 75.4761 568.142 78.5164C566.549 81.4844 565.753 85.14 565.753 89.4835C565.753 95.9265 567.382 100.921 570.64 104.468C573.971 107.942 578.133 109.68 583.128 109.68ZM656.614 58.6455C661.32 58.6455 665.519 59.6228 669.212 61.5773C672.976 63.5318 675.908 66.4273 678.008 70.2641C680.107 74.1007 681.157 78.7336 681.157 84.1628V119.453H668.886V86.0088C668.886 80.6519 667.547 76.5619 664.868 73.7387C662.19 70.8432 658.533 69.3954 653.9 69.3954C649.266 69.3954 645.574 70.8432 642.823 73.7387C640.145 76.5619 638.805 80.6519 638.805 86.0088V119.453H626.425V59.6228H638.805V66.4635C640.832 64.0023 643.402 62.084 646.516 60.7086C649.701 59.3332 653.067 58.6455 656.614 58.6455Z" fill="white"/>
<path d="M106.735 49.501L84.3176 125.123H70.2798L54.392 67.8896L37.5248 125.123L23.5958 125.232L2.1582 49.501H15.3255L30.9957 111.086L47.9716 49.501H61.9006L77.6795 110.76L93.4582 49.501H106.735Z" fill="white"/>
<path d="M149.716 42.3057L117.582 62.3286V102.374L149.716 122.397L181.841 102.374V62.3286L149.716 42.3057Z" stroke="white" stroke-width="6.97091" stroke-miterlimit="10"/>
<path d="M149.885 44.0098L149.953 84.3369L118.161 102.136L149.885 84.4818L180.563 101.522" stroke="white" stroke-width="6.97091" stroke-miterlimit="10"/>
</svg>
