<svg width="45" height="21" viewBox="0 0 45 21" fill="none" xmlns="http://www.w3.org/2000/svg">
<path d="M41.1571 0.529297C39.2197 0.529297 37.5661 2.04151 37.3769 3.93139H26.3674V0.529297H18.807V3.93139H8.3172C8.12834 2.04151 6.52157 0.529297 4.53702 0.529297C2.45788 0.529297 0.756836 2.23034 0.756836 4.30948C0.756836 6.38862 2.45788 8.08967 4.53702 8.08967C6.09631 8.08967 7.41935 7.14473 7.98628 5.82169H14.696C9.45141 8.6566 5.85997 14.2797 5.85997 20.5641H7.74985C7.74985 13.8073 12.3804 7.90074 18.8066 6.24695V8.08975H26.367V6.24695C32.7461 7.948 37.4238 13.8073 37.4238 20.5641H39.3137C39.314 14.2797 35.723 8.65676 30.4313 5.82169H37.7078C38.2747 7.14473 39.6452 8.08967 41.1571 8.08967C43.2362 8.08967 44.9373 6.38862 44.9373 4.30948C44.9373 2.23068 43.2362 0.529635 41.1571 0.529635V0.529297ZM4.58461 6.19936C3.54508 6.19936 2.69473 5.34901 2.69473 4.30948C2.69473 3.26995 3.54508 2.4196 4.58461 2.4196C5.48247 2.4196 6.23857 3.0811 6.42741 3.93181L6.33281 3.93148V4.97101C6.04936 5.67964 5.38787 6.19946 4.5846 6.19946L4.58461 6.19936ZM24.4774 6.19936H20.6972V2.41918H24.4774V6.19936ZM41.1571 6.19936C40.3538 6.19936 39.6449 5.67958 39.4089 4.97092V3.93139H39.3143C39.5031 3.08103 40.2592 2.41918 41.1571 2.41918C42.1966 2.41918 43.047 3.26953 43.047 4.30906C43.0473 5.34892 42.1966 6.19928 41.1571 6.19928L41.1571 6.19936Z" fill="white"/>
</svg>
