<svg width="197" height="71" viewBox="0 0 197 71" fill="none" xmlns="http://www.w3.org/2000/svg">
<path d="M30.8854 11.2882C31.1285 10.9548 31.2413 10.6004 31.2238 10.2254C31.2067 9.83638 31.059 9.48198 30.781 9.1625C30.5031 8.85694 30.1473 8.63454 29.7132 8.49558L3.32559 0.139072C2.8741 0.000104656 2.41388 -0.0347785 1.94493 0.0347053C1.45854 0.118144 1.05063 0.291704 0.7207 0.555684C0.373281 0.833619 0.147683 1.16708 0.0433085 1.55604C-0.0433303 1.93108 -9.41574e-06 2.29942 0.173553 2.66051L10.6192 23.7914C10.7927 24.1386 11.0707 24.4235 11.4527 24.6456C11.8521 24.868 12.2862 24.986 12.7551 25L12.8592 25C13.3281 25 13.7625 24.9026 14.1616 24.7081C14.544 24.5136 14.839 24.2566 15.0475 23.9371L19.9447 15.9766L29.8954 12.0378C30.3121 11.8712 30.642 11.6209 30.8854 11.2878L30.8854 11.2882Z" fill="#D44B2D"/>
<rect x="31" y="24" width="164" height="43" fill="#D44B2D"/>
<path d="M75.3755 49.816L79.2795 49.816L79.2795 51L73.9195 51L73.9195 39.848L75.3755 39.848L75.3755 49.816ZM88.6018 42.232L88.6018 51L87.1458 51L87.1458 49.704C86.8684 50.152 86.4791 50.504 85.9778 50.76C85.4871 51.0053 84.9431 51.128 84.3458 51.128C83.6631 51.128 83.0498 50.9893 82.5058 50.712C81.9618 50.424 81.5298 49.9973 81.2098 49.432C80.9004 48.8667 80.7458 48.1787 80.7458 47.368L80.7458 42.232L82.1858 42.232L82.1858 47.176C82.1858 48.04 82.4044 48.7067 82.8418 49.176C83.2791 49.6347 83.8764 49.864 84.6338 49.864C85.4124 49.864 86.0258 49.624 86.4738 49.144C86.9218 48.664 87.1458 47.9653 87.1458 47.048L87.1458 42.232L88.6018 42.232ZM90.5161 46.6C90.5161 45.6933 90.6975 44.904 91.0601 44.232C91.4228 43.5493 91.9241 43.0213 92.5641 42.648C93.2148 42.2747 93.9561 42.088 94.7881 42.088C95.8655 42.088 96.7508 42.3493 97.4441 42.872C98.1481 43.3947 98.6121 44.12 98.8361 45.048L97.2681 45.048C97.1188 44.5147 96.8255 44.0933 96.3881 43.784C95.9615 43.4747 95.4281 43.32 94.7881 43.32C93.9561 43.32 93.2841 43.608 92.7721 44.184C92.2601 44.7493 92.0041 45.5547 92.0041 46.6C92.0041 47.656 92.2601 48.472 92.7721 49.048C93.2841 49.624 93.9561 49.912 94.7881 49.912C95.4281 49.912 95.9615 49.7627 96.3881 49.464C96.8148 49.1653 97.1081 48.7387 97.2681 48.184L98.8361 48.184C98.6015 49.08 98.1321 49.8 97.4281 50.344C96.7241 50.8773 95.8441 51.144 94.7881 51.144C93.9561 51.144 93.2148 50.9573 92.5641 50.584C91.9241 50.2107 91.4228 49.6827 91.0601 49C90.6975 48.3173 90.5161 47.5173 90.5161 46.6ZM100.235 46.584C100.235 45.688 100.416 44.904 100.779 44.232C101.142 43.5493 101.638 43.0213 102.267 42.648C102.907 42.2747 103.616 42.088 104.395 42.088C105.163 42.088 105.83 42.2533 106.395 42.584C106.96 42.9147 107.382 43.3307 107.659 43.832L107.659 42.232L109.131 42.232L109.131 51L107.659 51L107.659 49.368C107.371 49.88 106.939 50.3067 106.363 50.648C105.798 50.9787 105.136 51.144 104.379 51.144C103.6 51.144 102.896 50.952 102.267 50.568C101.638 50.184 101.142 49.6453 100.779 48.952C100.416 48.2587 100.235 47.4693 100.235 46.584ZM107.659 46.6C107.659 45.9387 107.526 45.3627 107.259 44.872C106.992 44.3813 106.63 44.008 106.171 43.752C105.723 43.4853 105.227 43.352 104.683 43.352C104.139 43.352 103.643 43.48 103.195 43.736C102.747 43.992 102.39 44.3653 102.123 44.856C101.856 45.3467 101.723 45.9227 101.723 46.584C101.723 47.256 101.856 47.8427 102.123 48.344C102.39 48.8347 102.747 49.2133 103.195 49.48C103.643 49.736 104.139 49.864 104.683 49.864C105.227 49.864 105.723 49.736 106.171 49.48C106.63 49.2133 106.992 48.8347 107.259 48.344C107.526 47.8427 107.659 47.2613 107.659 46.6ZM114.695 51.144C114.023 51.144 113.421 51.032 112.887 50.808C112.354 50.5733 111.933 50.2533 111.623 49.848C111.314 49.432 111.143 48.9573 111.111 48.424L112.615 48.424C112.658 48.8613 112.861 49.2187 113.223 49.496C113.597 49.7733 114.082 49.912 114.679 49.912C115.234 49.912 115.671 49.7893 115.991 49.544C116.311 49.2987 116.471 48.9893 116.471 48.616C116.471 48.232 116.301 47.9493 115.959 47.768C115.618 47.576 115.09 47.3893 114.375 47.208C113.725 47.0373 113.191 46.8667 112.775 46.696C112.37 46.5147 112.018 46.2533 111.719 45.912C111.431 45.56 111.287 45.1013 111.287 44.536C111.287 44.088 111.421 43.6773 111.687 43.304C111.954 42.9307 112.333 42.6373 112.823 42.424C113.314 42.2 113.874 42.088 114.503 42.088C115.474 42.088 116.258 42.3333 116.855 42.824C117.453 43.3147 117.773 43.9867 117.815 44.84L116.359 44.84C116.327 44.3813 116.141 44.0133 115.799 43.736C115.469 43.4587 115.021 43.32 114.455 43.32C113.933 43.32 113.517 43.432 113.207 43.656C112.898 43.88 112.743 44.1733 112.743 44.536C112.743 44.824 112.834 45.064 113.015 45.256C113.207 45.4373 113.442 45.5867 113.719 45.704C114.007 45.8107 114.402 45.9333 114.903 46.072C115.533 46.2427 116.045 46.4133 116.439 46.584C116.834 46.744 117.17 46.9893 117.447 47.32C117.735 47.6507 117.885 48.0827 117.895 48.616C117.895 49.096 117.762 49.528 117.495 49.912C117.229 50.296 116.85 50.6 116.359 50.824C115.879 51.0373 115.325 51.144 114.695 51.144ZM127.688 39.848C128.904 39.848 129.955 40.0773 130.84 40.536C131.736 40.984 132.419 41.6293 132.888 42.472C133.368 43.3147 133.608 44.3067 133.608 45.448C133.608 46.5893 133.368 47.5813 132.888 48.424C132.419 49.256 131.736 49.896 130.84 50.344C129.955 50.7813 128.904 51 127.688 51L124.216 51L124.216 39.848L127.688 39.848ZM127.688 49.8C129.128 49.8 130.227 49.4213 130.984 48.664C131.742 47.896 132.12 46.824 132.12 45.448C132.12 44.0613 131.736 42.9787 130.968 42.2C130.211 41.4213 129.118 41.032 127.688 41.032L125.672 41.032L125.672 49.8L127.688 49.8ZM136.985 41.032L136.985 44.76L141.049 44.76L141.049 45.96L136.985 45.96L136.985 49.8L141.529 49.8L141.529 51L135.529 51L135.529 39.832L141.529 39.832L141.529 41.032L136.985 41.032ZM152.948 39.848L148.74 51L147.06 51L142.852 39.848L144.404 39.848L147.908 49.464L151.412 39.848L152.948 39.848Z" fill="white"/>
</svg>
