<svg width="197" height="71" viewBox="0 0 197 71" fill="none" xmlns="http://www.w3.org/2000/svg">
<path d="M30.8854 11.2882C31.1285 10.9548 31.2413 10.6004 31.2238 10.2254C31.2067 9.83638 31.059 9.48198 30.781 9.1625C30.5031 8.85694 30.1473 8.63454 29.7132 8.49558L3.32559 0.139072C2.8741 0.000104656 2.41388 -0.0347785 1.94493 0.0347053C1.45854 0.118144 1.05063 0.291704 0.7207 0.555684C0.373281 0.833619 0.147683 1.16708 0.0433085 1.55604C-0.0433303 1.93108 -9.41574e-06 2.29942 0.173553 2.66051L10.6192 23.7914C10.7927 24.1386 11.0707 24.4235 11.4527 24.6456C11.8521 24.868 12.2862 24.986 12.7551 25L12.8592 25C13.3281 25 13.7625 24.9026 14.1616 24.7081C14.544 24.5136 14.839 24.2566 15.0475 23.9371L19.9447 15.9766L29.8954 12.0378C30.3121 11.8712 30.642 11.6209 30.8854 11.2878L30.8854 11.2882Z" fill="#D42DA5"/>
<rect x="31" y="24" width="164" height="43" fill="#D42DA5"/>
<path d="M74.0391 51L72.5831 51L66.7271 42.12L66.7271 51L65.2711 51L65.2711 39.832L66.7271 39.832L72.5831 48.696L72.5831 39.832L74.0391 39.832L74.0391 51ZM84.0731 42.232L78.7931 55.128L77.2891 55.128L79.0171 50.904L75.4811 42.232L77.0971 42.232L79.8491 49.336L82.5691 42.232L84.0731 42.232ZM84.9927 46.6C84.9927 45.6933 85.174 44.904 85.5367 44.232C85.8994 43.5493 86.4007 43.0213 87.0407 42.648C87.6914 42.2747 88.4327 42.088 89.2647 42.088C90.342 42.088 91.2274 42.3493 91.9207 42.872C92.6247 43.3947 93.0887 44.12 93.3127 45.048L91.7447 45.048C91.5954 44.5147 91.302 44.0933 90.8647 43.784C90.438 43.4747 89.9047 43.32 89.2647 43.32C88.4327 43.32 87.7607 43.608 87.2487 44.184C86.7367 44.7493 86.4807 45.5547 86.4807 46.6C86.4807 47.656 86.7367 48.472 87.2487 49.048C87.7607 49.624 88.4327 49.912 89.2647 49.912C89.9047 49.912 90.438 49.7627 90.8647 49.464C91.2914 49.1653 91.5847 48.7387 91.7447 48.184L93.3127 48.184C93.078 49.08 92.6087 49.8 91.9047 50.344C91.2007 50.8773 90.3207 51.144 89.2647 51.144C88.4327 51.144 87.6914 50.9573 87.0407 50.584C86.4007 50.2107 85.8994 49.6827 85.5367 49C85.174 48.3173 84.9927 47.5173 84.9927 46.6ZM99.0794 51.144C98.2581 51.144 97.5114 50.9573 96.8394 50.584C96.1781 50.2107 95.6554 49.6827 95.2714 49C94.8981 48.3067 94.7114 47.5067 94.7114 46.6C94.7114 45.704 94.9034 44.9147 95.2874 44.232C95.6821 43.5387 96.2154 43.0107 96.8874 42.648C97.5594 42.2747 98.3114 42.088 99.1434 42.088C99.9754 42.088 100.727 42.2747 101.399 42.648C102.071 43.0107 102.599 43.5333 102.983 44.216C103.378 44.8987 103.575 45.6933 103.575 46.6C103.575 47.5067 103.373 48.3067 102.967 49C102.573 49.6827 102.034 50.2107 101.351 50.584C100.669 50.9573 99.9114 51.144 99.0794 51.144ZM99.0794 49.864C99.6021 49.864 100.093 49.7413 100.551 49.496C101.01 49.2507 101.378 48.8827 101.655 48.392C101.943 47.9013 102.087 47.304 102.087 46.6C102.087 45.896 101.949 45.2987 101.671 44.808C101.394 44.3173 101.031 43.9547 100.583 43.72C100.135 43.4747 99.6501 43.352 99.1274 43.352C98.5941 43.352 98.1034 43.4747 97.6554 43.72C97.2181 43.9547 96.8661 44.3173 96.5994 44.808C96.3328 45.2987 96.1994 45.896 96.1994 46.6C96.1994 47.3147 96.3274 47.9173 96.5834 48.408C96.8501 48.8987 97.2021 49.2667 97.6394 49.512C98.0768 49.7467 98.5568 49.864 99.0794 49.864ZM106.946 39.16L106.946 51L105.49 51L105.49 39.16L106.946 39.16ZM108.883 46.584C108.883 45.688 109.065 44.904 109.427 44.232C109.79 43.5493 110.286 43.0213 110.915 42.648C111.555 42.2747 112.265 42.088 113.043 42.088C113.811 42.088 114.478 42.2533 115.043 42.584C115.609 42.9147 116.03 43.3307 116.307 43.832L116.307 42.232L117.779 42.232L117.779 51L116.307 51L116.307 49.368C116.019 49.88 115.587 50.3067 115.011 50.648C114.446 50.9787 113.785 51.144 113.027 51.144C112.249 51.144 111.545 50.952 110.915 50.568C110.286 50.184 109.79 49.6453 109.427 48.952C109.065 48.2587 108.883 47.4693 108.883 46.584ZM116.307 46.6C116.307 45.9387 116.174 45.3627 115.907 44.872C115.641 44.3813 115.278 44.008 114.819 43.752C114.371 43.4853 113.875 43.352 113.331 43.352C112.787 43.352 112.291 43.48 111.843 43.736C111.395 43.992 111.038 44.3653 110.771 44.856C110.505 45.3467 110.371 45.9227 110.371 46.584C110.371 47.256 110.505 47.8427 110.771 48.344C111.038 48.8347 111.395 49.2133 111.843 49.48C112.291 49.736 112.787 49.864 113.331 49.864C113.875 49.864 114.371 49.736 114.819 49.48C115.278 49.2133 115.641 48.8347 115.907 48.344C116.174 47.8427 116.307 47.2613 116.307 46.6ZM123.344 51.144C122.672 51.144 122.069 51.032 121.536 50.808C121.002 50.5733 120.581 50.2533 120.272 49.848C119.962 49.432 119.792 48.9573 119.76 48.424L121.264 48.424C121.306 48.8613 121.509 49.2187 121.872 49.496C122.245 49.7733 122.73 49.912 123.328 49.912C123.882 49.912 124.32 49.7893 124.64 49.544C124.96 49.2987 125.12 48.9893 125.12 48.616C125.12 48.232 124.949 47.9493 124.608 47.768C124.266 47.576 123.738 47.3893 123.024 47.208C122.373 47.0373 121.84 46.8667 121.424 46.696C121.018 46.5147 120.666 46.2533 120.368 45.912C120.08 45.56 119.936 45.1013 119.936 44.536C119.936 44.088 120.069 43.6773 120.336 43.304C120.602 42.9307 120.981 42.6373 121.472 42.424C121.962 42.2 122.522 42.088 123.152 42.088C124.122 42.088 124.906 42.3333 125.504 42.824C126.101 43.3147 126.421 43.9867 126.464 44.84L125.008 44.84C124.976 44.3813 124.789 44.0133 124.448 43.736C124.117 43.4587 123.669 43.32 123.104 43.32C122.581 43.32 122.165 43.432 121.856 43.656C121.546 43.88 121.392 44.1733 121.392 44.536C121.392 44.824 121.482 45.064 121.664 45.256C121.856 45.4373 122.09 45.5867 122.368 45.704C122.656 45.8107 123.05 45.9333 123.552 46.072C124.181 46.2427 124.693 46.4133 125.088 46.584C125.482 46.744 125.818 46.9893 126.096 47.32C126.384 47.6507 126.533 48.0827 126.544 48.616C126.544 49.096 126.41 49.528 126.144 49.912C125.877 50.296 125.498 50.6 125.008 50.824C124.528 51.0373 123.973 51.144 123.344 51.144ZM136.337 39.848C137.553 39.848 138.603 40.0773 139.489 40.536C140.385 40.984 141.067 41.6293 141.537 42.472C142.017 43.3147 142.257 44.3067 142.257 45.448C142.257 46.5893 142.017 47.5813 141.537 48.424C141.067 49.256 140.385 49.896 139.489 50.344C138.603 50.7813 137.553 51 136.337 51L132.865 51L132.865 39.848L136.337 39.848ZM136.337 49.8C137.777 49.8 138.875 49.4213 139.633 48.664C140.39 47.896 140.769 46.824 140.769 45.448C140.769 44.0613 140.385 42.9787 139.617 42.2C138.859 41.4213 137.766 41.032 136.337 41.032L134.321 41.032L134.321 49.8L136.337 49.8ZM145.633 41.032L145.633 44.76L149.697 44.76L149.697 45.96L145.633 45.96L145.633 49.8L150.177 49.8L150.177 51L144.177 51L144.177 39.832L150.177 39.832L150.177 41.032L145.633 41.032ZM161.596 39.848L157.388 51L155.708 51L151.5 39.848L153.052 39.848L156.556 49.464L160.06 39.848L161.596 39.848Z" fill="white"/>
</svg>
