<svg width="85" height="85" viewBox="0 0 85 85" fill="none" xmlns="http://www.w3.org/2000/svg">
<path fill-rule="evenodd" clip-rule="evenodd" d="M42.5067 0C19.0517 0 0 19.04 0 42.4933C0 65.9483 19.0517 85 42.5067 85C65.9617 85 85 65.9483 85 42.4933C85 19.0383 65.96 0 42.5067 0ZM42.5067 12.9947C47.9631 12.9947 53.3182 14.5073 57.966 17.3658C58.2977 17.5706 58.5339 17.8984 58.6228 18.2778C58.7125 18.6566 58.6471 19.0557 58.441 19.3868C58.4161 19.4214 58.3893 19.4548 58.3612 19.4869C58.333 19.5248 58.3036 19.5608 58.2722 19.5955C58.2375 19.636 58.2002 19.674 58.161 19.71L19.6689 58.2137C19.6519 58.2274 19.6349 58.2405 19.6173 58.2536C19.5466 58.3204 19.47 58.3792 19.3883 58.4309C19.3098 58.4748 19.2273 58.5114 19.1423 58.5395C19.1043 58.5578 19.0664 58.5735 19.0278 58.5886C18.9689 58.6017 18.91 58.6115 18.8498 58.6174C18.7818 58.6311 18.7131 58.6396 18.6437 58.6436C18.6097 58.6416 18.575 58.639 18.541 58.635C18.0647 58.6108 17.6303 58.357 17.3758 57.954C14.5186 53.3062 13.0047 47.9504 13.0047 42.4947C13.0047 26.2169 26.229 12.9951 42.506 12.9951L42.5067 12.9947ZM66.3502 26.3473L66.3496 26.348C66.3646 26.3493 66.379 26.3512 66.3934 26.3532C66.506 26.3519 66.6178 26.3637 66.7277 26.3879C66.7415 26.3931 66.7546 26.399 66.7677 26.4049C66.89 26.4376 67.0071 26.4854 67.117 26.5482C67.2256 26.6097 67.3257 26.6843 67.4147 26.7713C67.4167 26.7732 67.4186 26.7752 67.4206 26.7772C67.4939 26.8498 67.5586 26.9303 67.6149 27.0173C67.6227 27.0271 67.63 27.0362 67.6378 27.0461C70.4961 31.6945 72.0055 37.0377 72.0055 42.4941C72.0055 58.7719 58.7839 72.0071 42.5059 72.0071C37.0502 72.0071 31.7057 70.4938 27.0579 67.636C26.7236 67.4339 26.4834 67.1061 26.3918 66.726C26.2996 66.3458 26.3637 65.9454 26.5685 65.6124C26.6248 65.5287 26.6889 65.4508 26.7602 65.3802C26.7726 65.3638 26.7851 65.3475 26.7975 65.3318L65.3113 26.818C65.325 26.8036 65.3394 26.7892 65.3538 26.7748C65.4356 26.6917 65.5265 26.6191 65.626 26.5576C65.6371 26.5523 65.6489 26.5478 65.66 26.5432C65.87 26.4208 66.1075 26.3535 66.3502 26.3456L66.3502 26.3473Z" fill="url(#paint0_linear_1341_3538)"/>
<defs>
<linearGradient id="paint0_linear_1341_3538" x1="8.19291" y1="-3.30556" x2="106.097" y2="71.3672" gradientUnits="userSpaceOnUse">
<stop offset="0.00662644" stop-color="#782DD4"/>
<stop offset="1" stop-color="#371D58" stop-opacity="0.9"/>
</linearGradient>
</defs>
</svg>
