<svg width="78" height="78" viewBox="0 0 78 78" fill="none" xmlns="http://www.w3.org/2000/svg">
<g filter="url(#filter0_d_11_141)">
<rect x="13" y="9.5" width="52" height="52" rx="6.70968" fill="#782DD4"/>
</g>
<path fill-rule="evenodd" clip-rule="evenodd" d="M39.4726 23.5C32.5865 23.5 27 29.0865 27 35.9726C27 41.339 30.4378 46.1079 35.5317 47.8059C36.1553 47.9212 36.3807 47.5334 36.3807 47.2085V44.8869C32.9114 45.6363 32.1882 43.4143 32.1882 43.4143C31.6222 41.9731 30.8047 41.5853 30.8047 41.5853C29.6727 40.8149 30.8885 40.8307 30.8885 40.8307C31.6903 40.9407 32.3978 41.4124 32.8013 42.1146C33.9123 44.0222 35.7204 43.4719 36.4331 43.1627C36.4855 42.5286 36.7685 41.9364 37.2244 41.4962C34.4521 41.1818 31.5384 40.1075 31.5384 35.328C31.5226 34.0912 31.9838 32.8912 32.8275 31.9845C32.445 30.9102 32.4869 29.7258 32.9481 28.683C32.9481 28.683 33.9962 28.3476 36.3754 29.9617C38.4193 29.4009 40.5784 29.4009 42.6222 29.9617C45.0067 28.3476 46.0496 28.683 46.0496 28.683C46.5107 29.7258 46.5527 30.9102 46.1701 31.9845C47.0138 32.8912 47.475 34.0912 47.4541 35.328C47.4541 40.1232 44.5403 41.1765 41.7628 41.4857C42.3654 42.0989 42.6694 42.9426 42.6065 43.7968V47.2189C42.6065 47.5491 42.8318 47.9369 43.466 47.8164C50.001 45.6415 53.5331 38.5772 51.3583 32.0422C49.6603 26.9431 44.8862 23.5052 39.5145 23.5105L39.4726 23.5Z" fill="white"/>
<path d="M31.7213 41.4074C31.7213 41.4703 31.6008 41.486 31.5117 41.4441C31.4226 41.4021 31.3702 41.3183 31.3964 41.2554C31.4226 41.1925 31.5222 41.1768 31.6113 41.2187C31.7004 41.2606 31.7528 41.3445 31.7213 41.4074Z" fill="white"/>
<path d="M32.2305 41.9681C32.1728 42.0258 32.0523 41.9996 31.9737 41.9105C31.8951 41.8476 31.8793 41.7375 31.937 41.6537C31.9999 41.596 32.1099 41.6222 32.1938 41.7113C32.2776 41.8004 32.2933 41.9157 32.2305 41.9681Z" fill="white"/>
<path d="M32.7225 42.691C32.6438 42.7434 32.5181 42.691 32.4447 42.581C32.3713 42.4709 32.3661 42.3347 32.4447 42.2823C32.5233 42.2299 32.6438 42.2823 32.7225 42.3871C32.8011 42.4919 32.8011 42.6334 32.7225 42.691Z" fill="white"/>
<path d="M33.394 43.3833C33.3259 43.4566 33.1791 43.4357 33.0743 43.3361C32.9695 43.2365 32.9328 43.0898 33.0062 43.0164C33.0795 42.9431 33.221 42.964 33.3259 43.0636C33.4307 43.1632 33.4674 43.3099 33.394 43.3833Z" fill="white"/>
<path d="M34.3261 43.7866C34.2947 43.8809 34.1532 43.9281 34.0117 43.8862C33.8702 43.8443 33.7811 43.729 33.8073 43.6294C33.8335 43.5298 33.9802 43.4879 34.1217 43.5298C34.2632 43.5718 34.3523 43.687 34.3261 43.7866Z" fill="white"/>
<path d="M35.3431 43.8594C35.3431 43.9642 35.2278 44.0481 35.0811 44.0481C34.9344 44.0481 34.8086 43.9695 34.8086 43.8699C34.8086 43.7703 34.9239 43.6812 35.0759 43.676C35.2278 43.6708 35.3431 43.7599 35.3431 43.8594Z" fill="white"/>
<path d="M36.2966 43.6969C36.2966 43.7965 36.2075 43.9013 36.0607 43.9275C35.914 43.9537 35.783 43.896 35.7673 43.7965C35.7515 43.6969 35.8511 43.5868 35.9978 43.5606C36.1446 43.5344 36.2756 43.5973 36.2966 43.6969Z" fill="white"/>
<defs>
<filter id="filter0_d_11_141" x="0.419355" y="0.274194" width="77.1613" height="77.1613" filterUnits="userSpaceOnUse" color-interpolation-filters="sRGB">
<feFlood flood-opacity="0" result="BackgroundImageFix"/>
<feColorMatrix in="SourceAlpha" type="matrix" values="0 0 0 0 0 0 0 0 0 0 0 0 0 0 0 0 0 0 127 0" result="hardAlpha"/>
<feOffset dy="3.35484"/>
<feGaussianBlur stdDeviation="6.29032"/>
<feComposite in2="hardAlpha" operator="out"/>
<feColorMatrix type="matrix" values="0 0 0 0 0 0 0 0 0 0 0 0 0 0 0 0 0 0 0.15 0"/>
<feBlend mode="normal" in2="BackgroundImageFix" result="effect1_dropShadow_11_141"/>
<feBlend mode="normal" in="SourceGraphic" in2="effect1_dropShadow_11_141" result="shape"/>
</filter>
</defs>
</svg>
