<svg width="101" height="102" viewBox="0 0 101 102" fill="none" xmlns="http://www.w3.org/2000/svg">
<path d="M90.4963 89.9619C90.2581 89.6216 89.8692 89.4187 89.4529 89.4187L12.8227 89.418C12.4458 89.418 12.0893 89.5835 11.8469 89.8717L4.19022 98.9601C3.87038 99.3405 3.79921 99.871 4.00846 100.321C4.21841 100.771 4.66931 101.059 5.16599 101.059H95.8316C96.3092 101.059 96.7446 100.793 96.9658 100.371C97.1849 99.9478 97.1518 99.4377 96.8771 99.0488L90.4963 89.9619ZM88.0726 91.0264L88.8011 92.2811H85.785L85.158 91.0264H88.0726ZM55.6264 91.0264H58.7179L58.7714 92.2811H55.582L55.6264 91.0264ZM55.5038 94.346H58.8573L58.913 95.5994H55.4588L55.5038 94.346ZM49.7443 91.0264H52.8266L52.7455 92.2811H49.5619L49.7443 91.0264ZM49.2652 94.346H52.6124L52.5293 95.5994H49.0841L49.2652 94.346ZM43.8671 91.0264H46.9296L46.7133 92.2811H43.5522L43.8671 91.0264ZM43.0315 94.346H46.3575L46.1412 95.5994H42.7152L43.0315 94.346ZM37.9956 91.0264H41.0222L40.672 92.2811H37.5461L37.9956 91.0264ZM36.8036 94.346H40.0944L39.7449 95.5994H36.354L36.8036 94.346ZM32.1305 91.0264H35.11L34.6253 92.2811H31.5466L32.1305 91.0264ZM30.5834 94.346H33.8257L33.3416 95.5994H29.9987L30.5834 94.346ZM26.2718 91.0264H29.1919L28.5726 92.2811H25.5531L26.2718 91.0264ZM20.4179 91.0264H23.2684L22.5139 92.2811H19.5634L20.4179 91.0264ZM14.5669 91.0264H17.3392L16.4515 92.2811H13.5791L14.5669 91.0264ZM11.8214 98.8135H8.42902L9.41676 97.5608H12.7083L11.8214 98.8135ZM14.0991 95.5995H10.9632L11.951 94.3462H14.9882L14.0991 95.5995ZM18.5855 98.8135H15.115L15.9682 97.5608H19.3387L18.5855 98.8135ZM20.5187 95.5995H17.304L18.1572 94.3462H21.272L20.5187 95.5995ZM25.3454 98.8135H21.8067L22.5246 97.5608H25.9647L25.3454 98.8135ZM26.9334 95.5995H23.6497L24.3676 94.3462H27.5512L26.9334 95.5995ZM28.501 98.8135L29.085 97.5608H58.9991L59.0526 98.8135H28.501ZM61.519 91.0264H64.6027L64.7908 92.2811H61.6092L61.519 91.0264ZM61.7543 94.346H68.0091L67.4215 91.0264H70.4806L71.6818 95.5993H61.8417L61.7543 94.346ZM62.0671 98.8135L61.9783 97.5608H65.5819L65.77 98.8135H62.0671ZM68.8038 98.8135L68.5805 97.5608H72.1609L72.4822 98.8135H68.8038ZM73.3254 91.0264H76.3512L76.8085 92.2811H73.6818L73.3254 91.0264ZM74.2722 94.346H77.5609L78.0167 95.5994H74.6294L74.2722 94.346ZM75.5467 98.8135L75.1895 97.5608H78.7346L79.1904 98.8135H75.5467ZM79.2392 91.0264H82.2136L82.8054 92.2811H79.7301L79.2392 91.0264ZM80.5411 94.346H83.7805L84.3723 95.5994H81.0321L80.5411 94.346ZM82.2947 98.8135L81.8036 97.5608H85.2995L85.8892 98.8135H82.2947ZM86.8162 94.346H89.9958L90.7242 95.5994H87.4419L86.8162 94.346ZM89.0496 98.8135L88.4247 97.5608H91.8585L92.5849 98.8135H89.0496Z" fill="url(#paint0_linear_1341_3531)"/>
<path d="M33.6657 85.42C32.4377 86.648 34.3674 87.3504 34.3674 87.3504H66.296C66.296 87.3504 68.2249 86.6487 66.9977 85.42C65.7683 84.1921 62.4345 83.3142 62.0859 78.0508C62.0584 77.638 62.0746 75.9874 62.0795 73.8398L38.5826 73.8405C38.5875 75.9879 38.6051 77.638 38.5777 78.0515C38.2268 83.3143 34.8928 84.1922 33.6657 85.42Z" fill="url(#paint1_linear_1341_3531)"/>
<path d="M96.9597 0H4.03964C1.81764 0 0 1.81764 0 4.03964V68.6003C0 70.8223 1.81764 72.6399 4.03964 72.6399H96.9597C99.1817 72.6399 100.999 70.8223 100.999 68.6003L101 4.03964C101 1.81764 99.1824 0 96.9604 0L96.9597 0ZM51.1219 69.9822C49.4261 69.9822 48.0517 68.6084 48.0517 66.9125C48.0517 65.2167 49.4262 63.8423 51.1219 63.8423C52.8177 63.8423 54.1921 65.2168 54.1921 66.9125C54.1921 68.6082 52.8176 69.9822 51.1219 69.9822ZM95.598 56.8246H5.59432V5.59414H95.598V56.8246Z" fill="url(#paint2_linear_1341_3531)"/>
<defs>
<linearGradient id="paint0_linear_1341_3531" x1="12.8748" y1="88.9653" x2="17.3085" y2="116.045" gradientUnits="userSpaceOnUse">
<stop offset="0.00662644" stop-color="#782DD4"/>
<stop offset="1" stop-color="#371D58" stop-opacity="0.9"/>
</linearGradient>
<linearGradient id="paint1_linear_1341_3531" x1="36.5484" y1="73.3144" x2="49.7391" y2="98.7441" gradientUnits="userSpaceOnUse">
<stop offset="0.00662644" stop-color="#782DD4"/>
<stop offset="1" stop-color="#371D58" stop-opacity="0.9"/>
</linearGradient>
<linearGradient id="paint2_linear_1341_3531" x1="9.7351" y1="-2.82489" x2="96.3412" y2="89.0204" gradientUnits="userSpaceOnUse">
<stop offset="0.00662644" stop-color="#782DD4"/>
<stop offset="1" stop-color="#371D58" stop-opacity="0.9"/>
</linearGradient>
</defs>
</svg>
