<svg width="78" height="78" viewBox="0 0 78 78" fill="none" xmlns="http://www.w3.org/2000/svg">
<g filter="url(#filter0_d_11_123)">
<rect x="13" y="9.5" width="52" height="52" rx="6.70968" fill="#782DD4"/>
</g>
<path d="M39.5 24.7494C42.8295 24.7494 43.228 24.7494 44.544 24.8228C45.3358 24.828 46.1223 24.9748 46.8616 25.2527C47.9469 25.6722 48.8068 26.5321 49.2263 27.6174C49.5042 28.3568 49.651 29.1432 49.6562 29.935C49.7192 31.251 49.7297 31.6495 49.7297 34.979C49.7297 38.3085 49.7297 38.707 49.6562 40.0231C49.651 40.8148 49.5042 41.6013 49.2263 42.3406C48.8068 43.426 47.9469 44.2859 46.8616 44.7053C46.1223 44.9832 45.3358 45.13 44.544 45.1353C43.228 45.1982 42.8347 45.2087 39.5 45.2087C36.1653 45.2087 35.772 45.2087 34.456 45.1353C33.6642 45.13 32.8777 44.9832 32.1384 44.7053C31.0531 44.2859 30.1932 43.426 29.7737 42.3406C29.4958 41.6013 29.349 40.8148 29.3437 40.0231C29.2808 38.707 29.2703 38.3085 29.2703 34.979C29.2703 31.6495 29.2703 31.251 29.3437 29.935C29.349 29.1432 29.4958 28.3568 29.7737 27.6174C30.1932 26.5321 31.0531 25.6722 32.1384 25.2527C32.8777 24.9748 33.6642 24.828 34.456 24.8228C35.772 24.7599 36.1705 24.7494 39.5 24.7494ZM39.5 22.5C36.1128 22.5 35.6881 22.5 34.3563 22.5734C33.3182 22.5944 32.2957 22.7936 31.3257 23.1554C29.6374 23.8003 28.3003 25.1374 27.6554 26.8257C27.2936 27.7957 27.0944 28.8182 27.0734 29.8563C27.0157 31.1881 27 31.6128 27 35C27 38.3872 27 38.8119 27.0734 40.1437C27.0944 41.1818 27.2936 42.2043 27.6554 43.1743C28.3003 44.8626 29.6374 46.1997 31.3257 46.8446C32.2957 47.2064 33.3182 47.4056 34.3563 47.4266C35.6881 47.4843 36.1128 47.5 39.5 47.5C42.8872 47.5 43.3119 47.5 44.6437 47.4266C45.6818 47.4056 46.7043 47.2064 47.6743 46.8446C49.3626 46.1997 50.6997 44.8626 51.3446 43.1743C51.7064 42.2043 51.9056 41.1818 51.9266 40.1437C51.9843 38.8119 52 38.3872 52 35C52 31.6128 52 31.1881 51.9266 29.8563C51.9056 28.8182 51.7064 27.7957 51.3446 26.8257C50.6997 25.1374 49.3626 23.8003 47.6743 23.1554C46.7043 22.7936 45.6818 22.5944 44.6437 22.5734C43.3119 22.5157 42.8872 22.5 39.5 22.5Z" fill="white"/>
<path d="M39.5001 28.5645C35.9609 28.5645 33.0928 31.4325 33.0928 34.9718C33.0928 38.511 35.9609 41.3791 39.5001 41.3791C43.0393 41.3791 45.9074 38.511 45.9074 34.9718C45.9074 31.4325 43.0393 28.5645 39.5001 28.5645ZM39.5001 39.1297C37.2035 39.1297 35.3421 37.2683 35.3421 34.9718C35.3421 32.6752 37.2035 30.8138 39.5001 30.8138C41.7966 30.8138 43.658 32.6752 43.658 34.9718C43.658 37.2683 41.7966 39.1297 39.5001 39.1297Z" fill="white"/>
<path d="M46.1588 29.8136C46.987 29.8136 47.6583 29.1422 47.6583 28.314C47.6583 27.4858 46.987 26.8145 46.1588 26.8145C45.3306 26.8145 44.6592 27.4858 44.6592 28.314C44.6592 29.1422 45.3306 29.8136 46.1588 29.8136Z" fill="white"/>
<defs>
<filter id="filter0_d_11_123" x="0.419355" y="0.274194" width="77.1613" height="77.1613" filterUnits="userSpaceOnUse" color-interpolation-filters="sRGB">
<feFlood flood-opacity="0" result="BackgroundImageFix"/>
<feColorMatrix in="SourceAlpha" type="matrix" values="0 0 0 0 0 0 0 0 0 0 0 0 0 0 0 0 0 0 127 0" result="hardAlpha"/>
<feOffset dy="3.35484"/>
<feGaussianBlur stdDeviation="6.29032"/>
<feComposite in2="hardAlpha" operator="out"/>
<feColorMatrix type="matrix" values="0 0 0 0 0 0 0 0 0 0 0 0 0 0 0 0 0 0 0.15 0"/>
<feBlend mode="normal" in2="BackgroundImageFix" result="effect1_dropShadow_11_123"/>
<feBlend mode="normal" in="SourceGraphic" in2="effect1_dropShadow_11_123" result="shape"/>
</filter>
</defs>
</svg>
