<svg width="78" height="78" viewBox="0 0 78 78" fill="none" xmlns="http://www.w3.org/2000/svg">
<g filter="url(#filter0_d_11_111)">
<rect x="13" y="9.5" width="52" height="52" rx="6.70968" fill="#782DD4"/>
</g>
<path d="M26.4171 30.933H31.6951V47.906H26.4171V30.933ZM29.0588 22.5C30.7486 22.5 32.1176 23.869 32.1176 25.5588C32.1176 27.2486 30.7486 28.6176 29.0588 28.6176C27.369 28.6176 26 27.2486 26 25.5588C26 23.869 27.369 22.5 29.0588 22.5Z" fill="white"/>
<path d="M35.0049 30.9326H40.0583V33.2534H40.1545C41.1866 31.4887 43.101 30.4406 45.1438 30.5155C50.4913 30.5155 51.4699 34.0288 51.4699 38.5956V47.9056H46.1972V39.6544C46.1972 37.6865 46.1651 35.1518 43.4593 35.1518C40.7535 35.1518 40.2936 37.2908 40.2936 39.51V47.9056H35.0263L35.0049 30.9326Z" fill="white"/>
<defs>
<filter id="filter0_d_11_111" x="0.419355" y="0.274194" width="77.1613" height="77.1613" filterUnits="userSpaceOnUse" color-interpolation-filters="sRGB">
<feFlood flood-opacity="0" result="BackgroundImageFix"/>
<feColorMatrix in="SourceAlpha" type="matrix" values="0 0 0 0 0 0 0 0 0 0 0 0 0 0 0 0 0 0 127 0" result="hardAlpha"/>
<feOffset dy="3.35484"/>
<feGaussianBlur stdDeviation="6.29032"/>
<feComposite in2="hardAlpha" operator="out"/>
<feColorMatrix type="matrix" values="0 0 0 0 0 0 0 0 0 0 0 0 0 0 0 0 0 0 0.15 0"/>
<feBlend mode="normal" in2="BackgroundImageFix" result="effect1_dropShadow_11_111"/>
<feBlend mode="normal" in="SourceGraphic" in2="effect1_dropShadow_11_111" result="shape"/>
</filter>
</defs>
</svg>
