<svg width="137" height="79" viewBox="0 0 137 79" fill="none" xmlns="http://www.w3.org/2000/svg">
<path fill-rule="evenodd" clip-rule="evenodd" d="M75.0567 4.97003C75.0567 5.46445 74.8111 5.7122 74.3156 5.7122H65.4075C64.9099 5.7122 64.6642 5.46446 64.6642 4.97003C64.6642 4.47561 64.9099 4.22891 65.4075 4.22891H74.3156C74.811 4.22785 75.0567 4.47348 75.0567 4.97003ZM117.3 3.63391C116.856 3.18925 116.31 2.96797 115.667 2.96797H20.4899C19.896 2.96797 19.4757 3.16701 19.23 3.56192C18.8319 3.95787 18.634 4.501 18.634 5.19341V70.025H118.041V5.1907C118.041 4.64863 117.795 4.12833 117.3 3.63391ZM119.378 1.48362C120.467 2.57199 121.012 3.80753 121.012 5.19138V69.283H135.117C136.106 69.283 136.602 69.7764 136.602 70.7674V77.5167C136.602 77.9614 136.454 78.3319 136.157 78.6294C135.861 78.8772 135.514 79 135.117 79L1.48541 78.9989C0.494449 78.9989 0 78.5066 0 77.5146V70.7653C0 69.7754 0.494422 69.2809 1.48541 69.2809H15.6649V5.19198C15.6649 3.85797 16.0852 2.64468 16.928 1.5574C17.9179 0.518791 19.1079 0 20.4915 0H115.668C117.054 0 118.291 0.493692 119.378 1.48362ZM62.5858 4.22785C63.0802 4.22785 63.3269 4.47348 63.3269 4.96897C63.3269 5.46339 63.0813 5.71114 62.5858 5.71114L62.2153 5.71009C61.7208 5.71009 61.472 5.46234 61.472 4.96791C61.472 4.47348 61.7208 4.22679 62.2153 4.22679L62.5858 4.22785ZM22.722 7.19433H113.961C114.455 7.19433 114.702 7.43996 114.702 7.93545V64.7579C114.702 65.2524 114.456 65.5001 113.961 65.5001H22.722C22.2276 65.5001 21.9787 65.2524 21.9787 64.7579L21.9777 7.93816C21.9777 7.44268 22.2265 7.19599 22.722 7.19599V7.19433Z" fill="url(#paint0_linear_1341_3439)"/>
<defs>
<linearGradient id="paint0_linear_1341_3439" x1="13.1667" y1="-3.07223" x2="104.017" y2="116.744" gradientUnits="userSpaceOnUse">
<stop offset="0.00662644" stop-color="#782DD4"/>
<stop offset="1" stop-color="#371D58" stop-opacity="0.9"/>
</linearGradient>
</defs>
</svg>
