<svg width="78" height="78" viewBox="0 0 78 78" fill="none" xmlns="http://www.w3.org/2000/svg">
<g filter="url(#filter0_d_813_3039)">
<rect x="13" y="10" width="52" height="52" rx="6.70968" fill="#782DD4"/>
</g>
<path d="M33.6999 28C34.4785 28 35.1891 28.0678 35.8318 28.202C36.4746 28.3361 37.0234 28.5564 37.4813 28.8629C37.9392 29.1694 38.2945 29.5761 38.5472 30.0846C38.8 30.593 38.9257 31.2201 38.9257 31.9672C38.9257 32.7736 38.7379 33.4458 38.3638 33.9839C37.9897 34.522 37.4351 34.9627 36.7028 35.3058C37.711 35.5897 38.4635 36.0868 38.9603 36.7958C39.4572 37.5048 39.7056 38.3607 39.7056 39.362C39.7056 40.1684 39.5453 40.8675 39.2247 41.4578C38.904 42.0482 38.4721 42.5298 37.9291 42.9026C37.386 43.2769 36.7678 43.5523 36.073 43.7316C35.374 43.911 34.6532 44.0014 33.931 44H26V28H33.6999ZM33.2421 34.4754C33.8834 34.4754 34.4106 34.3257 34.8237 34.0277C35.2367 33.7283 35.4433 33.2439 35.4418 32.5716C35.4418 32.1988 35.3725 31.8923 35.2353 31.6536C35.0981 31.4149 34.9147 31.2271 34.685 31.0929C34.4553 30.9588 34.1925 30.8656 33.8949 30.8133C33.5887 30.7611 33.2782 30.7342 32.9662 30.7356H29.5994V34.4782L33.2421 34.4754ZM33.4486 41.2644C33.788 41.2658 34.126 41.2319 34.4568 41.1641C34.7774 41.0963 35.0605 40.9847 35.3046 40.828C35.5487 40.6712 35.7437 40.4579 35.8896 40.1896C36.034 39.9213 36.1077 39.5766 36.1077 39.1586C36.1077 38.3381 35.8708 37.7505 35.3971 37.4003C34.9233 37.0486 34.2965 36.8735 33.5179 36.8735H29.5994V41.2658L33.4486 41.2644ZM44.2323 40.9282C44.7205 41.3915 45.4239 41.6231 46.3411 41.6231C46.9983 41.6231 47.563 41.4621 48.0368 41.1415C48.5105 40.8209 48.8008 40.4805 48.9077 40.1218H51.7719C51.314 41.5115 50.6106 42.5044 49.6631 43.1018C48.7156 43.6992 47.5702 43.9986 46.2255 43.9986C45.2939 43.9986 44.4533 43.8531 43.7051 43.5622C42.9569 43.2712 42.3228 42.856 41.8029 42.3179C41.2829 41.7798 40.8813 41.1387 40.5997 40.3915C40.318 39.6444 40.1765 38.8225 40.1765 37.9271C40.1765 37.0613 40.3209 36.2549 40.6112 35.5078C40.9016 34.7607 41.3147 34.1153 41.8491 33.5701C42.3835 33.025 43.0219 32.5956 43.7629 32.2821C44.5038 31.9686 45.3257 31.8118 46.227 31.8118C47.2351 31.8118 48.1133 32.0025 48.8629 32.3838C49.6111 32.7651 50.2264 33.2764 50.7074 33.919C51.1884 34.5616 51.5365 35.2931 51.7502 36.1151C51.964 36.9371 52.0405 37.7957 51.9799 38.6925H43.4321C43.4769 39.7193 43.7441 40.4664 44.2323 40.9282ZM47.9111 34.8341C47.5211 34.4161 46.9289 34.2071 46.1345 34.2071C45.6145 34.2071 45.1827 34.2932 44.8404 34.4641C44.4966 34.6364 44.2222 34.8483 44.0156 35.1025C43.8091 35.3567 43.6646 35.625 43.5809 35.9089C43.4971 36.1928 43.4465 36.447 43.4321 36.6701H48.7257C48.5712 35.8651 48.2996 35.2522 47.9111 34.8341ZM42.8746 28.8121H49.4883V30.6057H42.8746V28.8121Z" fill="white"/>
<defs>
<filter id="filter0_d_813_3039" x="0.419355" y="0.774194" width="77.1613" height="77.1613" filterUnits="userSpaceOnUse" color-interpolation-filters="sRGB">
<feFlood flood-opacity="0" result="BackgroundImageFix"/>
<feColorMatrix in="SourceAlpha" type="matrix" values="0 0 0 0 0 0 0 0 0 0 0 0 0 0 0 0 0 0 127 0" result="hardAlpha"/>
<feOffset dy="3.35484"/>
<feGaussianBlur stdDeviation="6.29032"/>
<feComposite in2="hardAlpha" operator="out"/>
<feColorMatrix type="matrix" values="0 0 0 0 0 0 0 0 0 0 0 0 0 0 0 0 0 0 0.15 0"/>
<feBlend mode="normal" in2="BackgroundImageFix" result="effect1_dropShadow_813_3039"/>
<feBlend mode="normal" in="SourceGraphic" in2="effect1_dropShadow_813_3039" result="shape"/>
</filter>
</defs>
</svg>
