<svg width="78" height="78" viewBox="0 0 78 78" fill="none" xmlns="http://www.w3.org/2000/svg">
<g filter="url(#filter0_d_11_176)">
<rect x="13" y="9.5" width="52" height="52" rx="6.70968" fill="#782DD4"/>
</g>
<path fill-rule="evenodd" clip-rule="evenodd" d="M44.7373 20.5C45.2452 24.7656 47.6233 27.3053 51.7388 27.565V32.3328C49.3434 32.5637 47.2481 31.7556 44.8123 30.3126V39.2708C44.8123 50.6649 32.3908 54.2148 27.4095 46.0588C24.2002 40.812 26.1685 31.5824 36.4601 31.2245V36.2867C35.652 36.4194 34.8612 36.6099 34.082 36.8639C31.7732 37.6316 30.5033 39.0919 30.8612 41.6489C31.5596 46.5494 40.5468 47.9982 39.7964 38.4281V20.5173H44.7604L44.7373 20.5Z" fill="white"/>
<defs>
<filter id="filter0_d_11_176" x="0.419355" y="0.274194" width="77.1613" height="77.1613" filterUnits="userSpaceOnUse" color-interpolation-filters="sRGB">
<feFlood flood-opacity="0" result="BackgroundImageFix"/>
<feColorMatrix in="SourceAlpha" type="matrix" values="0 0 0 0 0 0 0 0 0 0 0 0 0 0 0 0 0 0 127 0" result="hardAlpha"/>
<feOffset dy="3.35484"/>
<feGaussianBlur stdDeviation="6.29032"/>
<feComposite in2="hardAlpha" operator="out"/>
<feColorMatrix type="matrix" values="0 0 0 0 0 0 0 0 0 0 0 0 0 0 0 0 0 0 0.15 0"/>
<feBlend mode="normal" in2="BackgroundImageFix" result="effect1_dropShadow_11_176"/>
<feBlend mode="normal" in="SourceGraphic" in2="effect1_dropShadow_11_176" result="shape"/>
</filter>
</defs>
</svg>
