<svg width="142" height="18" viewBox="0 0 142 18" fill="none" xmlns="http://www.w3.org/2000/svg">
<path d="M0.00818207 16.6447V14.6093H8.02613C8.5432 14.6093 8.80174 14.3485 8.80174 13.8268V11.9235C8.80174 11.4371 8.58356 11.1504 8.14721 11.0635L3.109 10.0416C1.03633 9.62454 0 8.22469 0 5.84208V4.38115C0 1.46039 1.44759 0 4.34278 0H10.263L11.9958 1.35694V3.39069H4.50641C3.98933 3.39069 3.7308 3.65151 3.7308 4.17315V5.86848C3.7308 6.36372 3.94679 6.64105 4.37714 6.72854L9.41863 7.74542C11.4913 8.16251 12.5276 9.56237 12.5276 11.945V13.6139C12.5276 16.5347 11.08 17.995 8.18485 17.995H1.74104L0.00818207 16.6447ZM15.6203 13.7757V0.00495715H19.1874V4.23092H23.6333V7.36739H19.1874V14.0365C19.1874 14.5934 19.4629 14.8685 20.0138 14.8619H23.8902V16.8263L22.339 18H19.8076C17.016 18 15.6203 16.5919 15.6203 13.7757ZM30.1442 18C27.3526 18 25.9563 16.6178 25.9552 13.8533C25.9541 11.0888 27.3505 9.70818 30.1442 9.71148H33.7081V8.19938C33.7081 7.64362 33.4321 7.36519 32.8801 7.36409H27.4034V5.40298L28.9546 4.23092H33.0912C35.8828 4.23092 37.2785 5.63903 37.2785 8.45525V18H30.1442ZM29.524 14.0382C29.524 14.595 29.7995 14.8701 30.3504 14.8635H33.7081V12.5178H30.3504C29.7984 12.5178 29.5229 12.7962 29.524 13.3531V14.0382ZM40.7884 18V6.00385C41.4266 4.8219 42.6505 4.23092 44.4603 4.23092H47.2519L48.8031 5.40298V7.35913H45.3128C44.8481 7.35913 44.5296 7.47249 44.3572 7.69919V18H40.7884ZM51.2412 13.7757V0.00495715H54.8166V4.23092H59.2624V7.36739H54.8166V14.0365C54.8166 14.5934 55.092 14.8685 55.6429 14.8619H59.521V16.8263L57.9697 18H55.4285C52.637 18 51.2412 16.5919 51.2412 13.7757Z" fill="white"/>
<path d="M62.9219 18V0.00165284H75.2172V3.39326H66.673V7.8268H74.4357V11.2168H66.673V18H62.9219ZM77.7613 13.7745V4.22713H81.3558V14.0354C81.3558 14.5924 81.6339 14.8676 82.1901 14.861H85.9923V4.22713H89.5867V18H81.9873C79.1755 18 77.7696 16.5915 77.7696 13.7745H77.7613ZM93.2274 13.7745V0H96.8267V4.22713H101.312V7.36446H96.8267V14.0354C96.8267 14.5924 97.1049 14.8676 97.6611 14.861H101.569V16.826L100.006 18H97.455C94.642 18 93.2356 16.5915 93.2356 13.7745H93.2274ZM104.275 13.7745V4.22713H107.874V14.0354C107.874 14.5924 108.152 14.8676 108.708 14.861H112.507V4.22713H116.102V18H108.496C105.683 18 104.276 16.5915 104.276 13.7745H104.275ZM119.745 18V6.00054C120.389 4.81827 121.622 4.22713 123.445 4.22713H126.258L127.821 5.39951V7.3562H124.301C123.833 7.3562 123.511 7.46959 123.337 7.69635V18H119.745ZM130.173 13.7745V8.45262C130.173 5.63563 131.58 4.22713 134.394 4.22713H137.779C140.593 4.22713 142 5.63563 142 8.45262V12.47H133.761V14.0354C133.761 14.5924 134.039 14.8676 134.595 14.861H141.472V16.826L139.909 18H134.39C131.575 18 130.168 16.5915 130.169 13.7745H130.173ZM133.767 9.64645H138.405V8.18512C138.405 7.62921 138.127 7.3507 137.571 7.3496H134.603C134.048 7.3496 133.77 7.62811 133.769 8.18512L133.767 9.64645Z" fill="#772CD5"/>
</svg>
