<svg width="186" height="34" viewBox="0 0 186 34" fill="none" xmlns="http://www.w3.org/2000/svg">
<path d="M43.5082 24.6447V22.6093H51.5261C52.0432 22.6093 52.3017 22.3485 52.3017 21.8268V19.9235C52.3017 19.4371 52.0836 19.1504 51.6472 19.0635L46.609 18.0416C44.5363 17.6245 43.5 16.2247 43.5 13.8421V12.3811C43.5 9.46039 44.9476 8 47.8428 8H53.763L55.4958 9.35694V11.3907H48.0064C47.4893 11.3907 47.2308 11.6515 47.2308 12.1732V13.8685C47.2308 14.3637 47.4468 14.641 47.8771 14.7285L52.9186 15.7454C54.9913 16.1625 56.0276 17.5624 56.0276 19.945V21.6139C56.0276 24.5347 54.58 25.995 51.6848 25.995H45.241L43.5082 24.6447ZM59.1203 21.7757V8.00496H62.6874V12.2309H67.1333V15.3674H62.6874V22.0365C62.6874 22.5934 62.9629 22.8685 63.5138 22.8619H67.3902V24.8263L65.839 26H63.3076C60.516 26 59.1203 24.5919 59.1203 21.7757V21.7757ZM73.6442 26C70.8526 26 69.4563 24.6178 69.4552 21.8533C69.4541 19.0888 70.8505 17.7082 73.6442 17.7115H77.2081V16.1994C77.2081 15.6436 76.9321 15.3652 76.3801 15.3641H70.9034V13.403L72.4546 12.2309H76.5912C79.3828 12.2309 80.7785 13.639 80.7785 16.4552V26H73.6442ZM73.024 22.0382C73.024 22.595 73.2995 22.8701 73.8504 22.8635H77.2081V20.5178H73.8504C73.2984 20.5178 73.0229 20.7962 73.024 21.3531V22.0382ZM84.2884 26V14.0038C84.9266 12.8219 86.1505 12.2309 87.9603 12.2309H90.7519L92.3031 13.403V15.3591H88.8128C88.3481 15.3591 88.0296 15.4725 87.8572 15.6992V26H84.2884ZM94.7412 21.7757V8.00496H98.3166V12.2309H102.762V15.3674H98.3166V22.0365C98.3166 22.5934 98.592 22.8685 99.1429 22.8619H103.021V24.8263L101.47 26H98.9285C96.137 26 94.7412 24.5919 94.7412 21.7757Z" fill="white"/>
<path d="M106.422 26V8.00165H118.717V11.3933H110.173V15.8268H117.936V19.2168H110.173V26H106.422ZM121.261 21.7745V12.2271H124.856V22.0354C124.856 22.5924 125.134 22.8676 125.69 22.861H129.492V12.2271H133.087V26H125.487C122.675 26 121.27 24.5915 121.27 21.7745H121.261ZM136.727 21.7745V8H140.327V12.2271H144.812V15.3645H140.327V22.0354C140.327 22.5924 140.605 22.8676 141.161 22.861H145.069V24.826L143.506 26H140.955C138.142 26 136.736 24.5915 136.736 21.7745H136.727ZM147.775 21.7745V12.2271H151.374V22.0354C151.374 22.5924 151.652 22.8676 152.208 22.861H156.007V12.2271H159.602V26H151.996C149.183 26 147.776 24.5915 147.776 21.7745H147.775ZM163.245 26V14.0005C163.889 12.8183 165.122 12.2271 166.945 12.2271H169.758L171.321 13.3995V15.3562H167.801C167.333 15.3562 167.011 15.4696 166.837 15.6964V26H163.245ZM173.673 21.7745V16.4526C173.673 13.6356 175.08 12.2271 177.894 12.2271H181.279C184.093 12.2271 185.5 13.6356 185.5 16.4526V20.47H177.261V22.0354C177.261 22.5924 177.539 22.8676 178.095 22.861H184.972V24.826L183.409 26H177.89C175.075 26 173.668 24.5915 173.669 21.7745H173.673ZM177.267 17.6465H181.905V16.1851C181.905 15.6292 181.627 15.3507 181.071 15.3496H178.103C177.548 15.3496 177.27 15.6281 177.269 16.1851L177.267 17.6465Z" fill="#772CD5"/>
<path d="M23.1062 3.41551C21.5852 2.12611 19.8313 1.15423 17.9439 0.554962C17.1239 0.29884 16.2805 0.128451 15.4268 0.0464193C12.4403 -0.234027 9.56273 0.778385 7.11151 2.48537C5.28027 3.74916 3.72509 5.38677 2.54396 7.29502C1.08915 9.67787 0.333381 12.4795 0.531016 15.2952C0.704861 17.7398 1.40024 19.9263 2.43233 21.9465C3.68676 24.4013 5.38313 26.5121 7.1902 28.5538C8.92865 30.5234 10.8108 33.0035 13.3736 33.8271C16.5175 34.8367 19.4692 31.1853 21.3412 29.0801C21.4977 28.9053 21.6523 28.7295 21.8078 28.5538C23.614 26.5121 25.3104 24.4013 26.5657 21.9465C27.5978 19.9263 28.2932 17.7398 28.467 15.2952C28.8028 10.6669 26.5419 6.30411 23.1062 3.41551ZM8.14178 20.8742C5.33097 20.8742 3.05177 18.5157 3.05177 15.6074C3.05177 12.6992 5.33097 10.3407 8.14178 10.3407C10.9526 10.3407 13.2327 12.6983 13.2327 15.6074C13.2327 18.5166 10.9535 20.8742 8.14178 20.8742ZM20.8691 20.8742C18.0574 20.8742 15.7782 18.5157 15.7782 15.6074C15.7782 12.6992 18.0574 10.3407 20.8691 10.3407C23.6808 10.3407 25.9591 12.6983 25.9591 15.6074C25.9591 18.5166 23.6799 20.8742 20.8691 20.8742V20.8742Z" fill="white"/>
</svg>
