<svg width="218" height="41" viewBox="0 0 218 41" fill="none" xmlns="http://www.w3.org/2000/svg">
<path d="M50.5975 29.082V26.6874H60.0304C60.6387 26.6874 60.9429 26.3806 60.9429 25.7669V23.5277C60.9429 22.9554 60.6862 22.6181 60.1728 22.5158L54.2455 21.3137C51.8071 20.823 50.5879 19.1761 50.5879 16.373V14.6543C50.5879 11.2181 52.2909 9.5 55.697 9.5H62.662L64.7006 11.0964V13.489H55.8896C55.2812 13.489 54.9771 13.7959 54.9771 14.4096V16.4041C54.9771 16.9867 55.2312 17.313 55.7375 17.4159L61.6686 18.6123C64.1071 19.103 65.3263 20.7498 65.3263 23.5529V25.5164C65.3263 28.9525 63.6232 30.6706 60.2171 30.6706H52.6362L50.5975 29.082ZM68.9647 25.7067V9.50583H73.1613V14.4776H78.3918V18.1675H73.1613V26.0135C73.1613 26.6687 73.4854 26.9923 74.1335 26.9846H78.694V29.2956L76.869 30.6765H73.8909C70.6068 30.6765 68.9647 29.0199 68.9647 25.7067ZM86.0517 30.6765C82.7675 30.6765 81.1247 29.0503 81.1235 25.798C81.1222 22.5456 82.7649 20.9214 86.0517 20.9253H90.2445V19.1463C90.2445 18.4925 89.9198 18.1649 89.2704 18.1636H82.8271V15.8564L84.6521 14.4776H89.5187C92.8029 14.4776 94.445 16.1342 94.445 19.4474V30.6765H86.0517ZM85.322 26.0155C85.322 26.6706 85.6461 26.9943 86.2942 26.9865H90.2445V24.2268H86.2942C85.6448 24.2268 85.3208 24.5544 85.322 25.2095V26.0155ZM98.5743 30.6765V16.5634C99.3251 15.1728 100.765 14.4776 102.894 14.4776H106.178L108.003 15.8564V18.1578H103.897C103.35 18.1578 102.976 18.2912 102.773 18.5579V30.6765H98.5743ZM110.872 25.7067V9.50583H115.078V14.4776H120.308V18.1675H115.078V26.0135C115.078 26.6687 115.402 26.9923 116.05 26.9846H120.613V29.2956L118.788 30.6765H115.798C112.514 30.6765 110.872 29.0199 110.872 25.7067Z" fill="#474747"/>
<path d="M124.614 30.6765V9.50194H139.079V13.4921H129.027V18.708H138.16V22.6962H129.027V30.6765H124.614ZM142.072 25.7053V14.4731H146.301V26.0122C146.301 26.6676 146.628 26.9913 147.283 26.9836H151.756V14.4731H155.985V30.6765H147.044C143.736 30.6765 142.082 29.0194 142.082 25.7053H142.072ZM160.268 25.7053V9.5H164.502V14.4731H169.779V18.1641H164.502V26.0122C164.502 26.6676 164.83 26.9913 165.484 26.9836H170.081V29.2953L168.242 30.6765H165.241C161.932 30.6765 160.277 29.0194 160.277 25.7053H160.268ZM173.264 25.7053V14.4731H177.499V26.0122C177.499 26.6676 177.826 26.9913 178.481 26.9836H182.95V14.4731H187.179V30.6765H178.23C174.921 30.6765 173.266 29.0194 173.266 25.7053H173.264ZM191.466 30.6765V16.5595C192.222 15.1686 193.673 14.4731 195.818 14.4731H199.128L200.967 15.8524V18.1544H196.825C196.274 18.1544 195.896 18.2877 195.69 18.5545V30.6765H191.466ZM203.733 25.7053V19.4443C203.733 16.1302 205.388 14.4731 208.699 14.4731H212.681C215.992 14.4731 217.647 16.1302 217.647 19.4443V24.1706H207.954V26.0122C207.954 26.6676 208.281 26.9913 208.935 26.9836H217.026V29.2953L215.187 30.6765H208.695C205.383 30.6765 203.728 29.0194 203.729 25.7053H203.733ZM207.962 20.8488H213.418V19.1296C213.418 18.4755 213.091 18.1479 212.437 18.1466H208.945C208.292 18.1466 207.965 18.4742 207.964 19.1296L207.962 20.8488Z" fill="#782DD4"/>
<path d="M26.5955 4.51825C24.8061 3.00131 22.7427 1.85791 20.5222 1.1529C19.5575 0.851576 18.5653 0.651119 17.561 0.554611C14.0474 0.224674 10.662 1.41575 7.77825 3.42396C5.62385 4.91077 3.79423 6.83738 2.40466 9.08237C0.693118 11.8857 -0.196022 15.1818 0.0364889 18.4944C0.241013 21.3703 1.0591 23.9427 2.27333 26.3194C3.74913 29.2074 5.74485 31.6907 7.87083 34.0927C9.91606 36.4099 12.1303 39.3277 15.1454 40.2966C18.8441 41.4844 22.3167 37.1886 24.5191 34.7119C24.7031 34.5062 24.8851 34.2994 25.0681 34.0927C27.1929 31.6907 29.1887 29.2074 30.6656 26.3194C31.8798 23.9427 32.6979 21.3703 32.9024 18.4944C33.2975 13.0493 30.6376 7.9166 26.5955 4.51825ZM8.99033 25.0579C5.6835 25.0579 3.00208 22.2831 3.00208 18.8617C3.00208 15.4403 5.6835 12.6655 8.99033 12.6655C12.2972 12.6655 14.9796 15.4392 14.9796 18.8617C14.9796 22.2842 12.2982 25.0579 8.99033 25.0579ZM23.9636 25.0579C20.6557 25.0579 17.9743 22.2831 17.9743 18.8617C17.9743 15.4403 20.6557 12.6655 23.9636 12.6655C27.2715 12.6655 29.9519 15.4392 29.9519 18.8617C29.9519 22.2842 27.2705 25.0579 23.9636 25.0579Z" fill="#782DD4"/>
</svg>
