<svg width="28" height="34" viewBox="0 0 28 34" fill="none" xmlns="http://www.w3.org/2000/svg">
<path d="M22.6062 3.41551C21.0852 2.12611 19.3313 1.15423 17.4439 0.554962C16.6239 0.29884 15.7805 0.128451 14.9268 0.0464193C11.9403 -0.234027 9.06273 0.778385 6.61151 2.48537C4.78027 3.74916 3.22509 5.38677 2.04396 7.29502C0.58915 9.67787 -0.166619 12.4795 0.0310156 15.2952C0.204861 17.7398 0.900239 19.9263 1.93233 21.9465C3.18676 24.4013 4.88313 26.5121 6.6902 28.5538C8.42865 30.5234 10.3108 33.0035 12.8736 33.8271C16.0175 34.8367 18.9692 31.1853 20.8412 29.0801C20.9977 28.9053 21.1523 28.7295 21.3078 28.5538C23.114 26.5121 24.8104 24.4013 26.0657 21.9465C27.0978 19.9263 27.7932 17.7398 27.967 15.2952C28.3028 10.6669 26.0419 6.30411 22.6062 3.41551ZM7.64178 20.8742C4.83097 20.8742 2.55177 18.5157 2.55177 15.6074C2.55177 12.6992 4.83097 10.3407 7.64178 10.3407C10.4526 10.3407 12.7327 12.6983 12.7327 15.6074C12.7327 18.5166 10.4535 20.8742 7.64178 20.8742ZM20.3691 20.8742C17.5574 20.8742 15.2782 18.5157 15.2782 15.6074C15.2782 12.6992 17.5574 10.3407 20.3691 10.3407C23.1808 10.3407 25.4591 12.6983 25.4591 15.6074C25.4591 18.5166 23.1799 20.8742 20.3691 20.8742Z" fill="white"/>
</svg>
