<svg width="32" height="36" viewBox="0 0 32 36" fill="none" xmlns="http://www.w3.org/2000/svg">
<path d="M7.64251 19.8461C7.13332 19.8461 6.7168 20.2626 6.7168 20.7718C6.7168 21.281 7.13332 21.6975 7.64251 21.6975H8.66057C8.78082 22.2898 9.01232 22.8362 9.33618 23.3174L8.61408 24.0395C8.25303 24.4006 8.25303 24.9835 8.61408 25.3446C8.7991 25.5296 9.0306 25.6129 9.27141 25.6129C9.51222 25.6129 9.74341 25.5203 9.92874 25.3446L10.6508 24.6225C11.1321 24.9463 11.6875 25.1778 12.2708 25.2981V26.3161C12.2708 26.8253 12.6873 27.2419 13.1965 27.2419C13.7057 27.2419 14.1222 26.8253 14.1222 26.3161V25.2981C14.7144 25.1778 15.2608 24.9463 15.7421 24.6225L16.4642 25.3446C16.6492 25.5296 16.8807 25.6129 17.1215 25.6129C17.3623 25.6129 17.5935 25.5203 17.7789 25.3446C18.1399 24.9835 18.1399 24.4006 17.7789 24.0395L17.0568 23.3174C17.3806 22.8361 17.6121 22.2808 17.7324 21.6975H18.7504C19.2596 21.6975 19.6762 21.281 19.6762 20.7718C19.6762 20.2626 19.2596 19.8461 18.7504 19.8461H17.7324C17.6121 19.2538 17.3806 18.7074 17.0568 18.2262L17.7789 17.5041C18.1399 17.143 18.1399 16.5601 17.7789 16.199C17.5939 16.014 17.3623 15.9307 17.1215 15.9307C16.8807 15.9307 16.6495 16.0233 16.4642 16.199L15.7421 16.9211C15.2608 16.5973 14.7055 16.3658 14.1222 16.2455V15.2275C14.1222 14.7183 13.7057 14.3018 13.1965 14.3018C12.6873 14.3018 12.2708 14.7183 12.2708 15.2275V16.2455C11.6785 16.3658 11.1321 16.5973 10.6508 16.9211L9.92874 16.199C9.74373 16.014 9.51222 15.9307 9.27141 15.9307C9.0306 15.9307 8.79941 16.0233 8.61408 16.199C8.25303 16.5601 8.25303 17.143 8.61408 17.5041L9.33618 18.2262C9.01232 18.7075 8.78082 19.2628 8.66057 19.8461H7.64251ZM13.1869 17.9764C14.7141 17.9764 15.9637 19.226 15.9637 20.7532C15.9637 22.2805 14.7141 23.5301 13.1869 23.5301C11.6596 23.5301 10.4101 22.2805 10.4101 20.7532C10.4101 19.226 11.6596 17.9764 13.1869 17.9764Z" fill="white"/>
<path d="M30.9583 31.3694L28.4037 28.8148C28.0981 28.5092 27.6076 28.5185 27.3023 28.8148C27.1634 28.9629 27.0801 29.148 27.0801 29.3516V30.9436H19.4159C21.3596 29.7126 22.9516 27.9352 23.9422 25.7323C26.6635 19.6881 23.9515 12.5424 17.9073 9.82115C15.0563 8.54365 11.8909 8.42345 8.95636 9.4601C8.25286 9.39532 7.6234 9.06217 7.16999 8.51614C6.70729 7.97007 6.48508 7.27585 6.54986 6.56308C6.65182 5.44307 7.41979 4.53592 8.4657 4.22134V5.65593C8.4657 6.06315 8.79886 6.40561 9.20608 6.40561C9.4097 6.40561 9.60401 6.33154 9.74285 6.1927L12.242 3.74901C12.529 3.45273 12.529 2.97144 12.242 2.68446L9.74285 0.222209C9.44657 -0.0740698 8.97458 -0.0740698 8.6783 0.222209C8.53946 0.36105 8.46539 0.546067 8.46539 0.749679V2.34167C6.44751 2.68413 4.89241 4.32234 4.70739 6.39599C4.59645 7.59939 4.96648 8.77486 5.75338 9.70961C6.02177 10.0335 6.34562 10.3019 6.68838 10.5334C4.99436 11.57 3.5877 12.9956 2.5786 14.7355L1.06063 14.032C0.884912 13.9486 0.69028 13.9393 0.505265 14.0041C0.116636 14.1337 -0.0962747 14.5595 0.0425664 14.9574L1.27357 18.197C1.27357 18.197 1.30146 18.2617 1.30146 18.2803C1.4589 18.6414 1.83823 18.7802 2.19925 18.6414L2.71774 18.4471C2.93995 18.3544 3.16216 18.1325 3.2731 17.7621C3.51391 16.9753 4.27292 15.5128 4.27292 15.5128C5.43911 13.5783 7.20715 12.0879 9.35459 11.2734C11.8999 10.3108 14.6585 10.3942 17.1483 11.5142C22.2668 13.8191 24.553 19.8542 22.2485 24.9723C20.712 28.4154 17.4445 30.6741 13.7332 30.9425L4.03253 30.9434C3.52334 30.9434 3.10681 31.3599 3.10681 31.8691C3.10681 32.3783 3.52334 32.7948 4.03253 32.7948H27.0802V34.4424C27.0802 34.8682 27.4319 35.2199 27.867 35.2106C28.0706 35.2106 28.265 35.1273 28.4038 34.9884L30.9584 32.4614C31.264 32.1558 31.264 31.6652 30.9584 31.3599L30.9583 31.3694Z" fill="white"/>
</svg>
