<svg width="32" height="25" viewBox="0 0 32 25" fill="none" xmlns="http://www.w3.org/2000/svg">
<path d="M30.8854 11.2882C31.1285 10.9548 31.2413 10.6004 31.2238 10.2254C31.2067 9.83638 31.059 9.48198 30.781 9.1625C30.5031 8.85694 30.1473 8.63454 29.7132 8.49558L3.32559 0.139072C2.8741 0.000104656 2.41388 -0.0347785 1.94493 0.0347053C1.45854 0.118144 1.05063 0.291704 0.7207 0.555684C0.373281 0.833619 0.147683 1.16708 0.0433085 1.55604C-0.0433303 1.93108 -9.41574e-06 2.29942 0.173553 2.66051L10.6192 23.7914C10.7927 24.1386 11.0707 24.4235 11.4527 24.6456C11.8521 24.868 12.2862 24.986 12.7551 25L12.8592 25C13.3281 25 13.7625 24.9026 14.1616 24.7081C14.544 24.5136 14.839 24.2566 15.0475 23.9371L19.9447 15.9766L29.8954 12.0378C30.3121 11.8712 30.642 11.6209 30.8854 11.2878L30.8854 11.2882Z" fill="#D42DA5"/>
</svg>
