<svg width="32" height="25" viewBox="0 0 32 25" fill="none" xmlns="http://www.w3.org/2000/svg">
<path d="M30.7846 11.2514C31.0269 10.919 31.1393 10.5658 31.1219 10.192C31.1048 9.80428 30.9576 9.45104 30.6806 9.1326C30.4036 8.82804 30.0489 8.60636 29.6162 8.46786L3.31474 0.138618C2.86472 0.000104237 2.40601 -0.0346651 1.93858 0.034592C1.45378 0.117758 1.0472 0.290752 0.718348 0.553871C0.372063 0.830899 0.147201 1.16327 0.0431672 1.55096C-0.0431889 1.92478 -9.38502e-06 2.29192 0.172987 2.65183L10.5845 23.7138C10.7575 24.0598 11.0346 24.3438 11.4153 24.5652C11.8135 24.7869 12.2461 24.9045 12.7135 24.9184L12.8172 24.9184C13.2847 24.9184 13.7176 24.8214 14.1154 24.6275C14.4965 24.4336 14.7906 24.1775 14.9984 23.859L19.8797 15.9244L29.7979 11.9985C30.2131 11.8325 30.542 11.583 30.7846 11.2509L30.7846 11.2514Z" fill="#782DD4"/>
</svg>
