<svg width="24" height="64" viewBox="0 0 24 64" fill="none" xmlns="http://www.w3.org/2000/svg">
<path d="M10.9393 63.0607C11.5251 63.6464 12.4749 63.6464 13.0607 63.0607L22.6066 53.5147C23.1924 52.9289 23.1924 51.9792 22.6066 51.3934C22.0208 50.8076 21.0711 50.8076 20.4853 51.3934L12 59.8787L3.51472 51.3934C2.92893 50.8076 1.97919 50.8076 1.3934 51.3934C0.807614 51.9792 0.807614 52.9289 1.3934 53.5147L10.9393 63.0607ZM10.5 6.55671e-08L10.5 3.875L13.5 3.875L13.5 -6.55671e-08L10.5 6.55671e-08ZM10.5 11.625L10.5 19.375L13.5 19.375L13.5 11.625L10.5 11.625ZM10.5 27.125L10.5 34.875L13.5 34.875L13.5 27.125L10.5 27.125ZM10.5 42.625L10.5 50.375L13.5 50.375L13.5 42.625L10.5 42.625ZM10.5 58.125L10.5 62L13.5 62L13.5 58.125L10.5 58.125Z" fill="#782DD4"/>
</svg>
