<svg width="91" height="22" viewBox="0 0 91 22" fill="none" xmlns="http://www.w3.org/2000/svg">
<path d="M62 7.99999L52 2.22649L52 13.7735L62 7.99999ZM8.74228e-08 9L53 9L53 7L-8.74228e-08 7L8.74228e-08 9Z" fill="#A5A5A5"/>
<path d="M90.1253 12.0808C89.9067 11.9988 89.6883 11.9716 89.4969 11.9988C89.1964 12.0261 88.8959 12.1902 88.6773 12.4086C88.6226 11.8075 88.2401 11.3158 87.7209 11.1245C87.6117 11.0972 87.5024 11.0698 87.3932 11.0425C86.9834 11.0153 86.601 11.1245 86.3004 11.3978C86.2732 11.0425 86.1091 10.6875 85.836 10.4414C85.6994 10.3048 85.5355 10.2228 85.3716 10.1682C85.1802 10.0862 84.9618 10.059 84.7432 10.0862C84.4427 10.1135 84.1694 10.2501 83.951 10.4687V4.51277C83.951 4.10304 83.7871 3.72057 83.4866 3.44726C83.35 3.31062 83.1861 3.22867 82.9949 3.14673C82.8036 3.06478 82.5852 3.03753 82.3666 3.06478C81.6563 3.14673 81.0825 3.80249 81.0825 4.56747L81.0553 13.8838L79.7712 12.5178C79.5799 12.3265 79.3615 12.1626 79.1155 12.0806C78.651 11.9167 78.1591 11.944 77.7494 12.2173C77.3397 12.4905 77.0664 12.9003 77.0117 13.3647C76.957 13.8292 77.0937 14.2936 77.4215 14.6488L78.0772 15.3591C78.651 15.9601 79.4979 17.4081 80.4815 19.5664C80.9187 20.5227 81.7383 21.2329 82.6944 21.5882C83.1041 21.7248 83.5413 21.8068 84.0057 21.8068H87.1203C88.295 21.8068 89.3879 21.2329 90.0437 20.2494L90.0984 20.1674C90.6995 19.2931 91 18.2823 91 17.244V13.3917C91 12.982 90.8361 12.5995 90.5356 12.3262C90.4532 12.2172 90.2892 12.1353 90.1253 12.0806L90.1253 12.0808Z" fill="white"/>
<path d="M80.5903 7.98266V7.4363C79.033 6.56194 78.268 4.64954 78.8965 2.92848C79.5795 0.988611 81.7378 -0.0221574 83.6776 0.688083C85.6175 1.39837 86.6283 3.52934 85.918 5.46921C85.6175 6.28888 85.0711 6.94443 84.3881 7.35438V7.90075C85.2625 7.43632 86 6.6439 86.3552 5.63313C87.1474 3.44743 86 1.04335 83.8145 0.250952C81.6288 -0.541251 79.2247 0.60618 78.4323 2.79168C77.7217 4.81366 78.6778 7.05386 80.5903 7.98261V7.98266Z" fill="white"/>
<path d="M82.3115 2.60048C82.5848 2.57323 82.8854 2.60048 83.1584 2.70968C83.4043 2.79163 83.6229 2.92827 83.8142 3.09216C84.1694 3.41995 84.388 3.88437 84.4425 4.34901V5.63313C84.5792 5.44179 84.6884 5.22339 84.7703 5.0048C85.2347 3.72073 84.5517 2.3 83.2676 1.83555C81.9835 1.37112 80.5628 2.05414 80.0984 3.33824C79.7706 4.23982 79.9892 5.19595 80.6175 5.85174V4.56767C80.5904 3.55665 81.3554 2.70976 82.3115 2.60058L82.3115 2.60048Z" fill="white"/>
</svg>
