<svg width="442" height="109" viewBox="0 0 442 109" fill="none" xmlns="http://www.w3.org/2000/svg">
<path d="M140.489 43.8605C141.649 41.9122 143.181 40.4046 145.083 39.3376C147.033 38.2243 149.329 37.6676 151.975 37.6676V45.8785H149.956C146.847 45.8785 144.48 46.6671 142.856 48.2443C141.278 49.8215 140.489 52.5585 140.489 56.4552V76.6346H132.553V38.2939H140.489V43.8605ZM174.445 57.4989L192.126 76.6346H181.407L167.205 60.1429V76.6346H159.269V25.1426H167.205V55.0635L181.128 38.2939H192.126L174.445 57.4989Z" fill="#2B2E51"/>
<path d="M213.756 77.1221C210.507 77.1221 207.584 76.5656 204.985 75.4519C202.386 74.2922 200.344 72.6685 198.859 70.5811C197.374 68.4936 196.631 66.0584 196.631 63.2751H205.124C205.31 65.3626 206.122 67.0789 207.56 68.4239C209.046 69.7695 211.111 70.4424 213.756 70.4424C216.494 70.4424 218.629 69.7926 220.16 68.4936C221.692 67.1485 222.458 65.4322 222.458 63.3447C222.458 61.7211 221.97 60.3991 220.996 59.3781C220.068 58.3578 218.884 57.5692 217.445 57.0125C216.053 56.4558 214.104 55.8528 211.598 55.2033C208.442 54.3683 205.866 53.5333 203.871 52.6983C201.922 51.8169 200.251 50.4716 198.859 48.6625C197.467 46.8533 196.771 44.4411 196.771 41.4257C196.771 38.6424 197.467 36.207 198.859 34.1195C200.251 32.032 202.2 30.4315 204.706 29.3182C207.213 28.2049 210.113 27.6482 213.408 27.6482C218.095 27.6482 221.924 28.8311 224.894 31.197C227.911 33.5164 229.581 36.7173 229.906 40.7995H221.135C220.996 39.0367 220.16 37.5291 218.629 36.2766C217.098 35.0241 215.079 34.3978 212.573 34.3978C210.299 34.3978 208.442 34.9777 207.004 36.1374C205.565 37.2971 204.845 38.9671 204.845 41.1474C204.845 42.6319 205.287 43.8612 206.168 44.8354C207.096 45.7632 208.256 46.5054 209.649 47.062C211.041 47.6187 212.944 48.2218 215.357 48.8712C218.56 49.7526 221.158 50.634 223.154 51.5154C225.195 52.3968 226.913 53.7652 228.305 55.6208C229.744 57.43 230.463 59.8656 230.463 62.9269C230.463 65.3856 229.79 67.7051 228.445 69.8852C227.145 72.066 225.219 73.8283 222.667 75.1739C220.16 76.4729 217.19 77.1221 213.756 77.1221ZM249.086 44.7658V65.9888C249.086 67.4271 249.41 68.4705 250.06 69.1198C250.757 69.7229 251.917 70.0245 253.541 70.0245H258.414V76.6352H252.149C248.575 76.6352 245.837 75.8001 243.934 74.1299C242.032 72.4602 241.08 69.7465 241.08 65.9888V44.7658H236.555V38.2945H241.08V28.7615H249.086V38.2945H258.414V44.7658H249.086ZM263.083 57.2908C263.083 53.4405 263.871 50.0309 265.45 47.062C267.074 44.0931 269.255 41.7969 271.993 40.1733C274.778 38.5033 277.84 37.6683 281.182 37.6683C284.198 37.6683 286.82 38.2713 289.048 39.4774C291.322 40.6371 293.132 42.0984 294.478 43.8612V38.2945H302.483V76.6352H294.478V70.9293C293.132 72.7382 291.299 74.2461 288.978 75.4519C286.658 76.6582 284.013 77.2614 281.043 77.2614C277.748 77.2614 274.731 76.4263 271.993 74.7561C269.255 73.0398 267.074 70.6743 265.45 67.659C263.871 64.5971 263.083 61.141 263.083 57.2908ZM294.478 57.43C294.478 54.7858 293.921 52.4895 292.807 50.5412C291.74 48.5929 290.325 47.1084 288.561 46.0879C286.797 45.0673 284.894 44.5571 282.853 44.5571C280.811 44.5571 278.908 45.0673 277.144 46.0879C275.381 47.062 273.942 48.5233 272.828 50.4716C271.761 52.3736 271.228 54.6466 271.228 57.2908C271.228 59.9352 271.761 62.2547 272.828 64.2489C273.942 66.2438 275.381 67.7747 277.144 68.8418C278.955 69.8622 280.857 70.3727 282.853 70.3727C284.894 70.3727 286.797 69.8622 288.561 68.8418C290.325 67.8213 291.74 66.3364 292.807 64.3882C293.921 62.3934 294.478 60.0739 294.478 57.43ZM322.166 44.7658V65.9888C322.166 67.4271 322.49 68.4705 323.14 69.1198C323.836 69.7229 324.996 70.0245 326.62 70.0245H331.493V76.6352H325.228C321.655 76.6352 318.917 75.8001 317.014 74.1299C315.111 72.4602 314.16 69.7465 314.16 65.9888V44.7658H309.635V38.2945H314.16V28.7615H322.166V38.2945H331.493V44.7658H322.166ZM342.845 33.2149C341.407 33.2149 340.2 32.7278 339.226 31.7536C338.251 30.7795 337.764 29.5733 337.764 28.1353C337.764 26.6972 338.251 25.4911 339.226 24.517C340.2 23.5428 341.407 23.0557 342.845 23.0557C344.237 23.0557 345.421 23.5428 346.395 24.517C347.37 25.4911 347.857 26.6972 347.857 28.1353C347.857 29.5733 347.37 30.7795 346.395 31.7536C345.421 32.7278 344.237 33.2149 342.845 33.2149ZM346.744 38.2945V76.6352H338.808V38.2945H346.744ZM373.8 77.2614C370.18 77.2614 366.908 76.4493 363.984 74.8257C361.061 73.156 358.764 70.8366 357.093 67.8674C355.423 64.8521 354.587 61.3729 354.587 57.43C354.587 53.5333 355.446 50.0773 357.163 47.062C358.88 44.0467 361.224 41.7273 364.193 40.1037C367.164 38.4801 370.482 37.6683 374.148 37.6683C377.814 37.6683 381.132 38.4801 384.103 40.1037C387.073 41.7273 389.417 44.0467 391.134 47.062C392.851 50.0773 393.709 53.5333 393.709 57.43C393.709 61.3269 392.828 64.7825 391.064 67.7977C389.301 70.813 386.887 73.156 383.824 74.8257C380.808 76.4493 377.466 77.2614 373.8 77.2614ZM373.8 70.3727C375.842 70.3727 377.745 69.8852 379.508 68.9114C381.318 67.937 382.78 66.4757 383.894 64.5275C385.007 62.5793 385.565 60.2132 385.565 57.43C385.565 54.6466 385.031 52.304 383.964 50.402C382.896 48.4537 381.481 46.9925 379.717 46.0183C377.954 45.0441 376.051 44.5571 374.009 44.5571C371.967 44.5571 370.064 45.0441 368.3 46.0183C366.583 46.9925 365.214 48.4537 364.193 50.402C363.173 52.304 362.662 54.6466 362.662 57.43C362.662 61.5588 363.706 64.7594 365.795 67.0323C367.93 69.259 370.598 70.3727 373.8 70.3727ZM420.907 37.6683C423.923 37.6683 426.615 38.2945 428.982 39.547C431.395 40.7995 433.274 42.6551 434.621 45.1137C435.966 47.5723 436.639 50.5412 436.639 54.0204V76.6352H428.773V55.2033C428.773 51.7705 427.914 49.1495 426.197 47.3404C424.48 45.4848 422.136 44.5571 419.167 44.5571C416.196 44.5571 413.83 45.4848 412.066 47.3404C410.349 49.1495 409.49 51.7705 409.49 55.2033V76.6352H401.554V38.2945H409.49V42.6782C410.789 41.101 412.437 39.8717 414.433 38.9903C416.475 38.1089 418.633 37.6683 420.907 37.6683Z" fill="#2B2E51"/>
<path d="M68.4195 31.8076L54.0496 80.2682H45.051L34.8665 43.5916L24.0542 80.2682L15.1253 80.3379L1.3833 31.8076H9.82388L19.8688 71.2732L30.7509 31.8076H39.6797L49.7944 71.0642L59.9089 31.8076H68.4195Z" fill="#2B2E51"/>
<path d="M95.9716 27.1963L75.373 40.0275V65.6899L95.9716 78.5212L116.565 65.6899V40.0275L95.9716 27.1963Z" stroke="#2B2E51" stroke-width="3.0386" stroke-miterlimit="10"/>
<path d="M96.0805 28.2891L96.1242 54.1318L75.7441 65.5377L96.0805 54.2246L115.746 65.1446" stroke="#2B2E51" stroke-width="3.0386" stroke-miterlimit="10"/>
</svg>
