<svg width="440" height="108" viewBox="0 0 440 108" fill="none" xmlns="http://www.w3.org/2000/svg">
<path d="M139.689 43.5631C140.843 41.6242 142.366 40.1238 144.257 39.062C146.196 37.9541 148.479 37.4001 151.11 37.4001V45.5713H149.103C146.011 45.5713 143.658 46.3561 142.043 47.9257C140.474 49.4953 139.689 52.219 139.689 56.0969V76.1788H131.798V38.0233H139.689V43.5631ZM173.452 57.1356L191.033 76.1788H180.374L166.254 59.7668V76.1788H158.363V24.9355H166.254V54.712L180.097 38.0233H191.033L173.452 57.1356Z" fill="#FF0A54"/>
<path d="M212.54 76.6627C209.31 76.6627 206.403 76.1089 203.819 75.0005C201.234 73.8464 199.204 72.2307 197.728 70.1532C196.251 68.0758 195.513 65.6525 195.513 62.8826H203.957C204.142 64.96 204.949 66.668 206.379 68.0065C207.857 69.3457 209.91 70.0152 212.54 70.0152C215.262 70.0152 217.385 69.3686 218.908 68.0758C220.431 66.7373 221.192 65.0293 221.192 62.9519C221.192 61.3361 220.708 60.0205 219.738 59.0044C218.815 57.989 217.639 57.2042 216.208 56.6502C214.824 56.0963 212.886 55.4961 210.394 54.8498C207.257 54.0188 204.695 53.1878 202.711 52.3569C200.773 51.4797 199.112 50.141 197.728 48.3405C196.343 46.5401 195.651 44.1395 195.651 41.1388C195.651 38.3689 196.343 35.9452 197.728 33.8678C199.112 31.7904 201.05 30.1977 203.542 29.0897C206.034 27.9818 208.917 27.4278 212.194 27.4278C216.855 27.4278 220.661 28.605 223.615 30.9594C226.614 33.2676 228.275 36.4531 228.598 40.5155H219.877C219.738 38.7613 218.908 37.2609 217.385 36.0145C215.862 34.768 213.855 34.1448 211.363 34.1448C209.102 34.1448 207.257 34.7219 205.826 35.876C204.396 37.0301 203.68 38.692 203.68 40.8618C203.68 42.3391 204.119 43.5624 204.995 44.5319C205.918 45.4552 207.072 46.1939 208.456 46.7478C209.84 47.3018 211.732 47.902 214.132 48.5483C217.316 49.4254 219.9 50.3025 221.884 51.1797C223.914 52.0568 225.622 53.4187 227.006 55.2653C228.436 57.0657 229.152 59.4896 229.152 62.5361C229.152 64.9829 228.483 67.2912 227.145 69.4608C225.853 71.631 223.938 73.3848 221.4 74.7239C218.908 76.0166 215.955 76.6627 212.54 76.6627ZM247.668 44.4627V65.5832C247.668 67.0145 247.991 68.0529 248.638 68.699C249.33 69.2993 250.483 69.5994 252.099 69.5994H256.944V76.1782H250.714C247.161 76.1782 244.438 75.3471 242.546 73.6849C240.655 72.0233 239.708 69.3228 239.708 65.5832V44.4627H235.21V38.0227H239.708V28.5357H247.668V38.0227H256.944V44.4627H247.668ZM261.586 56.9272C261.586 53.0955 262.37 49.7024 263.939 46.7478C265.554 43.7932 267.723 41.5081 270.446 39.8923C273.214 38.2304 276.26 37.3994 279.582 37.3994C282.581 37.3994 285.188 37.9996 287.403 39.1999C289.665 40.354 291.464 41.8082 292.802 43.5624V38.0227H300.762V76.1782H292.802V70.4998C291.464 72.3 289.641 73.8006 287.334 75.0005C285.027 76.2011 282.397 76.8013 279.444 76.8013C276.167 76.8013 273.168 75.9702 270.446 74.3081C267.723 72.6001 265.554 70.2461 263.939 67.2453C262.37 64.1982 261.586 60.7588 261.586 56.9272ZM292.802 57.0657C292.802 54.4343 292.249 52.1491 291.141 50.2102C290.08 48.2713 288.673 46.794 286.919 45.7784C285.165 44.7628 283.273 44.255 281.243 44.255C279.213 44.255 277.321 44.7628 275.567 45.7784C273.814 46.7479 272.384 48.202 271.276 50.141C270.215 52.0337 269.684 54.2958 269.684 56.9272C269.684 59.5589 270.215 61.8671 271.276 63.8517C272.384 65.8369 273.814 67.3605 275.567 68.4224C277.367 69.4379 279.259 69.9459 281.243 69.9459C283.273 69.9459 285.165 69.4379 286.919 68.4224C288.673 67.4069 290.08 65.9291 291.141 63.9903C292.249 62.0051 292.802 59.6969 292.802 57.0657ZM320.332 44.4627V65.5832C320.332 67.0145 320.655 68.0529 321.301 68.699C321.993 69.2993 323.147 69.5994 324.762 69.5994H329.607V76.1782H323.378C319.825 76.1782 317.102 75.3471 315.21 73.6849C313.318 72.0233 312.372 69.3228 312.372 65.5832V44.4627H307.873V38.0227H312.372V28.5357H320.332V38.0227H329.607V44.4627H320.332ZM340.894 32.9676C339.464 32.9676 338.264 32.4828 337.295 31.5134C336.326 30.5439 335.842 29.3436 335.842 27.9125C335.842 26.4814 336.326 25.2811 337.295 24.3117C338.264 23.3422 339.464 22.8574 340.894 22.8574C342.278 22.8574 343.456 23.3422 344.424 24.3117C345.394 25.2811 345.878 26.4814 345.878 27.9125C345.878 29.3436 345.394 30.5439 344.424 31.5134C343.456 32.4828 342.278 32.9676 340.894 32.9676ZM344.771 38.0227V76.1782H336.88V38.0227H344.771ZM371.673 76.8013C368.074 76.8013 364.82 75.9931 361.913 74.3774C359.007 72.7158 356.722 70.4076 355.061 67.4527C353.4 64.452 352.569 60.9896 352.569 57.0657C352.569 53.1878 353.423 49.7486 355.13 46.7478C356.837 43.7471 359.168 41.4388 362.121 39.8231C365.075 38.2073 368.374 37.3994 372.019 37.3994C375.664 37.3994 378.964 38.2073 381.917 39.8231C384.87 41.4388 387.201 43.7471 388.908 46.7478C390.615 49.7486 391.469 53.1878 391.469 57.0657C391.469 60.9438 390.592 64.3827 388.839 67.3834C387.085 70.3841 384.686 72.7158 381.64 74.3774C378.641 75.9931 375.318 76.8013 371.673 76.8013ZM371.673 69.9459C373.703 69.9459 375.596 69.4608 377.349 68.4917C379.149 67.522 380.602 66.0677 381.709 64.1289C382.817 62.1901 383.371 59.8355 383.371 57.0657C383.371 54.2958 382.84 51.9645 381.779 50.0717C380.717 48.1328 379.31 46.6786 377.556 45.7091C375.803 44.7397 373.911 44.255 371.881 44.255C369.85 44.255 367.958 44.7397 366.205 45.7091C364.498 46.6786 363.136 48.1328 362.121 50.0717C361.106 51.9645 360.598 54.2958 360.598 57.0657C360.598 61.1746 361.637 64.3598 363.713 66.6216C365.836 68.8376 368.489 69.9459 371.673 69.9459ZM418.511 37.3994C421.511 37.3994 424.187 38.0227 426.541 39.2691C428.94 40.5156 430.809 42.3621 432.147 44.8089C433.485 47.2557 434.155 50.2102 434.155 53.6726V76.1782H426.333V54.8498C426.333 51.4336 425.479 48.8253 423.772 47.0248C422.065 45.1782 419.734 44.255 416.781 44.255C413.828 44.255 411.475 45.1782 409.721 47.0248C408.014 48.8253 407.16 51.4336 407.16 54.8498V76.1782H399.269V38.0227H407.16V42.3852C408.452 40.8156 410.09 39.5923 412.075 38.7151C414.105 37.838 416.251 37.3994 418.511 37.3994Z" fill="#FF0A54"/>
<path d="M68.0306 31.5674L53.7425 79.7939H44.7951L34.6686 43.2944L23.9178 79.7939L15.0398 79.8632L1.37598 31.5674H9.76852L19.7563 70.8423L30.5764 31.5674H39.4544L49.5115 70.6344L59.5685 31.5674H68.0306Z" fill="#FF0A54"/>
<path d="M95.4251 26.9795L74.9438 39.7487V65.2872L95.4251 78.0565L115.901 65.2872V39.7487L95.4251 26.9795Z" stroke="#FF0A54" stroke-width="3.02393" stroke-miterlimit="10"/>
<path d="M95.5331 28.0664L95.5766 53.7843L75.3125 65.1351L95.5331 53.8767L115.086 64.7439" stroke="#FF0A54" stroke-width="3.02393" stroke-miterlimit="10"/>
</svg>
