<svg width="606" height="2044" viewBox="0 0 606 2044" fill="none" xmlns="http://www.w3.org/2000/svg">
<g clip-path="url(#clip0_608_527)">
<rect width="606" height="2043.67" fill="white"/>
<rect width="606" height="32.825" fill="#C4C4C4"/>
<path d="M22.5554 23.625C22.3055 23.625 22.1805 23.5 22.1805 23.25V15.9326C22.1805 15.7432 22.3547 15.6485 22.7031 15.6485H22.8736C23.222 15.6485 23.3963 15.7432 23.3963 15.9326V22.5796H26.3278C26.502 22.5796 26.5891 22.716 26.5891 22.9887V23.2159C26.5891 23.4886 26.502 23.625 26.3278 23.625H22.5554ZM30.5756 23.7045C29.4318 23.7045 28.5568 23.3561 27.9508 22.6592C27.3448 21.9623 27.0418 20.9548 27.0418 19.6368C27.0418 18.3036 27.3448 17.2961 27.9508 16.6143C28.5568 15.9326 29.4318 15.5917 30.5756 15.5917C31.727 15.5917 32.6057 15.9326 33.2117 16.6143C33.8177 17.2961 34.1207 18.3036 34.1207 19.6368C34.1207 20.9548 33.8177 21.9623 33.2117 22.6592C32.6057 23.3561 31.727 23.7045 30.5756 23.7045ZM30.5756 22.6592C31.3255 22.6592 31.8936 22.4016 32.28 21.8865C32.6739 21.3639 32.8708 20.6139 32.8708 19.6368C32.8708 18.652 32.6739 17.9097 32.28 17.4097C31.8936 16.9022 31.3255 16.6484 30.5756 16.6484C29.8332 16.6484 29.2651 16.9022 28.8712 17.4097C28.4849 17.9097 28.2917 18.652 28.2917 19.6368C28.2917 20.6139 28.4849 21.3639 28.8712 21.8865C29.2651 22.4016 29.8332 22.6592 30.5756 22.6592ZM38.9207 23.7045C37.7542 23.7045 36.8679 23.3788 36.2619 22.7274C35.6559 22.0683 35.3529 21.0571 35.3529 19.6936C35.3529 18.2922 35.6673 17.2582 36.296 16.5916C36.9323 15.925 37.8526 15.5917 39.0571 15.5917C39.3298 15.5917 39.5987 15.6144 39.8638 15.6599C40.1365 15.7053 40.3789 15.7621 40.591 15.8303C40.8107 15.8985 40.9849 15.978 41.1137 16.0689C41.2425 16.1523 41.3068 16.2394 41.3068 16.3303C41.3068 16.3984 41.2765 16.4969 41.2159 16.6257C41.1629 16.7469 41.0985 16.8567 41.0228 16.9552C40.9546 17.0537 40.8864 17.1029 40.8183 17.1029C40.7804 17.1029 40.6895 17.065 40.5456 16.9893C40.4092 16.9135 40.2198 16.8378 39.9774 16.762C39.735 16.6863 39.432 16.6484 39.0684 16.6484C38.4624 16.6484 37.9776 16.7658 37.614 17.0007C37.258 17.2279 37.0005 17.565 36.8414 18.0119C36.6823 18.4513 36.6028 18.9891 36.6028 19.6254C36.6028 20.0496 36.6406 20.4473 36.7164 20.8185C36.7921 21.1896 36.9209 21.5116 37.1027 21.7843C37.2845 22.057 37.5269 22.2729 37.8299 22.4319C38.1405 22.5834 38.523 22.6592 38.9775 22.6592C39.2957 22.6592 39.5873 22.6402 39.8524 22.6024C40.1251 22.5645 40.3448 22.519 40.5115 22.466L40.2729 22.9887V20.4776H39.0343C38.8601 20.4776 38.773 20.3412 38.773 20.0685V19.8413C38.773 19.5686 38.8601 19.4322 39.0343 19.4322H41.1137C41.3637 19.4322 41.4886 19.5572 41.4886 19.8072V22.8637C41.4886 23.0304 41.4091 23.1705 41.25 23.2841C41.0985 23.3902 40.894 23.4735 40.6365 23.5341C40.3865 23.5947 40.11 23.6364 39.807 23.6591C39.5116 23.6894 39.2161 23.7045 38.9207 23.7045ZM46.5208 23.7045C45.377 23.7045 44.5021 23.3561 43.8961 22.6592C43.2901 21.9623 42.9871 20.9548 42.9871 19.6368C42.9871 18.3036 43.2901 17.2961 43.8961 16.6143C44.5021 15.9326 45.377 15.5917 46.5208 15.5917C47.6722 15.5917 48.5509 15.9326 49.1569 16.6143C49.7629 17.2961 50.0659 18.3036 50.0659 19.6368C50.0659 20.9548 49.7629 21.9623 49.1569 22.6592C48.5509 23.3561 47.6722 23.7045 46.5208 23.7045ZM46.5208 22.6592C47.2707 22.6592 47.8389 22.4016 48.2252 21.8865C48.6191 21.3639 48.816 20.6139 48.816 19.6368C48.816 18.652 48.6191 17.9097 48.2252 17.4097C47.8389 16.9022 47.2707 16.6484 46.5208 16.6484C45.7785 16.6484 45.2103 16.9022 44.8164 17.4097C44.4301 17.9097 44.2369 18.652 44.2369 19.6368C44.2369 20.6139 44.4301 21.3639 44.8164 21.8865C45.2103 22.4016 45.7785 22.6592 46.5208 22.6592Z" fill="white"/>
<rect x="230.722" y="15.4668" width="27.775" height="7.25938" rx="3.62969" fill="#D7D4D4"/>
<rect x="271.122" y="15.4668" width="27.775" height="7.25938" rx="3.62969" fill="#D7D4D4"/>
<rect x="308.997" y="15.4668" width="27.775" height="7.25938" rx="3.62969" fill="#898787"/>
<rect x="347.188" y="15.4668" width="27.775" height="7.25938" rx="3.62969" fill="#D7D4D4"/>
<rect x="531.197" y="12.625" width="27.775" height="7.25938" rx="3.62969" fill="#898787"/>
<rect x="570.019" y="12.625" width="27.775" height="7.25938" rx="3.62969" fill="#898787"/>
<rect x="-3.76562" y="1916.18" width="611.975" height="127.513" fill="#C4C4C4"/>
<line x1="-5.99684" y1="2013.87" x2="605.978" y2="2012.88" stroke="#868686" stroke-width="0.315625"/>
<rect x="498.372" y="2020.66" width="20.3741" height="16.4125" rx="2.84063" fill="#E2DFDF"/>
<rect x="521.881" y="2020.66" width="20.3741" height="16.4125" rx="2.84063" fill="#E2DFDF"/>
<rect x="545.389" y="2020.66" width="20.3741" height="16.4125" rx="2.84063" fill="#E2DFDF"/>
<rect x="568.898" y="2020.66" width="20.3741" height="16.4125" rx="2.84063" fill="#E2DFDF"/>
<rect x="30.6157" y="2023.5" width="59.9688" height="11.0469" rx="2.84063" fill="#E8E6E6"/>
<rect x="109.522" y="2023.5" width="46.3969" height="11.0469" rx="2.84063" fill="#E8E6E6"/>
<rect x="174.856" y="2023.5" width="24.9344" height="11.0469" rx="2.84063" fill="#E8E6E6"/>
<rect x="30.6157" y="1938.59" width="33.7719" height="4.73438" rx="2.36719" fill="#9F9F9F"/>
<rect x="284.378" y="1938.59" width="33.7719" height="4.73438" rx="2.36719" fill="#9F9F9F"/>
<rect x="115.204" y="1939.54" width="52.0781" height="4.73438" rx="2.36719" fill="#9F9F9F"/>
<rect x="198.844" y="1939.54" width="26.8281" height="4.73438" rx="2.36719" fill="#9F9F9F"/>
<rect x="30.6157" y="1949.64" width="40.2053" height="2.65789" rx="1.32895" fill="#D7D4D4"/>
<rect x="30.6157" y="1954.16" width="46.7125" height="2.65789" rx="1.32895" fill="#D7D4D4"/>
<rect x="30.6157" y="1958.68" width="43.149" height="2.65789" rx="1.32895" fill="#D7D4D4"/>
<rect x="30.6157" y="1963.2" width="40.98" height="2.65789" rx="1.32895" fill="#D7D4D4"/>
<rect x="30.6157" y="1967.71" width="46.7125" height="2.6579" rx="1.32895" fill="#D7D4D4"/>
<rect x="30.6157" y="1972.23" width="19.9864" height="2.65789" rx="1.32895" fill="#D7D4D4"/>
<rect x="284.378" y="1949.64" width="40.2053" height="2.65789" rx="1.32895" fill="#D7D4D4"/>
<rect x="284.378" y="1954.16" width="46.7125" height="2.65789" rx="1.32895" fill="#D7D4D4"/>
<rect x="284.378" y="1958.68" width="43.149" height="2.65789" rx="1.32895" fill="#D7D4D4"/>
<rect x="284.378" y="1963.2" width="40.98" height="2.65789" rx="1.32895" fill="#D7D4D4"/>
<rect x="284.378" y="1967.71" width="46.7125" height="2.6579" rx="1.32895" fill="#D7D4D4"/>
<rect x="284.378" y="1972.23" width="19.9864" height="2.65789" rx="1.32895" fill="#D7D4D4"/>
<rect x="199.791" y="1947.12" width="40.2053" height="2.65789" rx="1.32895" fill="#D7D4D4"/>
<rect x="199.791" y="1951.63" width="46.7125" height="2.65789" rx="1.32895" fill="#D7D4D4"/>
<rect x="199.791" y="1956.15" width="43.149" height="2.65789" rx="1.32895" fill="#D7D4D4"/>
<rect x="30.6157" y="1981.2" width="40.2053" height="2.65789" rx="1.32895" fill="#D7D4D4"/>
<rect x="30.6157" y="1985.72" width="46.7125" height="2.65789" rx="1.32895" fill="#D7D4D4"/>
<rect x="284.378" y="1981.2" width="40.2053" height="2.65789" rx="1.32895" fill="#D7D4D4"/>
<rect x="284.378" y="1985.72" width="46.7125" height="2.65789" rx="1.32895" fill="#D7D4D4"/>
<rect x="115.204" y="1953.84" width="46.7125" height="2.65789" rx="1.32895" fill="#D7D4D4"/>
<rect x="115.204" y="1966.15" width="46.7125" height="2.65789" rx="1.32895" fill="#D7D4D4"/>
<rect x="115.204" y="1949.32" width="40.2053" height="2.65789" rx="1.32895" fill="#D7D4D4"/>
<rect x="115.204" y="1961.63" width="40.2053" height="2.65789" rx="1.32895" fill="#D7D4D4"/>
<rect x="-5.29248" y="1916.18" width="193.155" height="40.2461" fill="#C4C4C4"/>
<line x1="-5.99666" y1="1947.02" x2="187.158" y2="1946.7" stroke="#868686" stroke-width="0.0996192"/>
<rect x="153.195" y="1949.16" width="6.43059" height="5.1802" rx="0.896572" fill="#E2DFDF"/>
<rect x="160.615" y="1949.16" width="6.43059" height="5.1802" rx="0.896572" fill="#E2DFDF"/>
<rect x="168.035" y="1949.16" width="6.43059" height="5.1802" rx="0.896572" fill="#E2DFDF"/>
<rect x="175.455" y="1949.16" width="6.43059" height="5.1802" rx="0.896572" fill="#E2DFDF"/>
<rect x="5.55908" y="1950.05" width="18.9276" height="3.48667" rx="0.896572" fill="#E8E6E6"/>
<rect x="30.4639" y="1950.05" width="14.644" height="3.48667" rx="0.896572" fill="#E8E6E6"/>
<rect x="51.085" y="1950.05" width="7.86991" height="3.48667" rx="0.896572" fill="#E8E6E6"/>
<rect x="5.55908" y="1923.26" width="10.6592" height="1.49429" rx="0.747144" fill="#9F9F9F"/>
<rect x="85.6528" y="1923.26" width="10.6592" height="1.49429" rx="0.747144" fill="#9F9F9F"/>
<rect x="32.2573" y="1923.55" width="16.4372" height="1.49429" rx="0.747144" fill="#9F9F9F"/>
<rect x="58.6562" y="1923.55" width="8.46763" height="1.49429" rx="0.747144" fill="#9F9F9F"/>
<rect x="5.55908" y="1926.74" width="12.6898" height="0.838898" rx="0.419449" fill="#D7D4D4"/>
<rect x="5.55908" y="1928.17" width="14.7436" height="0.838898" rx="0.419449" fill="#D7D4D4"/>
<rect x="5.55908" y="1929.6" width="13.6189" height="0.838898" rx="0.419449" fill="#D7D4D4"/>
<rect x="5.55908" y="1931.02" width="12.9343" height="0.838898" rx="0.419449" fill="#D7D4D4"/>
<rect x="5.55908" y="1932.45" width="14.7436" height="0.838898" rx="0.419449" fill="#D7D4D4"/>
<rect x="5.55908" y="1933.87" width="6.30822" height="0.838898" rx="0.419449" fill="#D7D4D4"/>
<rect x="85.6528" y="1926.74" width="12.6898" height="0.838898" rx="0.419449" fill="#D7D4D4"/>
<rect x="85.6528" y="1928.17" width="14.7436" height="0.838898" rx="0.419449" fill="#D7D4D4"/>
<rect x="85.6528" y="1929.6" width="13.6189" height="0.838898" rx="0.419449" fill="#D7D4D4"/>
<rect x="85.6528" y="1931.02" width="12.9343" height="0.838898" rx="0.419449" fill="#D7D4D4"/>
<rect x="85.6528" y="1932.45" width="14.7436" height="0.838898" rx="0.419449" fill="#D7D4D4"/>
<rect x="85.6528" y="1933.87" width="6.30822" height="0.838898" rx="0.419449" fill="#D7D4D4"/>
<rect x="58.9551" y="1925.95" width="12.6898" height="0.838898" rx="0.419449" fill="#D7D4D4"/>
<rect x="58.9551" y="1927.37" width="14.7436" height="0.838898" rx="0.419449" fill="#D7D4D4"/>
<rect x="58.9551" y="1928.8" width="13.6189" height="0.838898" rx="0.419449" fill="#D7D4D4"/>
<rect x="5.55908" y="1936.71" width="12.6898" height="0.838898" rx="0.419449" fill="#D7D4D4"/>
<rect x="5.55908" y="1938.13" width="14.7436" height="0.838898" rx="0.419449" fill="#D7D4D4"/>
<rect x="85.6528" y="1936.71" width="12.6898" height="0.838898" rx="0.419449" fill="#D7D4D4"/>
<rect x="85.6528" y="1938.13" width="14.7436" height="0.838898" rx="0.419449" fill="#D7D4D4"/>
<rect x="32.2573" y="1928.07" width="14.7436" height="0.838898" rx="0.419449" fill="#D7D4D4"/>
<rect x="32.2573" y="1931.96" width="14.7436" height="0.838898" rx="0.419449" fill="#D7D4D4"/>
<rect x="32.2573" y="1926.64" width="12.6898" height="0.838898" rx="0.419449" fill="#D7D4D4"/>
<rect x="32.2573" y="1930.53" width="12.6898" height="0.838898" rx="0.419449" fill="#D7D4D4"/>
<rect x="308.997" y="29.6699" width="27.775" height="3.15625" fill="#898787"/>
<rect x="199.16" y="122.463" width="213.994" height="17.675" fill="#C4C4C4"/>
<rect x="168.544" y="1193.38" width="268.597" height="17.675" rx="2.84063" fill="#C4C4C4"/>
<rect x="214.94" y="1222.73" width="175.803" height="7.575" rx="2.84063" fill="#C4C4C4"/>
<rect x="204.841" y="1234.41" width="196.003" height="7.575" rx="2.84063" fill="#C4C4C4"/>
<rect x="262.6" y="104.472" width="87.1125" height="10.7312" fill="#C4C4C4"/>
<rect x="83.9561" y="235.456" width="87.1125" height="8.8375" rx="2.20938" fill="#C4C4C4"/>
<rect x="262.6" y="235.772" width="87.1125" height="8.8375" rx="2.20938" fill="#C4C4C4"/>
<rect x="441.244" y="235.456" width="87.1125" height="8.8375" rx="2.20938" fill="#C4C4C4"/>
<rect x="101" y="250.29" width="53.025" height="5.68125" rx="2.20938" fill="#C4C4C4"/>
<rect x="279.644" y="250.606" width="53.025" height="5.68125" rx="2.20938" fill="#C4C4C4"/>
<rect x="458.288" y="250.29" width="53.025" height="5.68125" rx="2.20938" fill="#C4C4C4"/>
<rect x="61.8628" y="268.912" width="131.3" height="5.68125" rx="2.20938" fill="#C4C4C4"/>
<rect x="240.506" y="269.229" width="131.3" height="5.68125" rx="2.20938" fill="#C4C4C4"/>
<rect x="419.15" y="268.912" width="131.3" height="5.68125" rx="2.20938" fill="#C4C4C4"/>
<rect x="61.8628" y="278.382" width="131.3" height="5.68125" rx="2.20938" fill="#C4C4C4"/>
<rect x="240.506" y="278.696" width="131.3" height="5.68125" rx="2.20938" fill="#C4C4C4"/>
<rect x="419.15" y="278.382" width="131.3" height="5.68125" rx="2.20938" fill="#C4C4C4"/>
<circle cx="127.67" cy="202.473" r="22.5672" fill="#C4C4C4"/>
<circle cx="303.158" cy="202.473" r="22.5672" fill="#C4C4C4"/>
<circle cx="484.958" cy="202.473" r="22.5672" fill="#C4C4C4"/>
<rect x="-23.6719" y="318.15" width="629.356" height="220.938" fill="#C4C4C4"/>
<rect x="295.11" y="379.697" width="269.544" height="135.719" fill="white"/>
<rect x="298.582" y="598.741" width="269.544" height="135.719" fill="#C4C4C4"/>
<rect x="298.582" y="972.126" width="269.544" height="135.719" fill="#C4C4C4"/>
<rect x="35.3496" y="1517.84" width="240.191" height="135.719" fill="#C4C4C4"/>
<rect x="37.875" y="788.116" width="269.544" height="135.719" fill="#C4C4C4"/>
<line x1="303" y1="369.282" x2="346.556" y2="369.282" stroke="white" stroke-width="1.2625"/>
<circle cx="325.095" cy="345.61" r="11.6781" stroke="white" stroke-width="1.2625"/>
<rect x="305.21" y="361.076" width="39.4531" height="2.525" rx="1.2625" fill="#898787"/>
<circle cx="386.64" cy="345.61" r="11.6781" stroke="white" stroke-width="1.2625"/>
<rect x="366.756" y="361.076" width="39.4531" height="2.525" rx="1.2625" fill="#898787"/>
<circle cx="448.188" cy="345.61" r="11.6781" stroke="white" stroke-width="1.2625"/>
<rect x="428.303" y="361.076" width="39.4531" height="2.525" rx="1.2625" fill="#898787"/>
<circle cx="541.612" cy="345.61" r="11.6781" stroke="white" stroke-width="1.2625"/>
<rect x="521.727" y="361.076" width="39.4531" height="2.525" rx="1.2625" fill="#898787"/>
<rect x="34.7188" y="345.609" width="184.009" height="12.625" rx="4.10313" fill="#898787"/>
<rect x="34.7188" y="364.548" width="161.284" height="12.625" rx="4.10313" fill="#898787"/>
<rect x="34.7188" y="383.484" width="117.413" height="12.625" rx="4.10313" fill="#898787"/>
<rect x="34.7188" y="421.36" width="117.413" height="5.36562" rx="2.68281" fill="#9F9F9F" fill-opacity="0.67"/>
<rect x="34.7188" y="450.081" width="117.413" height="5.36562" rx="2.68281" fill="#9F9F9F" fill-opacity="0.67"/>
<rect x="34.7188" y="430.828" width="97.2125" height="5.68125" rx="2.84063" fill="#9F9F9F" fill-opacity="0.67"/>
<rect x="34.7188" y="439.981" width="119.938" height="5.99687" rx="2.99844" fill="#9F9F9F" fill-opacity="0.67"/>
<rect x="34.7188" y="458.918" width="119.938" height="5.99687" rx="2.99844" fill="#9F9F9F" fill-opacity="0.67"/>
<rect x="57.7593" y="624.938" width="209.259" height="91.5312" fill="#C4C4C4" fill-opacity="0.2"/>
<rect x="57.7593" y="999.271" width="209.259" height="81.1156" fill="#C4C4C4" fill-opacity="0.2"/>
<rect x="332.669" y="1540.56" width="209.259" height="81.1156" fill="#C4C4C4" fill-opacity="0.2"/>
<rect x="338.981" y="815.259" width="209.259" height="81.1156" fill="#C4C4C4" fill-opacity="0.2"/>
<rect x="57.7593" y="624.938" width="209.259" height="9.46875" rx="4.73438" fill="#898787"/>
<rect x="57.7593" y="999.27" width="209.259" height="9.46875" rx="4.73438" fill="#898787"/>
<rect x="332.669" y="1540.56" width="209.259" height="9.46875" rx="4.73438" fill="#898787"/>
<rect x="-59.6533" y="1693.01" width="725.622" height="15.7813" rx="7.89063" fill="#898787" fill-opacity="0.51"/>
<rect x="198.529" y="1757.09" width="209.259" height="11.0469" rx="5.52344" fill="#C4C4C4"/>
<rect x="260.707" y="1746.67" width="84.9031" height="7.25938" rx="3.62969" fill="#C4C4C4"/>
<rect x="107.944" y="1318.68" width="102.263" height="6.62813" rx="2.84063" fill="#C4C4C4"/>
<rect x="107.944" y="1350.25" width="60.6" height="6.62813" rx="2.84063" fill="#C4C4C4"/>
<rect x="174.541" y="1350.25" width="35.6656" height="6.62813" rx="2.84063" fill="#C4C4C4"/>
<rect x="107.944" y="1328.78" width="113.941" height="6.62813" rx="2.84063" fill="#C4C4C4"/>
<rect x="107.944" y="1339.52" width="113.941" height="6.62813" rx="2.84063" fill="#C4C4C4"/>
<rect x="107.944" y="1301.96" width="99.7375" height="9.46875" rx="4.73438" fill="#898787"/>
<rect x="107.944" y="1411.47" width="60.6" height="6.62813" rx="2.84063" fill="#C4C4C4"/>
<rect x="107.944" y="1443.04" width="60.6" height="6.62813" rx="2.84063" fill="#C4C4C4"/>
<rect x="174.541" y="1443.04" width="35.6656" height="6.62813" rx="2.84063" fill="#C4C4C4"/>
<rect x="174.856" y="1411.47" width="59.9688" height="6.62813" rx="2.84063" fill="#C4C4C4"/>
<rect x="107.944" y="1421.57" width="113.941" height="6.62813" rx="2.84063" fill="#C4C4C4"/>
<rect x="107.944" y="1432.3" width="113.941" height="6.62813" rx="2.84063" fill="#C4C4C4"/>
<rect x="107.944" y="1394.75" width="99.7375" height="9.46875" rx="4.73438" fill="#898787"/>
<rect x="367.703" y="1318.68" width="102.263" height="6.62813" rx="2.84063" fill="#C4C4C4"/>
<rect x="367.703" y="1350.25" width="60.6" height="6.62813" rx="2.84063" fill="#C4C4C4"/>
<rect x="434.3" y="1350.25" width="35.6656" height="6.62813" rx="2.84063" fill="#C4C4C4"/>
<rect x="472.49" y="1318.68" width="17.9906" height="6.62813" rx="2.84063" fill="#C4C4C4"/>
<rect x="486.378" y="1339.52" width="17.9906" height="6.62813" rx="2.84063" fill="#C4C4C4"/>
<rect x="367.703" y="1328.78" width="113.941" height="6.62813" rx="2.84063" fill="#C4C4C4"/>
<rect x="367.703" y="1339.52" width="113.941" height="6.62813" rx="2.84063" fill="#C4C4C4"/>
<rect x="367.703" y="1301.96" width="140.453" height="9.46875" rx="4.73438" fill="#898787"/>
<rect x="367.703" y="1411.47" width="102.263" height="6.62813" rx="2.84063" fill="#C4C4C4"/>
<rect x="367.703" y="1443.04" width="60.6" height="6.62813" rx="2.84063" fill="#C4C4C4"/>
<rect x="434.3" y="1443.04" width="35.6656" height="6.62813" rx="2.84063" fill="#C4C4C4"/>
<rect x="432.722" y="1421.57" width="56.4969" height="6.62813" rx="2.84063" fill="#C4C4C4"/>
<rect x="472.49" y="1411.47" width="17.9906" height="6.62813" rx="2.84063" fill="#C4C4C4"/>
<rect x="486.378" y="1432.3" width="17.9906" height="6.62813" rx="2.84063" fill="#C4C4C4"/>
<rect x="367.703" y="1421.57" width="60.6" height="6.62813" rx="2.84063" fill="#C4C4C4"/>
<rect x="367.703" y="1432.3" width="113.941" height="6.62813" rx="2.84063" fill="#C4C4C4"/>
<rect x="367.703" y="1394.75" width="140.453" height="9.46875" rx="4.73438" fill="#898787"/>
<rect x="338.98" y="815.262" width="209.259" height="9.46875" rx="4.73438" fill="#898787"/>
<rect x="57.7593" y="640.718" width="163.809" height="6.3125" rx="3.15625" fill="#BDBDBD"/>
<rect x="57.7593" y="651.449" width="190.322" height="6.3125" rx="3.15625" fill="#BDBDBD"/>
<rect x="57.7593" y="662.181" width="175.803" height="6.3125" rx="3.15625" fill="#BDBDBD"/>
<rect x="57.7593" y="672.911" width="166.966" height="6.3125" rx="3.15625" fill="#BDBDBD"/>
<rect x="57.7593" y="683.644" width="190.322" height="6.3125" rx="3.15625" fill="#BDBDBD"/>
<rect x="57.7593" y="694.374" width="81.4313" height="6.3125" rx="3.15625" fill="#BDBDBD"/>
<rect x="58.0747" y="1020.42" width="163.809" height="6.3125" rx="3.15625" fill="#BDBDBD"/>
<rect x="58.0747" y="1031.15" width="190.322" height="6.3125" rx="3.15625" fill="#BDBDBD"/>
<rect x="58.0747" y="1041.88" width="175.803" height="6.3125" rx="3.15625" fill="#BDBDBD"/>
<rect x="58.0747" y="1052.61" width="166.966" height="6.3125" rx="3.15625" fill="#BDBDBD"/>
<rect x="58.0747" y="1063.34" width="190.322" height="6.3125" rx="3.15625" fill="#BDBDBD"/>
<rect x="58.0747" y="1074.07" width="81.4313" height="6.3125" rx="3.15625" fill="#BDBDBD"/>
<rect x="332.984" y="1561.71" width="163.809" height="6.3125" rx="3.15625" fill="#BDBDBD"/>
<rect x="332.984" y="1572.44" width="190.322" height="6.3125" rx="3.15625" fill="#BDBDBD"/>
<rect x="332.984" y="1583.18" width="175.803" height="6.3125" rx="3.15625" fill="#BDBDBD"/>
<rect x="332.984" y="1593.91" width="166.966" height="6.3125" rx="3.15625" fill="#BDBDBD"/>
<rect x="332.984" y="1604.64" width="190.322" height="6.3125" rx="3.15625" fill="#BDBDBD"/>
<rect x="332.984" y="1615.37" width="81.4313" height="6.3125" rx="3.15625" fill="#BDBDBD"/>
<rect x="339.297" y="836.406" width="163.809" height="6.3125" rx="3.15625" fill="#BDBDBD"/>
<rect x="339.297" y="847.139" width="190.322" height="6.3125" rx="3.15625" fill="#BDBDBD"/>
<rect x="339.297" y="857.869" width="175.803" height="6.3125" rx="3.15625" fill="#BDBDBD"/>
<rect x="339.297" y="868.6" width="166.966" height="6.3125" rx="3.15625" fill="#BDBDBD"/>
<rect x="339.297" y="879.33" width="190.322" height="6.3125" rx="3.15625" fill="#BDBDBD"/>
<rect x="339.297" y="890.062" width="81.4313" height="6.3125" rx="3.15625" fill="#BDBDBD"/>
<circle cx="74.8032" cy="1311.42" r="15.7812" fill="#C4C4C4"/>
<circle cx="74.8032" cy="1404.21" r="15.7812" fill="#C4C4C4"/>
<circle cx="334.562" cy="1311.42" r="15.7812" fill="#C4C4C4"/>
<circle cx="334.562" cy="1404.21" r="15.7812" fill="#C4C4C4"/>
<rect x="245.241" y="1805.69" width="114.256" height="56.4969" fill="#C4C4C4"/>
<rect x="368.334" y="1805.69" width="114.256" height="56.4969" fill="#C4C4C4"/>
<rect x="491.744" y="1805.69" width="113.941" height="56.4969" fill="#C4C4C4"/>
<path d="M7.30703 1841.48C6.53613 1840.55 7.19395 1839.15 8.39815 1839.15H88.6567C89.0783 1839.15 89.478 1839.33 89.7478 1839.66C90.5188 1840.58 89.8609 1841.99 88.6567 1841.99H8.39815C7.97663 1841.99 7.57689 1841.8 7.30703 1841.48Z" fill="#898787"/>
<rect x="5.36572" y="1852.09" width="44.1875" height="2.84063" rx="1.42031" fill="#D7D4D4"/>
<rect x="128.459" y="1853.35" width="44.1875" height="2.84063" rx="1.42031" fill="#D7D4D4"/>
<ellipse rx="6.94375" ry="7.25938" transform="matrix(-1 0 0 1 12.3097 1819.26)" fill="#D7D4D4"/>
<rect x="22.4097" y="1814.21" width="31.8781" height="2.84063" fill="#898787"/>
<rect x="22.4097" y="1818.32" width="20.2" height="2.20937" fill="#9F9F9F"/>
<path d="M74.1718 1813.58L74.6678 1815.11H76.273L74.9744 1816.05L75.4704 1817.58L74.1718 1816.63L72.8731 1817.58L73.3692 1816.05L72.0705 1815.11H73.6757L74.1718 1813.58Z" fill="#898787"/>
<path d="M81.747 1813.58L82.243 1815.11H83.8482L82.5496 1816.05L83.0456 1817.58L81.747 1816.63L80.4483 1817.58L80.9444 1816.05L79.6457 1815.11H81.2509L81.747 1813.58Z" fill="#898787"/>
<path d="M89.3217 1813.58L89.8177 1815.11H91.4229L90.1243 1816.05L90.6203 1817.58L89.3217 1816.63L88.023 1817.58L88.5191 1816.05L87.2204 1815.11H88.8256L89.3217 1813.58Z" fill="#898787"/>
<path d="M96.8969 1813.58L97.3929 1815.11H98.9981L97.6995 1816.05L98.1955 1817.58L96.8969 1816.63L95.5982 1817.58L96.0943 1816.05L94.7956 1815.11H96.4008L96.8969 1813.58Z" fill="#898787"/>
<path d="M104.472 1813.58L104.968 1815.11H106.573L105.274 1816.05L105.77 1817.58L104.472 1816.63L103.173 1817.58L103.669 1816.05L102.37 1815.11H103.976L104.472 1813.58Z" fill="#898787"/>
<rect x="251.553" y="1853.04" width="44.1875" height="2.84063" rx="1.42031" fill="#D7D4D4"/>
<rect x="251.553" y="1832.84" width="68.8063" height="2.84063" rx="1.42031" fill="#898787"/>
<rect x="251.553" y="1837.89" width="35.0344" height="2.84063" rx="1.42031" fill="#898787"/>
<rect x="251.237" y="1842.94" width="52.0781" height="2.84063" rx="1.42031" fill="#898787"/>
<rect x="290.691" y="1837.89" width="22.0938" height="2.84063" rx="1.42031" fill="#898787"/>
<rect x="374.746" y="1839.21" width="13.9467" height="0.896572" rx="0.448286" fill="#D7D4D4"/>
<rect x="374.746" y="1832.83" width="21.717" height="0.896572" rx="0.448286" fill="#898787"/>
<rect x="374.746" y="1834.43" width="11.0577" height="0.896572" rx="0.448286" fill="#898787"/>
<rect x="374.646" y="1836.02" width="16.4372" height="0.896572" rx="0.448286" fill="#898787"/>
<rect x="387.099" y="1834.43" width="6.97334" height="0.896572" rx="0.448286" fill="#898787"/>
<rect x="498.155" y="1839.21" width="13.9467" height="0.896572" rx="0.448286" fill="#D7D4D4"/>
<rect x="498.155" y="1832.83" width="21.717" height="0.896572" rx="0.448286" fill="#898787"/>
<rect x="498.155" y="1834.43" width="11.0577" height="0.896572" rx="0.448286" fill="#898787"/>
<rect x="498.056" y="1836.02" width="16.4372" height="0.896572" rx="0.448286" fill="#898787"/>
<rect x="510.508" y="1834.43" width="6.97334" height="0.896572" rx="0.448286" fill="#898787"/>
<ellipse rx="2.19162" ry="2.29124" transform="matrix(-1 0 0 1 253.745 1814.3)" fill="#D7D4D4"/>
<rect x="256.933" y="1812.7" width="10.0615" height="0.896572" fill="#898787"/>
<rect x="256.933" y="1814" width="6.37563" height="0.697334" fill="#9F9F9F"/>
<path d="M273.27 1812.5L273.427 1812.98H273.933L273.523 1813.28L273.68 1813.76L273.27 1813.47L272.86 1813.76L273.017 1813.28L272.607 1812.98H273.114L273.27 1812.5Z" fill="#898787"/>
<path d="M275.661 1812.5L275.818 1812.98H276.324L275.915 1813.28L276.071 1813.76L275.661 1813.47L275.251 1813.76L275.408 1813.28L274.998 1812.98H275.505L275.661 1812.5Z" fill="#898787"/>
<path d="M278.052 1812.5L278.208 1812.98H278.715L278.305 1813.28L278.462 1813.76L278.052 1813.47L277.642 1813.76L277.799 1813.28L277.389 1812.98H277.895L278.052 1812.5Z" fill="#898787"/>
<path d="M280.443 1812.5L280.6 1812.98H281.106L280.696 1813.28L280.853 1813.76L280.443 1813.47L280.033 1813.76L280.19 1813.28L279.78 1812.98H280.286L280.443 1812.5Z" fill="#898787"/>
<path d="M282.834 1812.5L282.99 1812.98H283.497L283.087 1813.28L283.243 1813.76L282.834 1813.47L282.424 1813.76L282.58 1813.28L282.17 1812.98H282.677L282.834 1812.5Z" fill="#898787"/>
<ellipse rx="2.19162" ry="2.29124" transform="matrix(-1 0 0 1 376.838 1814.3)" fill="#D7D4D4"/>
<rect x="380.026" y="1812.7" width="10.0615" height="0.896572" fill="#898787"/>
<rect x="380.026" y="1814" width="6.37563" height="0.697334" fill="#9F9F9F"/>
<path d="M396.363 1812.5L396.52 1812.98H397.027L396.617 1813.28L396.773 1813.76L396.363 1813.47L395.953 1813.76L396.11 1813.28L395.7 1812.98H396.207L396.363 1812.5Z" fill="#898787"/>
<path d="M398.754 1812.5L398.911 1812.98H399.418L399.008 1813.28L399.164 1813.76L398.754 1813.47L398.345 1813.76L398.501 1813.28L398.091 1812.98H398.598L398.754 1812.5Z" fill="#898787"/>
<path d="M401.145 1812.5L401.302 1812.98H401.808L401.398 1813.28L401.555 1813.76L401.145 1813.47L400.735 1813.76L400.892 1813.28L400.482 1812.98H400.989L401.145 1812.5Z" fill="#898787"/>
<path d="M403.536 1812.5L403.693 1812.98H404.199L403.79 1813.28L403.946 1813.76L403.536 1813.47L403.126 1813.76L403.283 1813.28L402.873 1812.98H403.38L403.536 1812.5Z" fill="#898787"/>
<path d="M405.927 1812.5L406.083 1812.98H406.59L406.18 1813.28L406.337 1813.76L405.927 1813.47L405.517 1813.76L405.674 1813.28L405.264 1812.98H405.77L405.927 1812.5Z" fill="#898787"/>
<ellipse rx="2.19162" ry="2.29124" transform="matrix(-1 0 0 1 500.247 1814.3)" fill="#D7D4D4"/>
<rect x="503.435" y="1812.7" width="10.0615" height="0.896572" fill="#898787"/>
<rect x="503.435" y="1814" width="6.37563" height="0.697334" fill="#9F9F9F"/>
<path d="M519.773 1812.5L519.929 1812.98H520.436L520.026 1813.28L520.182 1813.76L519.773 1813.47L519.363 1813.76L519.519 1813.28L519.109 1812.98H519.616L519.773 1812.5Z" fill="#898787"/>
<path d="M522.164 1812.5L522.32 1812.98H522.827L522.417 1813.28L522.574 1813.76L522.164 1813.47L521.754 1813.76L521.91 1813.28L521.5 1812.98H522.007L522.164 1812.5Z" fill="#898787"/>
<path d="M524.554 1812.5L524.711 1812.98H525.217L524.808 1813.28L524.964 1813.76L524.554 1813.47L524.144 1813.76L524.301 1813.28L523.891 1812.98H524.398L524.554 1812.5Z" fill="#898787"/>
<path d="M526.945 1812.5L527.102 1812.98H527.609L527.199 1813.28L527.355 1813.76L526.945 1813.47L526.535 1813.76L526.692 1813.28L526.282 1812.98H526.789L526.945 1812.5Z" fill="#898787"/>
<path d="M529.336 1812.5L529.493 1812.98H529.999L529.589 1813.28L529.746 1813.76L529.336 1813.47L528.926 1813.76L529.083 1813.28L528.673 1812.98H529.179L529.336 1812.5Z" fill="#898787"/>
<rect x="262.601" y="1877.97" width="11.3625" height="2.84063" fill="#C4C4C4"/>
<rect x="276.488" y="1877.97" width="11.3625" height="2.84063" fill="#C4C4C4"/>
<rect x="290.375" y="1877.97" width="11.3625" height="2.84063" fill="#898787"/>
<rect x="304.263" y="1877.97" width="11.3625" height="2.84063" fill="#C4C4C4"/>
<rect x="318.151" y="1877.97" width="11.3625" height="2.84063" fill="#C4C4C4"/>
<rect x="332.038" y="1877.97" width="11.3625" height="2.84063" fill="#C4C4C4"/>
</g>
<defs>
<clipPath id="clip0_608_527">
<rect width="606" height="2043.67" fill="white"/>
</clipPath>
</defs>
</svg>
