<svg width="115" height="154" viewBox="0 0 115 154" fill="none" xmlns="http://www.w3.org/2000/svg">
<circle cx="57.5" cy="57.5" r="57.5" fill="#FF0A54"/>
<path d="M37.8262 146.097H35.167V145.023H37.8262C38.3411 145.023 38.7581 144.941 39.0771 144.777C39.3962 144.613 39.6286 144.385 39.7744 144.094C39.9248 143.802 40 143.469 40 143.096C40 142.754 39.9248 142.433 39.7744 142.132C39.6286 141.831 39.3962 141.59 39.0771 141.407C38.7581 141.22 38.3411 141.127 37.8262 141.127H35.4746V150H34.1553V140.047H37.8262C38.5781 140.047 39.2139 140.177 39.7334 140.437C40.2529 140.696 40.6471 141.056 40.916 141.517C41.1849 141.972 41.3193 142.494 41.3193 143.082C41.3193 143.72 41.1849 144.265 40.916 144.716C40.6471 145.167 40.2529 145.511 39.7334 145.748C39.2139 145.98 38.5781 146.097 37.8262 146.097ZM44.0605 143.766V150H42.7959V142.604H44.0264L44.0605 143.766ZM46.3711 142.562L46.3643 143.738C46.2594 143.715 46.1592 143.702 46.0635 143.697C45.9723 143.688 45.8675 143.684 45.749 143.684C45.4574 143.684 45.1999 143.729 44.9766 143.82C44.7533 143.911 44.5641 144.039 44.4092 144.203C44.2542 144.367 44.1312 144.563 44.04 144.791C43.9535 145.014 43.8965 145.26 43.8691 145.529L43.5137 145.734C43.5137 145.288 43.557 144.868 43.6436 144.477C43.7347 144.085 43.8737 143.738 44.0605 143.438C44.2474 143.132 44.4844 142.895 44.7715 142.727C45.0632 142.553 45.4095 142.467 45.8105 142.467C45.9017 142.467 46.0065 142.478 46.125 142.501C46.2435 142.519 46.3255 142.54 46.3711 142.562ZM48.9141 142.604V150H47.6426V142.604H48.9141ZM47.5469 140.642C47.5469 140.437 47.6084 140.263 47.7314 140.122C47.859 139.981 48.0459 139.91 48.292 139.91C48.5335 139.91 48.7181 139.981 48.8457 140.122C48.9779 140.263 49.0439 140.437 49.0439 140.642C49.0439 140.838 48.9779 141.006 48.8457 141.147C48.7181 141.284 48.5335 141.353 48.292 141.353C48.0459 141.353 47.859 141.284 47.7314 141.147C47.6084 141.006 47.5469 140.838 47.5469 140.642ZM52.2021 144.073V150H50.9307V142.604H52.1338L52.2021 144.073ZM51.9424 146.021L51.3545 146.001C51.359 145.495 51.4251 145.028 51.5527 144.6C51.6803 144.167 51.8695 143.791 52.1201 143.472C52.3708 143.153 52.6829 142.907 53.0566 142.733C53.4303 142.556 53.8633 142.467 54.3555 142.467C54.7018 142.467 55.0208 142.517 55.3125 142.617C55.6042 142.713 55.8571 142.866 56.0713 143.075C56.2855 143.285 56.4518 143.554 56.5703 143.882C56.6888 144.21 56.748 144.606 56.748 145.071V150H55.4834V145.133C55.4834 144.745 55.4173 144.436 55.2852 144.203C55.1576 143.971 54.9753 143.802 54.7383 143.697C54.5013 143.588 54.2233 143.533 53.9043 143.533C53.5306 143.533 53.2184 143.599 52.9678 143.731C52.7171 143.864 52.5166 144.046 52.3662 144.278C52.2158 144.511 52.1064 144.777 52.0381 145.078C51.9743 145.374 51.9424 145.689 51.9424 146.021ZM56.7344 145.324L55.8867 145.584C55.8913 145.178 55.9574 144.789 56.085 144.415C56.2171 144.041 56.4062 143.709 56.6523 143.417C56.903 143.125 57.2106 142.895 57.5752 142.727C57.9398 142.553 58.3568 142.467 58.8262 142.467C59.2227 142.467 59.5736 142.519 59.8789 142.624C60.1888 142.729 60.4486 142.891 60.6582 143.109C60.8724 143.324 61.0342 143.599 61.1436 143.937C61.2529 144.274 61.3076 144.675 61.3076 145.14V150H60.0361V145.126C60.0361 144.711 59.9701 144.39 59.8379 144.162C59.7103 143.93 59.528 143.768 59.291 143.677C59.0586 143.581 58.7806 143.533 58.457 143.533C58.179 143.533 57.9329 143.581 57.7188 143.677C57.5046 143.772 57.3245 143.905 57.1787 144.073C57.0329 144.237 56.9212 144.426 56.8438 144.641C56.7708 144.855 56.7344 145.083 56.7344 145.324ZM67.583 148.735V144.928C67.583 144.636 67.5238 144.383 67.4053 144.169C67.2913 143.95 67.1182 143.782 66.8857 143.663C66.6533 143.545 66.3662 143.485 66.0244 143.485C65.7054 143.485 65.4251 143.54 65.1836 143.649C64.9466 143.759 64.7598 143.902 64.623 144.08C64.4909 144.258 64.4248 144.449 64.4248 144.654H63.1602C63.1602 144.39 63.2285 144.128 63.3652 143.868C63.502 143.608 63.6979 143.374 63.9531 143.164C64.2129 142.95 64.5228 142.781 64.8828 142.658C65.2474 142.531 65.653 142.467 66.0996 142.467C66.6374 142.467 67.1113 142.558 67.5215 142.74C67.9362 142.923 68.2598 143.198 68.4922 143.567C68.7292 143.932 68.8477 144.39 68.8477 144.941V148.387C68.8477 148.633 68.8682 148.895 68.9092 149.173C68.9548 149.451 69.0208 149.69 69.1074 149.891V150H67.7881C67.7243 149.854 67.6742 149.66 67.6377 149.419C67.6012 149.173 67.583 148.945 67.583 148.735ZM67.8018 145.516L67.8154 146.404H66.5371C66.1771 146.404 65.8558 146.434 65.5732 146.493C65.2907 146.548 65.0537 146.632 64.8623 146.746C64.6709 146.86 64.5251 147.004 64.4248 147.177C64.3245 147.345 64.2744 147.544 64.2744 147.771C64.2744 148.004 64.3268 148.216 64.4316 148.407C64.5365 148.599 64.6937 148.751 64.9033 148.865C65.1175 148.975 65.3796 149.029 65.6895 149.029C66.0768 149.029 66.4186 148.947 66.7148 148.783C67.0111 148.619 67.2458 148.419 67.4189 148.182C67.5967 147.945 67.6924 147.715 67.7061 147.491L68.2461 148.1C68.2142 148.291 68.1276 148.503 67.9863 148.735C67.8451 148.968 67.6559 149.191 67.4189 149.405C67.1865 149.615 66.9085 149.79 66.585 149.932C66.266 150.068 65.9059 150.137 65.5049 150.137C65.0036 150.137 64.5638 150.039 64.1855 149.843C63.8118 149.647 63.5202 149.385 63.3105 149.057C63.1055 148.724 63.0029 148.353 63.0029 147.942C63.0029 147.546 63.0804 147.197 63.2354 146.896C63.3903 146.591 63.6136 146.338 63.9053 146.138C64.1969 145.933 64.5479 145.778 64.958 145.673C65.3682 145.568 65.8262 145.516 66.332 145.516H67.8018ZM72.1016 143.766V150H70.8369V142.604H72.0674L72.1016 143.766ZM74.4121 142.562L74.4053 143.738C74.3005 143.715 74.2002 143.702 74.1045 143.697C74.0133 143.688 73.9085 143.684 73.79 143.684C73.4984 143.684 73.2409 143.729 73.0176 143.82C72.7943 143.911 72.6051 144.039 72.4502 144.203C72.2952 144.367 72.1722 144.563 72.0811 144.791C71.9945 145.014 71.9375 145.26 71.9102 145.529L71.5547 145.734C71.5547 145.288 71.598 144.868 71.6846 144.477C71.7757 144.085 71.9147 143.738 72.1016 143.438C72.2884 143.132 72.5254 142.895 72.8125 142.727C73.1042 142.553 73.4505 142.467 73.8516 142.467C73.9427 142.467 74.0475 142.478 74.166 142.501C74.2845 142.519 74.3665 142.54 74.4121 142.562ZM77.7822 149.234L79.8398 142.604H81.1934L78.2266 151.142C78.1582 151.324 78.0671 151.52 77.9531 151.729C77.8438 151.944 77.7025 152.146 77.5293 152.338C77.3561 152.529 77.1465 152.684 76.9004 152.803C76.6589 152.926 76.3695 152.987 76.0322 152.987C75.932 152.987 75.8044 152.974 75.6494 152.946C75.4945 152.919 75.3851 152.896 75.3213 152.878L75.3145 151.853C75.3509 151.857 75.4079 151.862 75.4854 151.866C75.5674 151.875 75.6243 151.88 75.6562 151.88C75.9434 151.88 76.1872 151.841 76.3877 151.764C76.5882 151.691 76.7568 151.565 76.8936 151.388C77.0348 151.215 77.1556 150.975 77.2559 150.67L77.7822 149.234ZM76.2715 142.604L78.1924 148.346L78.5205 149.679L77.6113 150.144L74.8906 142.604H76.2715Z" fill="#474747"/>
</svg>
