<svg width="115" height="154" viewBox="0 0 115 154" fill="none" xmlns="http://www.w3.org/2000/svg">
<circle cx="57.5" cy="57.5" r="57.5" fill="#2B2E51"/>
<path d="M30.96 147.484C30.96 147.252 30.9235 147.047 30.8506 146.869C30.7822 146.687 30.6592 146.523 30.4814 146.377C30.3083 146.231 30.0667 146.092 29.7568 145.96C29.4515 145.828 29.0641 145.693 28.5947 145.557C28.1025 145.411 27.6582 145.249 27.2617 145.071C26.8652 144.889 26.5257 144.682 26.2432 144.449C25.9606 144.217 25.7441 143.95 25.5938 143.649C25.4434 143.349 25.3682 143.005 25.3682 142.617C25.3682 142.23 25.4479 141.872 25.6074 141.544C25.7669 141.216 25.9948 140.931 26.291 140.689C26.5918 140.443 26.9495 140.252 27.3643 140.115C27.779 139.979 28.2415 139.91 28.752 139.91C29.4993 139.91 30.1328 140.054 30.6523 140.341C31.1764 140.623 31.5752 140.995 31.8486 141.455C32.1221 141.911 32.2588 142.398 32.2588 142.918H30.9463C30.9463 142.544 30.8665 142.214 30.707 141.927C30.5475 141.635 30.306 141.407 29.9824 141.243C29.6589 141.075 29.2487 140.99 28.752 140.99C28.2826 140.99 27.8952 141.061 27.5898 141.202C27.2845 141.343 27.0566 141.535 26.9062 141.776C26.7604 142.018 26.6875 142.294 26.6875 142.604C26.6875 142.813 26.7308 143.005 26.8174 143.178C26.9085 143.346 27.0475 143.504 27.2344 143.649C27.4258 143.795 27.6673 143.93 27.959 144.053C28.2552 144.176 28.6084 144.294 29.0186 144.408C29.5837 144.568 30.0713 144.745 30.4814 144.941C30.8916 145.137 31.2288 145.358 31.4932 145.604C31.762 145.846 31.9603 146.122 32.0879 146.432C32.2201 146.737 32.2861 147.083 32.2861 147.471C32.2861 147.876 32.2041 148.243 32.04 148.571C31.876 148.899 31.6413 149.18 31.3359 149.412C31.0306 149.645 30.6637 149.825 30.2354 149.952C29.8115 150.075 29.3376 150.137 28.8135 150.137C28.3532 150.137 27.8997 150.073 27.4531 149.945C27.0111 149.818 26.6077 149.626 26.2432 149.371C25.8831 149.116 25.5938 148.801 25.375 148.428C25.1608 148.049 25.0537 147.612 25.0537 147.115H26.3662C26.3662 147.457 26.4323 147.751 26.5645 147.997C26.6966 148.239 26.8766 148.439 27.1045 148.599C27.3369 148.758 27.599 148.877 27.8906 148.954C28.1868 149.027 28.4945 149.063 28.8135 149.063C29.2738 149.063 29.6634 149 29.9824 148.872C30.3014 148.744 30.543 148.562 30.707 148.325C30.8757 148.088 30.96 147.808 30.96 147.484ZM36.8457 150.137C36.3307 150.137 35.8636 150.05 35.4443 149.877C35.0296 149.699 34.6719 149.451 34.3711 149.132C34.0749 148.813 33.847 148.435 33.6875 147.997C33.528 147.56 33.4482 147.081 33.4482 146.562V146.274C33.4482 145.673 33.5371 145.137 33.7148 144.668C33.8926 144.194 34.1341 143.793 34.4395 143.465C34.7448 143.137 35.0911 142.888 35.4785 142.72C35.8659 142.551 36.2669 142.467 36.6816 142.467C37.2103 142.467 37.666 142.558 38.0488 142.74C38.4362 142.923 38.7529 143.178 38.999 143.506C39.2451 143.829 39.4274 144.212 39.5459 144.654C39.6644 145.092 39.7236 145.57 39.7236 146.09V146.657H34.2002V145.625H38.459V145.529C38.4408 145.201 38.3724 144.882 38.2539 144.572C38.14 144.262 37.9577 144.007 37.707 143.807C37.4564 143.606 37.1146 143.506 36.6816 143.506C36.3945 143.506 36.1302 143.567 35.8887 143.69C35.6471 143.809 35.4398 143.987 35.2666 144.224C35.0934 144.461 34.959 144.75 34.8633 145.092C34.7676 145.434 34.7197 145.828 34.7197 146.274V146.562C34.7197 146.912 34.7676 147.243 34.8633 147.553C34.9635 147.858 35.1071 148.127 35.2939 148.359C35.4854 148.592 35.7155 148.774 35.9844 148.906C36.2578 149.038 36.5677 149.104 36.9141 149.104C37.3607 149.104 37.7389 149.013 38.0488 148.831C38.3587 148.649 38.6299 148.405 38.8623 148.1L39.6279 148.708C39.4684 148.95 39.2656 149.18 39.0195 149.398C38.7734 149.617 38.4704 149.795 38.1104 149.932C37.7549 150.068 37.3333 150.137 36.8457 150.137ZM44.1602 149.098C44.4609 149.098 44.7389 149.036 44.9941 148.913C45.2493 148.79 45.459 148.621 45.623 148.407C45.7871 148.188 45.8805 147.94 45.9033 147.662H47.1064C47.0837 148.1 46.9355 148.507 46.6621 148.886C46.3932 149.259 46.04 149.562 45.6025 149.795C45.165 150.023 44.6842 150.137 44.1602 150.137C43.6042 150.137 43.1188 150.039 42.7041 149.843C42.2939 149.647 41.9521 149.378 41.6787 149.036C41.4098 148.694 41.207 148.302 41.0703 147.86C40.9382 147.414 40.8721 146.942 40.8721 146.445V146.158C40.8721 145.661 40.9382 145.192 41.0703 144.75C41.207 144.303 41.4098 143.909 41.6787 143.567C41.9521 143.226 42.2939 142.957 42.7041 142.761C43.1188 142.565 43.6042 142.467 44.1602 142.467C44.7389 142.467 45.2448 142.585 45.6777 142.822C46.1107 143.055 46.4502 143.374 46.6963 143.779C46.9469 144.18 47.0837 144.636 47.1064 145.146H45.9033C45.8805 144.841 45.7939 144.565 45.6436 144.319C45.4977 144.073 45.2972 143.877 45.042 143.731C44.7913 143.581 44.4974 143.506 44.1602 143.506C43.7728 143.506 43.4469 143.583 43.1826 143.738C42.9229 143.889 42.7155 144.094 42.5605 144.354C42.4102 144.609 42.3008 144.894 42.2324 145.208C42.1686 145.518 42.1367 145.835 42.1367 146.158V146.445C42.1367 146.769 42.1686 147.088 42.2324 147.402C42.2962 147.717 42.4033 148.002 42.5537 148.257C42.7087 148.512 42.916 148.717 43.1758 148.872C43.4401 149.022 43.7682 149.098 44.1602 149.098ZM53.0537 148.291V142.604H54.3252V150H53.1152L53.0537 148.291ZM53.293 146.732L53.8193 146.719C53.8193 147.211 53.7669 147.667 53.6621 148.086C53.5618 148.501 53.3978 148.861 53.1699 149.166C52.9421 149.471 52.6436 149.711 52.2744 149.884C51.9053 150.052 51.4564 150.137 50.9277 150.137C50.5677 150.137 50.2373 150.084 49.9365 149.979C49.6403 149.875 49.3851 149.713 49.1709 149.494C48.9567 149.275 48.7904 148.991 48.6719 148.64C48.5579 148.289 48.501 147.867 48.501 147.375V142.604H49.7656V147.389C49.7656 147.721 49.8021 147.997 49.875 148.216C49.9525 148.43 50.055 148.601 50.1826 148.729C50.3148 148.852 50.4606 148.938 50.6201 148.988C50.7842 149.038 50.9528 149.063 51.126 149.063C51.6637 149.063 52.0898 148.961 52.4043 148.756C52.7188 148.546 52.9443 148.266 53.0811 147.915C53.2223 147.56 53.293 147.165 53.293 146.732ZM57.5176 144.183V150H56.2529V142.604H57.4492L57.5176 144.183ZM57.2168 146.021L56.6904 146.001C56.695 145.495 56.7702 145.028 56.916 144.6C57.0618 144.167 57.2669 143.791 57.5312 143.472C57.7956 143.153 58.11 142.907 58.4746 142.733C58.8438 142.556 59.2516 142.467 59.6982 142.467C60.0628 142.467 60.391 142.517 60.6826 142.617C60.9743 142.713 61.2227 142.868 61.4277 143.082C61.6374 143.296 61.7969 143.574 61.9062 143.916C62.0156 144.253 62.0703 144.666 62.0703 145.153V150H60.7988V145.14C60.7988 144.752 60.7419 144.442 60.6279 144.21C60.514 143.973 60.3477 143.802 60.1289 143.697C59.9102 143.588 59.6413 143.533 59.3223 143.533C59.0078 143.533 58.7207 143.599 58.4609 143.731C58.2057 143.864 57.9847 144.046 57.7979 144.278C57.6156 144.511 57.472 144.777 57.3672 145.078C57.2669 145.374 57.2168 145.689 57.2168 146.021ZM68.6533 148.564V139.5H69.9248V150H68.7627L68.6533 148.564ZM63.6768 146.384V146.24C63.6768 145.675 63.7451 145.162 63.8818 144.702C64.0231 144.237 64.2214 143.839 64.4766 143.506C64.7363 143.173 65.0439 142.918 65.3994 142.74C65.7594 142.558 66.1605 142.467 66.6025 142.467C67.0674 142.467 67.473 142.549 67.8193 142.713C68.1702 142.872 68.4665 143.107 68.708 143.417C68.9541 143.722 69.1478 144.091 69.2891 144.524C69.4303 144.957 69.5283 145.447 69.583 145.994V146.623C69.5329 147.165 69.4349 147.653 69.2891 148.086C69.1478 148.519 68.9541 148.888 68.708 149.193C68.4665 149.499 68.1702 149.733 67.8193 149.897C67.4684 150.057 67.0583 150.137 66.5889 150.137C66.1559 150.137 65.7594 150.043 65.3994 149.856C65.0439 149.67 64.7363 149.408 64.4766 149.07C64.2214 148.733 64.0231 148.337 63.8818 147.881C63.7451 147.421 63.6768 146.922 63.6768 146.384ZM64.9482 146.24V146.384C64.9482 146.753 64.9847 147.099 65.0576 147.423C65.1351 147.746 65.2536 148.031 65.4131 148.277C65.5726 148.523 65.7754 148.717 66.0215 148.858C66.2676 148.995 66.5615 149.063 66.9033 149.063C67.3226 149.063 67.6667 148.975 67.9355 148.797C68.209 148.619 68.4277 148.384 68.5918 148.093C68.7559 147.801 68.8835 147.484 68.9746 147.143V145.495C68.9199 145.244 68.8402 145.003 68.7354 144.771C68.6351 144.534 68.5029 144.324 68.3389 144.142C68.1794 143.955 67.9811 143.807 67.7441 143.697C67.5117 143.588 67.236 143.533 66.917 143.533C66.5706 143.533 66.2721 143.606 66.0215 143.752C65.7754 143.893 65.5726 144.089 65.4131 144.34C65.2536 144.586 65.1351 144.873 65.0576 145.201C64.9847 145.525 64.9482 145.871 64.9482 146.24ZM76.2549 148.735V144.928C76.2549 144.636 76.1956 144.383 76.0771 144.169C75.9632 143.95 75.79 143.782 75.5576 143.663C75.3252 143.545 75.0381 143.485 74.6963 143.485C74.3773 143.485 74.097 143.54 73.8555 143.649C73.6185 143.759 73.4316 143.902 73.2949 144.08C73.1628 144.258 73.0967 144.449 73.0967 144.654H71.832C71.832 144.39 71.9004 144.128 72.0371 143.868C72.1738 143.608 72.3698 143.374 72.625 143.164C72.8848 142.95 73.1947 142.781 73.5547 142.658C73.9193 142.531 74.3249 142.467 74.7715 142.467C75.3092 142.467 75.7832 142.558 76.1934 142.74C76.6081 142.923 76.9316 143.198 77.1641 143.567C77.401 143.932 77.5195 144.39 77.5195 144.941V148.387C77.5195 148.633 77.54 148.895 77.5811 149.173C77.6266 149.451 77.6927 149.69 77.7793 149.891V150H76.46C76.3962 149.854 76.346 149.66 76.3096 149.419C76.2731 149.173 76.2549 148.945 76.2549 148.735ZM76.4736 145.516L76.4873 146.404H75.209C74.849 146.404 74.5277 146.434 74.2451 146.493C73.9626 146.548 73.7256 146.632 73.5342 146.746C73.3428 146.86 73.1969 147.004 73.0967 147.177C72.9964 147.345 72.9463 147.544 72.9463 147.771C72.9463 148.004 72.9987 148.216 73.1035 148.407C73.2083 148.599 73.3656 148.751 73.5752 148.865C73.7894 148.975 74.0514 149.029 74.3613 149.029C74.7487 149.029 75.0905 148.947 75.3867 148.783C75.6829 148.619 75.9176 148.419 76.0908 148.182C76.2686 147.945 76.3643 147.715 76.3779 147.491L76.918 148.1C76.8861 148.291 76.7995 148.503 76.6582 148.735C76.5169 148.968 76.3278 149.191 76.0908 149.405C75.8584 149.615 75.5804 149.79 75.2568 149.932C74.9378 150.068 74.5778 150.137 74.1768 150.137C73.6755 150.137 73.2357 150.039 72.8574 149.843C72.4837 149.647 72.1921 149.385 71.9824 149.057C71.7773 148.724 71.6748 148.353 71.6748 147.942C71.6748 147.546 71.7523 147.197 71.9072 146.896C72.0622 146.591 72.2855 146.338 72.5771 146.138C72.8688 145.933 73.2197 145.778 73.6299 145.673C74.04 145.568 74.498 145.516 75.0039 145.516H76.4736ZM80.7734 143.766V150H79.5088V142.604H80.7393L80.7734 143.766ZM83.084 142.562L83.0771 143.738C82.9723 143.715 82.8721 143.702 82.7764 143.697C82.6852 143.688 82.5804 143.684 82.4619 143.684C82.1702 143.684 81.9128 143.729 81.6895 143.82C81.4661 143.911 81.277 144.039 81.1221 144.203C80.9671 144.367 80.8441 144.563 80.7529 144.791C80.6663 145.014 80.6094 145.26 80.582 145.529L80.2266 145.734C80.2266 145.288 80.2699 144.868 80.3564 144.477C80.4476 144.085 80.5866 143.738 80.7734 143.438C80.9603 143.132 81.1973 142.895 81.4844 142.727C81.776 142.553 82.1224 142.467 82.5234 142.467C82.6146 142.467 82.7194 142.478 82.8379 142.501C82.9564 142.519 83.0384 142.54 83.084 142.562ZM86.4541 149.234L88.5117 142.604H89.8652L86.8984 151.142C86.8301 151.324 86.7389 151.52 86.625 151.729C86.5156 151.944 86.3743 152.146 86.2012 152.338C86.028 152.529 85.8184 152.684 85.5723 152.803C85.3307 152.926 85.0413 152.987 84.7041 152.987C84.6038 152.987 84.4762 152.974 84.3213 152.946C84.1663 152.919 84.057 152.896 83.9932 152.878L83.9863 151.853C84.0228 151.857 84.0798 151.862 84.1572 151.866C84.2393 151.875 84.2962 151.88 84.3281 151.88C84.6152 151.88 84.859 151.841 85.0596 151.764C85.2601 151.691 85.4287 151.565 85.5654 151.388C85.7067 151.215 85.8275 150.975 85.9277 150.67L86.4541 149.234ZM84.9434 142.604L86.8643 148.346L87.1924 149.679L86.2832 150.144L83.5625 142.604H84.9434Z" fill="#474747"/>
</svg>
