<svg width="634" height="1452" viewBox="0 0 634 1452" fill="none" xmlns="http://www.w3.org/2000/svg">
<g clip-path="url(#clip0_608_482)">
<rect width="634" height="1451.93" fill="white"/>
<rect x="33.3516" y="67.3633" width="567.628" height="150.245" fill="#C4C4C4"/>
<rect width="634" height="34.3417" fill="#C4C4C4"/>
<path d="M23.5986 24.209C23.337 24.209 23.2063 24.0782 23.2063 23.8167V16.1611C23.2063 15.963 23.3885 15.864 23.7531 15.864H23.9314C24.296 15.864 24.4782 15.963 24.4782 16.1611V23.1153H27.5452C27.7275 23.1153 27.8186 23.258 27.8186 23.5433V23.781C27.8186 24.0663 27.7275 24.209 27.5452 24.209H23.5986ZM31.9893 24.2922C30.7926 24.2922 29.8773 23.9276 29.2433 23.1985C28.6093 22.4694 28.2923 21.4154 28.2923 20.0365C28.2923 18.6417 28.6093 17.5876 29.2433 16.8744C29.8773 16.1611 30.7926 15.8045 31.9893 15.8045C33.1939 15.8045 34.1132 16.1611 34.7472 16.8744C35.3812 17.5876 35.6982 18.6417 35.6982 20.0365C35.6982 21.4154 35.3812 22.4694 34.7472 23.1985C34.1132 23.9276 33.1939 24.2922 31.9893 24.2922ZM31.9893 23.1985C32.7739 23.1985 33.3682 22.9291 33.7724 22.3902C34.1845 21.8434 34.3906 21.0588 34.3906 20.0365C34.3906 19.0062 34.1845 18.2296 33.7724 17.7065C33.3682 17.1755 32.7739 16.9101 31.9893 16.9101C31.2126 16.9101 30.6183 17.1755 30.2062 17.7065C29.802 18.2296 29.5999 19.0062 29.5999 20.0365C29.5999 21.0588 29.802 21.8434 30.2062 22.3902C30.6183 22.9291 31.2126 23.1985 31.9893 23.1985ZM40.72 24.2922C39.4995 24.2922 38.5723 23.9514 37.9383 23.2699C37.3043 22.5804 36.9873 21.5224 36.9873 20.0959C36.9873 18.6298 37.3162 17.548 37.974 16.8506C38.6397 16.1532 39.6026 15.8045 40.8626 15.8045C41.1479 15.8045 41.4293 15.8283 41.7067 15.8758C41.992 15.9234 42.2456 15.9828 42.4675 16.0542C42.6973 16.1255 42.8796 16.2087 43.0143 16.3038C43.149 16.391 43.2164 16.4821 43.2164 16.5772C43.2164 16.6485 43.1847 16.7516 43.1213 16.8863C43.0658 17.0131 42.9984 17.128 42.9192 17.231C42.8479 17.334 42.7765 17.3856 42.7052 17.3856C42.6656 17.3856 42.5705 17.3459 42.4199 17.2667C42.2773 17.1874 42.0791 17.1082 41.8255 17.0289C41.5719 16.9497 41.2549 16.9101 40.8745 16.9101C40.2405 16.9101 39.7333 17.0329 39.3529 17.2786C38.9805 17.5163 38.711 17.869 38.5446 18.3366C38.3782 18.7962 38.2949 19.3589 38.2949 20.0246C38.2949 20.4684 38.3346 20.8844 38.4138 21.2728C38.4931 21.6611 38.6278 21.9979 38.818 22.2832C39.0082 22.5685 39.2618 22.7944 39.5788 22.9608C39.9037 23.1193 40.3039 23.1985 40.7794 23.1985C41.1123 23.1985 41.4174 23.1787 41.6948 23.1391C41.9801 23.0995 42.2099 23.0519 42.3842 22.9965L42.1346 23.5433V20.9161H40.8389C40.6566 20.9161 40.5655 20.7735 40.5655 20.4882V20.2504C40.5655 19.9651 40.6566 19.8225 40.8389 19.8225H43.0143C43.2758 19.8225 43.4066 19.9533 43.4066 20.2148V23.4125C43.4066 23.5869 43.3234 23.7335 43.1569 23.8524C42.9984 23.9633 42.7845 24.0505 42.515 24.1139C42.2535 24.1773 41.9642 24.2209 41.6472 24.2446C41.3381 24.2763 41.0291 24.2922 40.72 24.2922ZM48.6713 24.2922C47.4746 24.2922 46.5592 23.9276 45.9252 23.1985C45.2912 22.4694 44.9742 21.4154 44.9742 20.0365C44.9742 18.6417 45.2912 17.5876 45.9252 16.8744C46.5592 16.1611 47.4746 15.8045 48.6713 15.8045C49.8759 15.8045 50.7952 16.1611 51.4292 16.8744C52.0632 17.5876 52.3802 18.6417 52.3802 20.0365C52.3802 21.4154 52.0632 22.4694 51.4292 23.1985C50.7952 23.9276 49.8759 24.2922 48.6713 24.2922ZM48.6713 23.1985C49.4558 23.1985 50.0502 22.9291 50.4544 22.3902C50.8665 21.8434 51.0725 21.0588 51.0725 20.0365C51.0725 19.0062 50.8665 18.2296 50.4544 17.7065C50.0502 17.1755 49.4558 16.9101 48.6713 16.9101C47.8946 16.9101 47.3002 17.1755 46.8881 17.7065C46.484 18.2296 46.2819 19.0062 46.2819 20.0365C46.2819 21.0588 46.484 21.8434 46.8881 22.3902C47.3002 22.9291 47.8946 23.1985 48.6713 23.1985Z" fill="white"/>
<rect x="241.382" y="16.1807" width="29.0583" height="7.59479" rx="3.7974" fill="#898787"/>
<rect x="283.648" y="16.1807" width="29.0583" height="7.59479" rx="3.7974" fill="#898787"/>
<rect x="323.273" y="16.1807" width="29.0583" height="7.59479" rx="3.7974" fill="#898787"/>
<rect x="363.229" y="16.1807" width="29.0583" height="7.59479" rx="3.7974" fill="#898787"/>
<rect y="494.983" width="634" height="238.41" fill="#C4C4C4" fill-opacity="0.2"/>
<rect x="334.172" y="643.907" width="25.7563" height="21.1333" rx="2.97188" fill="#C4C4C4"/>
<rect x="363.891" y="643.907" width="25.7563" height="21.1333" rx="2.97188" fill="#C4C4C4"/>
<rect x="393.609" y="643.907" width="25.7563" height="21.1333" rx="2.97188" fill="#C4C4C4"/>
<rect x="423.328" y="643.907" width="25.7563" height="21.1333" rx="2.97188" fill="#C4C4C4"/>
<rect x="334.172" y="542.862" width="218.928" height="9.90625" rx="4.95313" fill="#898787"/>
<rect x="334.501" y="564.988" width="171.378" height="6.60417" rx="3.30208" fill="#BDBDBD"/>
<rect x="334.501" y="576.216" width="199.116" height="6.60417" rx="3.30208" fill="#BDBDBD"/>
<rect x="334.501" y="587.442" width="183.926" height="6.60417" rx="3.30208" fill="#BDBDBD"/>
<rect x="334.501" y="598.67" width="174.68" height="6.60417" rx="3.30208" fill="#BDBDBD"/>
<rect x="334.501" y="609.896" width="199.116" height="6.60417" rx="3.30208" fill="#BDBDBD"/>
<rect x="334.501" y="621.124" width="85.1938" height="6.60417" rx="3.30208" fill="#BDBDBD"/>
<rect x="223.552" y="956.277" width="179.303" height="5.93593" rx="2.96797" fill="#BDBDBD"/>
<rect x="33.3516" y="236.761" width="86.1844" height="9.90625" rx="4.95313" fill="#898787"/>
<rect x="555.741" y="13.209" width="29.0583" height="7.59479" rx="3.7974" fill="#898787"/>
<rect x="596.356" y="13.209" width="29.0583" height="7.59479" rx="3.7974" fill="#898787"/>
<rect x="33.3516" y="346.719" width="119.205" height="105.336" fill="#C4C4C4" fill-opacity="0.2"/>
<rect x="184.587" y="346.719" width="119.205" height="105.336" fill="#C4C4C4" fill-opacity="0.2"/>
<rect x="335.492" y="346.719" width="119.205" height="105.336" fill="#C4C4C4" fill-opacity="0.2"/>
<rect x="479.463" y="349.36" width="119.205" height="105.336" fill="#C4C4C4" fill-opacity="0.2"/>
<path d="M63.731 436.701C63.731 433.692 66.1703 431.253 69.1794 431.253H116.729C119.738 431.253 122.178 433.692 122.178 436.701C122.178 439.71 119.738 442.15 116.729 442.15H69.1794C66.1703 442.15 63.731 439.71 63.731 436.701Z" fill="#898787"/>
<path d="M214.966 436.701C214.966 433.692 217.406 431.253 220.415 431.253H267.965C270.974 431.253 273.413 433.692 273.413 436.701C273.413 439.71 270.974 442.15 267.965 442.15H220.415C217.406 442.15 214.966 439.71 214.966 436.701Z" fill="#898787"/>
<path d="M365.872 436.701C365.872 433.692 368.311 431.253 371.32 431.253H418.87C421.879 431.253 424.318 433.692 424.318 436.701C424.318 439.71 421.879 442.15 418.87 442.15H371.32C368.311 442.15 365.872 439.71 365.872 436.701Z" fill="#898787"/>
<path d="M509.842 439.343C509.842 436.334 512.282 433.895 515.291 433.895H562.841C565.85 433.895 568.289 436.334 568.289 439.343C568.289 442.352 565.85 444.791 562.841 444.791H515.291C512.282 444.791 509.842 442.352 509.842 439.343Z" fill="#898787"/>
<rect x="38.3047" y="361.909" width="65.7115" height="5.94375" rx="2.97188" fill="#898787"/>
<rect x="189.54" y="361.909" width="65.7115" height="5.94375" rx="2.97188" fill="#898787"/>
<rect x="340.445" y="361.909" width="65.7115" height="5.94375" rx="2.97188" fill="#898787"/>
<rect x="484.416" y="364.551" width="65.7115" height="5.94375" rx="2.97188" fill="#898787"/>
<rect x="38.3047" y="412.101" width="39.9552" height="5.94375" rx="2.97188" fill="#898787"/>
<rect x="189.54" y="412.101" width="39.9552" height="5.94375" rx="2.97188" fill="#898787"/>
<rect x="340.445" y="412.101" width="39.9552" height="5.94375" rx="2.97188" fill="#898787"/>
<rect x="484.416" y="414.742" width="39.9552" height="5.94375" rx="2.97188" fill="#898787"/>
<rect x="38.3047" y="381.061" width="21.1333" height="21.1333" fill="#C4C4C4"/>
<rect x="189.54" y="381.061" width="21.1333" height="21.1333" fill="#C4C4C4"/>
<rect x="340.445" y="381.061" width="21.1333" height="21.1333" fill="#C4C4C4"/>
<rect x="484.416" y="383.702" width="21.1333" height="21.1333" fill="#C4C4C4"/>
<rect x="72.6465" y="381.061" width="21.1333" height="21.1333" fill="#C4C4C4"/>
<rect x="223.882" y="381.061" width="21.1333" height="21.1333" fill="#C4C4C4"/>
<rect x="374.787" y="381.061" width="21.1333" height="21.1333" fill="#C4C4C4"/>
<rect x="518.758" y="383.702" width="21.1333" height="21.1333" fill="#C4C4C4"/>
<rect x="106.988" y="381.061" width="21.1333" height="21.1333" fill="#C4C4C4"/>
<rect x="258.224" y="381.061" width="21.1333" height="21.1333" fill="#C4C4C4"/>
<rect x="409.129" y="381.061" width="21.1333" height="21.1333" fill="#C4C4C4"/>
<rect x="553.1" y="383.702" width="21.1333" height="21.1333" fill="#C4C4C4"/>
<rect x="477.647" y="271.432" width="121.021" height="79.9104" fill="#C4C4C4"/>
<rect x="334.171" y="271.432" width="121.186" height="79.9104" fill="#C4C4C4"/>
<rect x="184.212" y="271.432" width="118.7" height="79.9104" fill="#C4C4C4"/>
<rect x="33.3516" y="271.432" width="118.7" height="79.9104" fill="#C4C4C4"/>
<rect x="25.4268" y="1152.43" width="135.055" height="81.2312" fill="#FAF8F8"/>
<rect x="172.039" y="1152.43" width="135.055" height="81.2312" fill="#FAF8F8"/>
<rect x="318.651" y="1152.43" width="135.055" height="81.2312" fill="#FAF8F8"/>
<rect x="466.254" y="1152.43" width="135.055" height="81.2312" fill="#FAF8F8"/>
<rect x="25.4268" y="1098.6" width="135.055" height="88.4958" fill="#C4C4C4"/>
<rect x="25.4268" y="1176.2" width="67.3625" height="10.8969" fill="#9F9F9F"/>
<rect x="33.3516" y="1200.97" width="73.3063" height="3.30208" rx="1.65104" fill="#9F9F9F"/>
<rect x="179.964" y="1200.97" width="73.3063" height="3.30208" rx="1.65104" fill="#9F9F9F"/>
<rect x="326.577" y="1200.97" width="73.3063" height="3.30208" rx="1.65104" fill="#9F9F9F"/>
<rect x="474.18" y="1200.97" width="73.3063" height="3.30208" rx="1.65104" fill="#9F9F9F"/>
<rect x="33.3516" y="1208.56" width="64.0604" height="3.30208" rx="1.65104" fill="#9F9F9F"/>
<rect x="179.964" y="1208.56" width="64.0604" height="3.30208" rx="1.65104" fill="#9F9F9F"/>
<rect x="326.577" y="1208.56" width="64.0604" height="3.30208" rx="1.65104" fill="#9F9F9F"/>
<rect x="474.18" y="1208.56" width="64.0604" height="3.30208" rx="1.65104" fill="#9F9F9F"/>
<rect x="33.3516" y="1216.16" width="64.0604" height="3.30208" rx="1.65104" fill="#9F9F9F"/>
<rect x="179.964" y="1216.16" width="64.0604" height="3.30208" rx="1.65104" fill="#9F9F9F"/>
<rect x="326.577" y="1216.16" width="64.0604" height="3.30208" rx="1.65104" fill="#9F9F9F"/>
<rect x="474.18" y="1216.16" width="64.0604" height="3.30208" rx="1.65104" fill="#9F9F9F"/>
<rect x="66.042" y="531.966" width="240.061" height="164.444" fill="#C4C4C4"/>
<rect x="333.841" y="678.909" width="145.292" height="17.501" rx="8.58542" fill="#C4C4C4"/>
<rect y="762.451" width="634" height="231.146" fill="#C4C4C4"/>
<rect x="187.889" y="1033.22" width="250.628" height="24.1052" fill="#9F9F9F"/>
<rect x="248.978" y="1266.68" width="128.451" height="18.8219" rx="9.41094" fill="#9F9F9F"/>
<rect x="172.369" y="1096.95" width="134.725" height="88.4958" fill="#C4C4C4"/>
<rect x="319.312" y="1096.95" width="134.725" height="88.4958" fill="#C4C4C4"/>
<rect x="465.924" y="1096.95" width="135.055" height="88.4958" fill="#C4C4C4"/>
<rect x="-3.93945" y="1318.52" width="640.251" height="133.404" fill="#C4C4C4"/>
<line x1="-6.2737" y1="1420.72" x2="633.977" y2="1419.69" stroke="#868686" stroke-width="0.330208"/>
<rect x="521.399" y="1427.82" width="21.3155" height="17.1708" rx="2.97188" fill="#E2DFDF"/>
<rect x="545.995" y="1427.82" width="21.3155" height="17.1708" rx="2.97188" fill="#E2DFDF"/>
<rect x="570.589" y="1427.82" width="21.3155" height="17.1708" rx="2.97188" fill="#E2DFDF"/>
<rect x="595.184" y="1427.82" width="21.3155" height="17.1708" rx="2.97188" fill="#E2DFDF"/>
<rect x="32.0308" y="1430.79" width="62.7396" height="11.5573" fill="#E8E6E6"/>
<rect x="114.583" y="1430.79" width="48.5406" height="11.5573" fill="#E8E6E6"/>
<rect x="182.936" y="1430.79" width="26.0865" height="11.5573" fill="#E8E6E6"/>
<rect x="32.0308" y="1341.97" width="35.3323" height="4.95313" rx="2.47656" fill="#9F9F9F"/>
<rect x="297.518" y="1341.97" width="35.3323" height="4.95313" rx="2.47656" fill="#9F9F9F"/>
<rect x="120.526" y="1342.96" width="54.4844" height="4.95313" rx="2.47656" fill="#9F9F9F"/>
<rect x="208.032" y="1342.96" width="28.0677" height="4.95313" rx="2.47656" fill="#9F9F9F"/>
<rect x="32.0308" y="1353.52" width="42.063" height="2.7807" rx="1.39035" fill="#D7D4D4"/>
<rect x="32.0308" y="1358.25" width="48.8708" height="2.7807" rx="1.39035" fill="#D7D4D4"/>
<rect x="32.0308" y="1362.98" width="45.1427" height="2.7807" rx="1.39035" fill="#D7D4D4"/>
<rect x="32.0308" y="1367.71" width="42.8734" height="2.7807" rx="1.39035" fill="#D7D4D4"/>
<rect x="32.0308" y="1372.43" width="48.8708" height="2.7807" rx="1.39035" fill="#D7D4D4"/>
<rect x="32.0308" y="1377.16" width="20.9099" height="2.7807" rx="1.39035" fill="#D7D4D4"/>
<rect x="297.518" y="1353.52" width="42.063" height="2.7807" rx="1.39035" fill="#D7D4D4"/>
<rect x="297.518" y="1358.25" width="48.8708" height="2.7807" rx="1.39035" fill="#D7D4D4"/>
<rect x="297.518" y="1362.98" width="45.1427" height="2.7807" rx="1.39035" fill="#D7D4D4"/>
<rect x="297.518" y="1367.71" width="42.8734" height="2.7807" rx="1.39035" fill="#D7D4D4"/>
<rect x="297.518" y="1372.43" width="48.8708" height="2.7807" rx="1.39035" fill="#D7D4D4"/>
<rect x="297.518" y="1377.16" width="20.9099" height="2.7807" rx="1.39035" fill="#D7D4D4"/>
<rect x="209.022" y="1350.88" width="42.063" height="2.7807" rx="1.39035" fill="#D7D4D4"/>
<rect x="209.022" y="1355.61" width="48.8708" height="2.7807" rx="1.39035" fill="#D7D4D4"/>
<rect x="209.022" y="1360.34" width="45.1427" height="2.7807" rx="1.39035" fill="#D7D4D4"/>
<rect x="32.0308" y="1386.54" width="42.063" height="2.7807" rx="1.39035" fill="#D7D4D4"/>
<rect x="32.0308" y="1391.27" width="48.8708" height="2.7807" rx="1.39035" fill="#D7D4D4"/>
<rect x="297.518" y="1386.54" width="42.063" height="2.7807" rx="1.39035" fill="#D7D4D4"/>
<rect x="297.518" y="1391.27" width="48.8708" height="2.7807" rx="1.39035" fill="#D7D4D4"/>
<rect x="120.526" y="1357.92" width="48.8708" height="2.7807" rx="1.39035" fill="#D7D4D4"/>
<rect x="120.526" y="1370.8" width="48.8708" height="2.7807" rx="1.39035" fill="#D7D4D4"/>
<rect x="120.526" y="1353.19" width="42.063" height="2.7807" rx="1.39035" fill="#D7D4D4"/>
<rect x="120.526" y="1366.07" width="42.063" height="2.7807" rx="1.39035" fill="#D7D4D4"/>
<rect x="209.022" y="1332.35" width="29.7188" height="2.57153" rx="1.28576" fill="#D7D4D4"/>
<rect x="209.022" y="1336.85" width="34.0115" height="2.89295" rx="1.44648" fill="#D7D4D4"/>
<rect x="209.022" y="1341.67" width="14.5292" height="2.57145" rx="1.28572" fill="#D7D4D4"/>
<rect x="405.496" y="831.795" width="33.0208" height="33.0208" fill="#C4C4C4"/>
</g>
<defs>
<clipPath id="clip0_608_482">
<rect width="634" height="1451.93" fill="white"/>
</clipPath>
</defs>
</svg>
